<svg width="16" height="16" viewBox="0 0 16 16" fill="none" xmlns="http://www.w3.org/2000/svg">
<g id="arrow-right">
<path id="Vector (Stroke)" fill-rule="evenodd" clip-rule="evenodd" d="M2.66663 8.00001C2.66663 7.63182 2.9651 7.33334 3.33329 7.33334H12.6666C13.0348 7.33334 13.3333 7.63182 13.3333 8.00001C13.3333 8.3682 13.0348 8.66668 12.6666 8.66668H3.33329C2.9651 8.66668 2.66663 8.3682 2.66663 8.00001Z" fill="white"/>
<path id="Vector (Stroke)_2" fill-rule="evenodd" clip-rule="evenodd" d="M7.52864 2.86192C7.78899 2.60157 8.2111 2.60157 8.47145 2.86192L13.1381 7.52859C13.3985 7.78893 13.3985 8.21105 13.1381 8.47139L8.47145 13.1381C8.2111 13.3984 7.78899 13.3984 7.52864 13.1381C7.26829 12.8777 7.26829 12.4556 7.52864 12.1953L11.7239 7.99999L7.52864 3.80473C7.26829 3.54438 7.26829 3.12227 7.52864 2.86192Z" fill="white"/>
</g>
</svg>
