<svg width="63" height="10" viewBox="0 0 63 10" fill="none" xmlns="http://www.w3.org/2000/svg">
<g clip-path="url(#clip0_60_735)">
<path d="M9.76156 2.64136V0.263794H3.10581C2.82288 0.263794 2.55341 0.391163 2.35131 0.603446L0.828847 2.18849C0.559383 2.47153 0.397705 2.85364 0.397705 3.26405V6.97192C0.397705 7.38234 0.54591 7.76444 0.828847 8.04749L2.35131 9.64668C2.55341 9.85896 2.83635 9.97218 3.11929 9.97218H9.77503V7.60877H2.6612V2.65551L9.76156 2.64136Z" fill="white"/>
<path d="M25.3911 2.64127V0.263702H28.1801C28.463 0.263702 28.7459 0.37692 28.948 0.603354L30.4705 2.20255C30.74 2.48559 30.9016 2.8677 30.9016 3.27811V6.98598C30.9016 7.3964 30.7534 7.7785 30.4705 8.06155L28.948 9.66074C28.7459 9.87303 28.463 9.98624 28.1801 9.98624H25.3911V7.60868H28.6247V2.65542L25.3911 2.64127Z" fill="white"/>
<path d="M19.8932 2.1884L18.3708 0.603354C18.1687 0.391072 17.8857 0.263702 17.6028 0.263702H13.8034C13.5204 0.263702 13.2375 0.37692 13.0354 0.603354L11.5129 2.1884C11.2435 2.47144 11.0818 2.85355 11.0818 3.26396V6.97183C11.0818 7.36809 11.23 7.76435 11.5129 8.0474L13.0354 9.64659C13.2375 9.85887 13.5204 9.98624 13.8034 9.98624H17.6028C17.8857 9.98624 18.1687 9.85887 18.3708 9.64659L19.8932 8.0474C20.1627 7.76435 20.3244 7.38224 20.3244 6.97183V3.26396C20.3244 2.8677 20.1627 2.48559 19.8932 2.1884ZM18.0609 7.60868H13.3588V2.65542H18.0609V7.60868Z" fill="white"/>
<path d="M23.8826 0.263702H21.7134V9.98624H23.8826V0.263702Z" fill="white"/>
<path d="M36.9383 6.30652L39.2826 2.64111H34.567V7.59436H41.5731V9.98608H35.0116C34.7287 9.98608 34.4457 9.85871 34.2436 9.64643L32.7212 8.04723C32.4517 7.76419 32.29 7.38208 32.29 6.97167V3.2638C32.29 2.85339 32.4382 2.47128 32.7212 2.18824L34.2436 0.589042C34.4457 0.376759 34.7287 0.24939 35.0116 0.24939H41.5731V2.62695L39.2422 6.29237H36.9383V6.30652Z" fill="white"/>
<path d="M50.3839 0.70242L51.9603 2.34407C52.1354 2.52805 52.2297 2.76864 52.2297 3.02338V4.62257C52.2297 4.87731 52.1354 5.1179 51.9603 5.28772L49.8989 7.48131L52.2163 9.98624H49.8989L47.5815 7.48131V5.21696H49.9662V2.52805H45.1428V9.98624H42.8928V0.263702H49.3465C49.7372 0.263702 50.1144 0.419376 50.3839 0.70242Z" fill="white"/>
<path d="M62.8997 5.1179L55.8533 3.34888V2.64127H62.8997V0.263702H56.4461C56.0554 0.263702 55.6916 0.419376 55.4221 0.716572L53.5359 2.69788V5.13205L60.5689 6.91522V7.62283H53.5359V9.98624H59.9491C60.3264 9.98624 60.6901 9.83057 60.9596 9.56168L62.8997 7.59453V5.1179Z" fill="white"/>
</g>
<defs>
<clipPath id="clip0_60_735">
<rect width="62.502" height="9.72254" fill="white" transform="translate(0.399414 0.263489)"/>
</clipPath>
</defs>
</svg>
