<svg width="104" height="17" viewBox="0 0 104 17" fill="none" xmlns="http://www.w3.org/2000/svg">
<g id="coders_color new logo 2" clip-path="url(#clip0_53_232)">
<g id="Group">
<g id="Layer_2-2">
<path id="Vector" d="M15.4672 3.92835V0.000366211H4.47127C4.00383 0.000366211 3.55864 0.210794 3.22476 0.561507L0.709483 3.18016C0.264301 3.64778 -0.00280762 4.27906 -0.00280762 4.95711V11.0829C-0.00280762 11.7609 0.242042 12.3922 0.709483 12.8598L3.22476 15.5019C3.55864 15.8526 4.02608 16.0396 4.49352 16.0396H15.4895V12.135H3.73672V3.95173L15.4672 3.92835Z" fill="white"/>
<path id="Vector_2" d="M41.2891 3.92835V0.000366211H45.8967C46.3641 0.000366211 46.8316 0.187413 47.1655 0.561507L49.6807 3.20354C50.1259 3.67116 50.393 4.30244 50.393 4.98049V11.1063C50.393 11.7843 50.1482 12.4156 49.6807 12.8832L47.1655 15.5252C46.8316 15.876 46.3641 16.063 45.8967 16.063H41.2891V12.135H46.6312V3.95173L41.2891 3.92835Z" fill="white"/>
<path id="Vector_3" d="M32.2054 3.18016L29.6901 0.561507C29.3562 0.210794 28.8888 0.000366211 28.4213 0.000366211H22.1443C21.6768 0.000366211 21.2094 0.187413 20.8755 0.561507L18.3602 3.18016C17.9151 3.64778 17.6479 4.27906 17.6479 4.95711V11.0829C17.6479 11.7376 17.8928 12.3922 18.3602 12.8598L20.8755 15.5019C21.2094 15.8526 21.6768 16.063 22.1443 16.063H28.4213C28.8888 16.063 29.3562 15.8526 29.6901 15.5019L32.2054 12.8598C32.6506 12.3922 32.9177 11.7609 32.9177 11.0829V4.95711C32.9177 4.30244 32.6506 3.67116 32.2054 3.18016ZM29.1781 12.135H21.4097V3.95173H29.1781V12.135Z" fill="white"/>
<path id="Vector_4" d="M38.7961 0.000366211H35.2124V16.063H38.7961V0.000366211Z" fill="white"/>
<path id="Vector_5" d="M60.3655 9.98368L64.2386 3.92805H56.4479V12.1113H68.0227V16.0627H57.1825C56.715 16.0627 56.2476 15.8523 55.9137 15.5016L53.3984 12.8595C52.9533 12.3919 52.6862 11.7606 52.6862 11.0826V4.9568C52.6862 4.27876 52.931 3.64748 53.3984 3.17986L55.9137 0.537825C56.2476 0.187112 56.715 -0.0233154 57.1825 -0.0233154H68.0227V3.90467L64.1718 9.9603H60.3655V9.98368Z" fill="white"/>
<path id="Vector_6" d="M82.5793 0.725172L85.1836 3.43735C85.473 3.7413 85.6288 4.13878 85.6288 4.55963V7.20167C85.6288 7.62252 85.473 8.02 85.1836 8.30057L81.778 11.9246L85.6065 16.063H81.778L77.9494 11.9246V8.18366H81.8893V3.7413H73.9205V16.063H70.2032V0.000366211H80.8653C81.5108 0.000366211 82.1341 0.257555 82.5793 0.725172Z" fill="white"/>
<path id="Vector_7" d="M103.257 8.02L91.6154 5.09739V3.92835H103.257V0.000366211H92.5948C91.9493 0.000366211 91.3483 0.257556 90.9031 0.748553L87.7869 4.02187V8.04338L99.4061 10.9894V12.1584H87.7869V16.063H98.3822C99.0054 16.063 99.6064 15.8058 100.052 15.3616L103.257 12.1116V8.02Z" fill="white"/>
</g>
</g>
</g>
<defs>
<clipPath id="clip0_53_232">
<rect width="103.26" height="16.0626" fill="white"/>
</clipPath>
</defs>
</svg>
