<svg width="73" height="12" viewBox="0 0 73 12" fill="none" xmlns="http://www.w3.org/2000/svg">
<g id="coders_color new logo 1" clip-path="url(#clip0_67_1000)">
<g id="Group">
<g id="Layer_2-2">
<path id="Vector" d="M10.9344 2.77718V0.000272751H3.16077C2.83031 0.000272751 2.51559 0.149036 2.27954 0.396973L0.50136 2.24824C0.186637 2.57883 -0.00219727 3.02512 -0.00219727 3.50446V7.83511C-0.00219727 8.31446 0.1709 8.76075 0.50136 9.09133L2.27954 10.9591C2.51559 11.2071 2.84605 11.3393 3.17651 11.3393H10.9502V8.57892H2.64148V2.79371L10.9344 2.77718Z" fill="#262626"/>
<path id="Vector_2" d="M29.1892 2.77717V0.000268936H32.4466C32.7771 0.000268936 33.1075 0.132502 33.3436 0.39697L35.1217 2.26477C35.4365 2.59535 35.6253 3.04164 35.6253 3.52099V7.85164C35.6253 8.33098 35.4522 8.77727 35.1217 9.10785L33.3436 10.9757C33.1075 11.2236 32.7771 11.3558 32.4466 11.3558H29.1892V8.57892H32.9659V2.7937L29.1892 2.77717Z" fill="#262626"/>
<path id="Vector_3" d="M22.7678 2.24824L20.9896 0.39697C20.7535 0.149032 20.4231 0.000268936 20.0926 0.000268936H15.655C15.3246 0.000268936 14.9941 0.132502 14.7581 0.39697L12.9799 2.24824C12.6652 2.57882 12.4763 3.02511 12.4763 3.50446V7.83511C12.4763 8.29792 12.6494 8.76074 12.9799 9.09133L14.7581 10.9591C14.9941 11.2071 15.3246 11.3558 15.655 11.3558H20.0926C20.4231 11.3558 20.7535 11.2071 20.9896 10.9591L22.7678 9.09133C23.0825 8.76074 23.2713 8.31445 23.2713 7.83511V3.50446C23.2713 3.04164 23.0825 2.59535 22.7678 2.24824ZM20.6276 8.57892H15.1357V2.7937H20.6276V8.57892Z" fill="#262626"/>
<path id="Vector_4" d="M27.4271 0.000268936H24.8936V11.3558H27.4271V0.000268936Z" fill="#262626"/>
<path id="Vector_5" d="M42.6756 7.05802L45.4136 2.77696H39.906V8.56217H48.0888V11.3556H40.4253C40.0948 11.3556 39.7644 11.2068 39.5283 10.9589L37.7501 9.09111C37.4354 8.76052 37.2466 8.31423 37.2466 7.83489V3.50424C37.2466 3.02489 37.4197 2.57861 37.7501 2.24802L39.5283 0.380223C39.7644 0.132285 40.0948 -0.0164776 40.4253 -0.0164776H48.0888V2.76043L45.3664 7.04149H42.6756V7.05802Z" fill="#262626"/>
<path id="Vector_6" d="M58.3797 0.512674L60.2208 2.43006C60.4254 2.64494 60.5355 2.92594 60.5355 3.22346V5.09126C60.5355 5.38879 60.4254 5.66978 60.2208 5.86813L57.8132 8.43016L60.5198 11.3558H57.8132L55.1066 8.43016V5.78549H57.8918V2.64494H52.2583V11.3558H49.6304V0.000268936H57.168C57.6243 0.000268936 58.0649 0.18209 58.3797 0.512674Z" fill="#262626"/>
<path id="Vector_7" d="M72.9979 5.66978L64.7679 3.60363V2.77717H72.9979V0.000268936H65.4603C65.0039 0.000268936 64.5791 0.18209 64.2643 0.529203L62.0613 2.84329V5.68631L70.2755 7.76899V8.59545H62.0613V11.3558H69.5517C69.9923 11.3558 70.4172 11.174 70.7319 10.8599L72.9979 8.56239V5.66978Z" fill="#262626"/>
</g>
</g>
</g>
<defs>
<clipPath id="clip0_67_1000">
<rect width="73" height="11.3556" fill="white"/>
</clipPath>
</defs>
</svg>
