<svg width="161" height="24" viewBox="0 0 161 24" fill="none" xmlns="http://www.w3.org/2000/svg">
<path d="M24.0345 5.87341V0H6.96626C6.22831 0.000409214 5.52073 0.296835 4.99912 0.824093L1.08902 4.76298C0.743423 5.11111 0.469312 5.52477 0.282427 5.98019C0.0955413 6.43562 -0.000437419 6.92385 1.49862e-06 7.41684V16.5657C0.00278336 17.5565 0.394404 18.5059 1.08902 19.2056L4.99912 23.1619C5.52214 23.6866 6.2291 23.9815 6.96626 23.9825H24.0345V18.1091H5.81502V5.88738L24.0345 5.87341Z" fill="#262626"/>
<path d="M64.1445 5.87342V5.8169e-06H71.2975C71.663 -0.000747607 72.0251 0.0716955 72.3627 0.213147C72.7004 0.354598 73.0069 0.562251 73.2646 0.824099L77.1747 4.76299C77.5208 5.11095 77.7954 5.52449 77.9829 5.97991C78.1704 6.43532 78.267 6.92364 78.2672 7.41685V16.5657C78.267 17.0589 78.1704 17.5472 77.9829 18.0026C77.7954 18.458 77.5208 18.8716 77.1747 19.2195L73.2646 23.1619C72.742 23.6872 72.0348 23.9823 71.2975 23.9825H64.1445V18.1091H72.4418V5.88739L64.1445 5.87342Z" fill="#262626"/>
<path d="M50.0328 4.76298L46.1262 0.824094C45.6046 0.296835 44.897 0.000409259 44.159 4.48382e-08H34.4062C34.0403 -6.59311e-05 33.6779 0.0726774 33.3398 0.214076C33.0017 0.355475 32.6944 0.56276 32.4356 0.824094L28.529 4.76298C28.1832 5.11117 27.9088 5.52476 27.7213 5.98012C27.5339 6.43548 27.4371 6.92369 27.4365 7.41684V16.5657C27.4406 17.557 27.8334 18.5062 28.529 19.2056L32.4356 23.1445C32.6944 23.4058 33.0017 23.6131 33.3398 23.7545C33.6779 23.8959 34.0403 23.9686 34.4062 23.9686H44.159C44.897 23.9681 45.6046 23.6717 46.1262 23.1445L50.0328 19.2056C50.3795 18.8581 50.6545 18.4446 50.8421 17.9891C51.0296 17.5336 51.1258 17.045 51.1253 16.5517V7.41684C51.1255 6.92357 51.029 6.43514 50.8415 5.97968C50.654 5.52421 50.3792 5.11071 50.0328 4.76298ZM45.3103 18.1091H33.2515V5.88738H45.3103V18.1091Z" fill="#262626"/>
<path d="M60.2729 0H54.7034V23.9825H60.2729V0Z" fill="#262626"/>
<path d="M93.7559 14.9175L99.7611 5.87341H87.6608V18.0951H105.638V23.9825H88.8017C88.0638 23.9821 87.3562 23.6857 86.8346 23.1584L82.9487 19.2056C82.6026 18.8576 82.328 18.4441 82.1405 17.9886C81.953 17.5332 81.8564 17.0449 81.8562 16.5517V7.41684C81.8568 6.92369 81.9536 6.43548 82.141 5.98012C82.3285 5.52476 82.6029 5.11117 82.9487 4.76298L86.8553 0.824093C87.3769 0.296835 88.0845 0.000409214 88.8225 0L105.659 0V5.87341L99.6885 14.9175H93.7559Z" fill="#262626"/>
<path d="M128.262 1.09648L132.297 5.15759C132.515 5.37503 132.688 5.6338 132.807 5.91903C132.925 6.20426 132.987 6.51036 132.988 6.81974V10.7761C132.983 11.3974 132.735 11.9914 132.297 12.4278L127.018 17.8088L132.964 24H127.018L121.071 17.8088V12.2217H127.194V5.5871H114.831V23.9895H109.064V2.04287e-05H125.628C126.117 -0.00161045 126.601 0.0944224 127.053 0.282595C127.506 0.470768 127.916 0.747368 128.262 1.09648Z" fill="#262626"/>
<path d="M160.383 11.9913L142.288 7.61588V5.86992H160.383V2.95741e-08H143.82C143.332 -6.18732e-05 142.849 0.0970547 142.398 0.285795C141.947 0.474535 141.537 0.751197 141.193 1.09996L136.352 5.98865V11.9913L154.416 16.412V18.158H136.363V23.9895H152.833C153.797 23.9911 154.723 23.6157 155.419 22.9419L160.383 18.0882V11.9913Z" fill="#262626"/>
</svg>
