<svg width="21" height="21" viewBox="0 0 21 21" fill="none" xmlns="http://www.w3.org/2000/svg">
<g id="download">
<path id="Vector (Stroke)" fill-rule="evenodd" clip-rule="evenodd" d="M2.99984 12.1667C3.46007 12.1667 3.83317 12.5398 3.83317 13V16.3334C3.83317 16.5544 3.92097 16.7663 4.07725 16.9226C4.23353 17.0789 4.44549 17.1667 4.6665 17.1667H16.3332C16.5542 17.1667 16.7661 17.0789 16.9224 16.9226C17.0787 16.7663 17.1665 16.5544 17.1665 16.3334V13C17.1665 12.5398 17.5396 12.1667 17.9998 12.1667C18.4601 12.1667 18.8332 12.5398 18.8332 13V16.3334C18.8332 16.9964 18.5698 17.6323 18.1009 18.1011C17.6321 18.57 16.9962 18.8334 16.3332 18.8334H4.6665C4.00346 18.8334 3.36758 18.57 2.89874 18.1011C2.4299 17.6323 2.1665 16.9964 2.1665 16.3334V13C2.1665 12.5398 2.5396 12.1667 2.99984 12.1667Z" fill="white"/>
<path id="Vector (Stroke)_2" fill-rule="evenodd" clip-rule="evenodd" d="M5.74408 8.24408C6.06951 7.91864 6.59715 7.91864 6.92259 8.24408L10.5 11.8215L14.0774 8.24408C14.4028 7.91864 14.9305 7.91864 15.2559 8.24408C15.5814 8.56951 15.5814 9.09715 15.2559 9.42259L11.0893 13.5893C10.7638 13.9147 10.2362 13.9147 9.91074 13.5893L5.74408 9.42259C5.41864 9.09715 5.41864 8.56951 5.74408 8.24408Z" fill="white"/>
<path id="Vector (Stroke)_3" fill-rule="evenodd" clip-rule="evenodd" d="M10.4998 2.16669C10.9601 2.16669 11.3332 2.53978 11.3332 3.00002V13C11.3332 13.4603 10.9601 13.8334 10.4998 13.8334C10.0396 13.8334 9.6665 13.4603 9.6665 13V3.00002C9.6665 2.53978 10.0396 2.16669 10.4998 2.16669Z" fill="white"/>
</g>
</svg>
