<svg width="55" height="45" viewBox="0 0 55 45" fill="none" xmlns="http://www.w3.org/2000/svg">
<path d="M27.8063 16.55C27.365 16.55 26.9661 16.3718 26.6763 16.0821C26.3878 15.7935 26.2084 15.3934 26.2084 14.9521C26.2084 14.5108 26.3866 14.112 26.6763 13.8222C26.9649 13.5337 27.365 13.3542 27.8063 13.3542C28.2476 13.3542 28.6464 13.5324 28.9362 13.8222C29.2247 14.1107 29.4042 14.5108 29.4042 14.9521C29.4042 15.3934 29.226 15.7923 28.9362 16.0821C28.6477 16.3718 28.2476 16.55 27.8063 16.55ZM21.5638 11.8012C21.7493 11.6945 21.8742 11.5223 21.9251 11.3308C21.976 11.1392 21.9542 10.9283 21.8475 10.7428C21.7408 10.5573 21.5686 10.4336 21.3771 10.3815C21.1855 10.3306 20.9746 10.3524 20.7891 10.4591C20.6036 10.5658 20.4799 10.7379 20.4278 10.9295C20.3769 11.121 20.3987 11.332 20.5054 11.5175C20.6121 11.703 20.7842 11.8279 20.9758 11.8788C21.1673 11.9297 21.3783 11.9079 21.5638 11.8012ZM33.7626 11.5151C33.8693 11.7006 34.0415 11.8254 34.233 11.8764C34.4246 11.9273 34.6355 11.9054 34.821 11.7988C35.0065 11.6921 35.1314 11.5199 35.1823 11.3284C35.2332 11.1368 35.2114 10.9259 35.1047 10.7404C34.998 10.5549 34.8259 10.43 34.6343 10.3791C34.4428 10.3282 34.2318 10.35 34.0463 10.4567C33.8608 10.5634 33.736 10.7355 33.685 10.9271C33.6341 11.1186 33.6559 11.3296 33.7626 11.5151ZM27.4195 21.9342C27.234 22.0408 27.1092 22.213 27.0582 22.4046C27.0073 22.5961 27.0291 22.8071 27.1358 22.9925C27.2425 23.178 27.4147 23.3029 27.6062 23.3538C27.7978 23.4048 28.0087 23.3829 28.1942 23.2762C28.3797 23.1696 28.5046 22.9974 28.5555 22.8058C28.6064 22.6143 28.5846 22.4033 28.4779 22.2178C28.3712 22.0324 28.1991 21.9075 28.0075 21.8566C27.816 21.8056 27.605 21.8275 27.4195 21.9342ZM41.3909 7.11053V13.5931V20.0756C41.3909 20.9145 41.1653 21.7256 40.758 22.4312C40.3506 23.1368 39.7614 23.7382 39.0352 24.1576L33.422 27.3983L27.8087 30.6389L22.1954 27.3983L16.5798 24.1564C15.8535 23.7369 15.2643 23.1356 14.857 22.43C14.4496 21.7244 14.2241 20.9133 14.2241 20.0744V13.5918V7.11053L19.8374 3.86988L25.4506 0.629218C26.1769 0.209739 26.9916 0 27.8075 0C28.6222 0 29.4369 0.209739 30.1643 0.629218L35.7776 3.86988L41.3909 7.11053ZM33.074 2.94969C33.8196 3.70014 34.5895 4.62518 35.2417 5.71752C35.894 6.81108 36.4274 8.07315 36.699 9.4989L38.6291 8.38473L40.5592 7.27057L36.8166 5.11013L33.074 2.94969ZM20.0447 4.38998C21.919 3.89412 24.3365 3.61892 26.8376 4.30997C29.3375 5.00101 31.9186 6.65953 34.1191 10.0348C34.0754 10.0481 34.0318 10.0614 33.9881 10.0796C33.9457 10.0966 33.9033 10.1172 33.862 10.1402C33.7772 10.1899 33.702 10.2481 33.6353 10.3148C33.5699 10.3815 33.5129 10.4555 33.4644 10.5343C33.2171 10.3948 32.931 10.2906 32.6109 10.2215C32.292 10.1524 31.9392 10.1172 31.561 10.1172C31.4894 10.1172 31.4167 10.1196 31.3415 10.1233C31.2676 10.1269 31.1924 10.1318 31.1172 10.1366C31.2627 10.51 31.3925 10.9089 31.5016 11.332C31.6119 11.7539 31.7028 12.1988 31.7731 12.6632C32.1405 12.9566 32.4812 13.2584 32.7915 13.5652C33.1031 13.8719 33.3844 14.1847 33.6353 14.4975C33.8984 14.1047 34.1021 13.7155 34.2427 13.3409C34.3822 12.9663 34.4573 12.6062 34.4634 12.2679C34.5555 12.2655 34.6477 12.2522 34.7386 12.2279C34.8295 12.2037 34.918 12.1661 35.0041 12.1176C35.0368 12.0982 35.0696 12.0776 35.0999 12.0558C35.1302 12.034 35.1605 12.0109 35.1884 11.9855C35.3739 12.445 35.5181 12.9238 35.6163 13.4209C35.7145 13.9168 35.7655 14.4296 35.7655 14.9546C35.7655 14.9933 35.7655 15.0321 35.7642 15.0709C35.763 15.1097 35.763 15.1485 35.7618 15.1873C35.9607 14.546 36.1086 13.9095 36.2043 13.2815C36.3001 12.6535 36.3438 12.0327 36.3353 11.4205C36.3207 10.4882 36.1862 9.57285 35.9316 8.68055C35.677 7.78825 35.3036 6.91898 34.8113 6.0776C34.0342 4.74884 33.0728 3.67711 32.1926 2.86482C31.3112 2.05254 30.5111 1.4997 30.054 1.21115C30.0395 1.20146 29.8855 1.10932 29.8855 1.10932C29.2441 0.739544 28.5252 0.554052 27.8063 0.554052C27.0873 0.554052 26.3684 0.739544 25.7271 1.10932L22.8853 2.74965L20.0447 4.38998ZM21.3613 18.5929C21.3698 18.6086 21.3795 18.6244 21.388 18.6401C21.3965 18.6559 21.4062 18.6717 21.4147 18.6874C21.639 19.0572 21.9905 19.3336 22.4391 19.5167C22.8877 19.6998 23.4345 19.7907 24.0504 19.7907C24.1219 19.7907 24.1946 19.7883 24.2698 19.7846C24.3437 19.781 24.4189 19.7761 24.4941 19.7713C24.3486 19.3979 24.2189 18.999 24.1098 18.5759C23.9994 18.154 23.9085 17.709 23.8382 17.2447C23.4708 16.9513 23.1302 16.6494 22.8198 16.3427C22.5082 16.036 22.227 15.7232 21.976 15.4104C21.5783 16.0057 21.314 16.59 21.2037 17.132C21.0946 17.6727 21.1395 18.171 21.3613 18.5929ZM21.6341 14.9533C21.3928 14.6078 21.1916 14.2623 21.0316 13.9228C20.8727 13.5834 20.7564 13.2487 20.686 12.9238C20.5939 13.2463 20.5224 13.5773 20.4751 13.9168C20.4266 14.255 20.4023 14.6018 20.4023 14.9533C20.4023 15.3049 20.4278 15.6504 20.4763 15.9899C20.5248 16.3282 20.5951 16.6604 20.6873 16.9828C20.7576 16.6591 20.874 16.3245 21.0328 15.9851C21.1916 15.6444 21.3928 15.2989 21.6341 14.9533ZM23.6697 14.9533C23.6697 14.6963 23.6757 14.4417 23.6879 14.192C23.7 13.941 23.7182 13.6949 23.7412 13.4524C23.4611 13.6973 23.2005 13.9459 22.9604 14.1968C22.7204 14.4478 22.5022 14.7012 22.3058 14.9546C22.5022 15.2079 22.7204 15.4613 22.9604 15.7123C23.2005 15.9632 23.4611 16.2118 23.7412 16.4567C23.7182 16.2142 23.7 15.9669 23.6879 15.7171C23.6757 15.465 23.6697 15.2104 23.6697 14.9533ZM22.501 20.112C22.9726 20.5969 23.5109 21.0188 24.0989 21.3607C24.6881 21.7026 25.3282 21.9657 26.0047 22.1354C25.7586 21.9123 25.5282 21.6444 25.3124 21.3377C25.0978 21.0309 24.899 20.683 24.7208 20.3023C24.6056 20.312 24.4929 20.3205 24.3813 20.3253C24.2698 20.3302 24.1595 20.3338 24.0504 20.3338C23.7606 20.3338 23.4866 20.3144 23.2284 20.2768C22.9701 20.2393 22.7277 20.1847 22.501 20.112ZM25.0542 19.7131C25.3718 19.6694 25.7004 19.6076 26.0386 19.5252C26.3769 19.4427 26.7224 19.3409 27.0752 19.2209C26.8509 19.119 26.6266 19.0111 26.4036 18.8972C26.1805 18.7832 25.9586 18.6632 25.7392 18.5359C25.5161 18.4074 25.2991 18.274 25.0881 18.1394C24.8772 18.0037 24.6723 17.8654 24.4747 17.7236C24.5462 18.0873 24.6311 18.4365 24.7281 18.7699C24.8238 19.1008 24.933 19.4173 25.0542 19.7131ZM27.8063 18.9445C28.1033 18.8232 28.4028 18.6899 28.7022 18.5444C29.0017 18.3989 29.3023 18.2401 29.603 18.0667C29.9025 17.8933 30.1922 17.7127 30.4698 17.5272C30.7475 17.3405 31.013 17.1489 31.2676 16.9525C31.3112 16.6349 31.344 16.3088 31.367 15.9754C31.39 15.642 31.4009 15.3013 31.4009 14.9546C31.4009 14.6078 31.3888 14.2671 31.367 13.9337C31.344 13.6003 31.3112 13.2742 31.2676 12.9566C31.0142 12.7602 30.7475 12.5686 30.4698 12.3819C30.1922 12.1952 29.9037 12.0146 29.603 11.8424C29.3035 11.669 29.0017 11.5102 28.7022 11.3647C28.4028 11.2192 28.1033 11.0859 27.8063 10.9646C27.5092 11.0859 27.2098 11.2192 26.9103 11.3647C26.6109 11.5102 26.3102 11.669 26.0095 11.8424C25.7101 12.0158 25.4203 12.1964 25.1427 12.3819C24.8651 12.5686 24.5996 12.7602 24.345 12.9566C24.3013 13.2742 24.2686 13.6003 24.2456 13.9337C24.2225 14.2671 24.2116 14.6078 24.2116 14.9546C24.2116 15.3013 24.2237 15.642 24.2456 15.9754C24.2686 16.3088 24.3013 16.6349 24.345 16.9525C24.5983 17.1489 24.8651 17.3405 25.1427 17.5272C25.4203 17.7139 25.7089 17.8945 26.0095 18.0667C26.3102 18.2401 26.6109 18.3989 26.9103 18.5444C27.211 18.6899 27.5092 18.8232 27.8063 18.9445ZM30.8917 9.60437C31.0069 9.59467 31.1197 9.58619 31.2312 9.58134C31.3427 9.57649 31.4531 9.57285 31.5622 9.57285C31.8519 9.57285 32.1259 9.59225 32.3842 9.62983C32.6424 9.66742 32.8849 9.72197 33.1116 9.79472C32.64 9.30977 32.1017 8.88787 31.5137 8.54598C30.9245 8.20409 30.2843 7.94101 29.6078 7.77127C29.854 7.99435 30.0843 8.26228 30.3001 8.56901C30.5147 8.87574 30.7123 9.22248 30.8917 9.60437ZM30.5596 10.1936C30.2419 10.2372 29.9134 10.2991 29.5751 10.3815C29.2381 10.4639 28.8913 10.5658 28.5385 10.6858C28.7628 10.7876 28.9871 10.8955 29.2102 11.0095C29.4333 11.1235 29.6551 11.2435 29.8746 11.3708C30.0976 11.4993 30.3147 11.6327 30.5256 11.7672C30.7366 11.903 30.9415 12.0412 31.1391 12.1831C31.0675 11.8194 30.9827 11.4702 30.8857 11.1368C30.7899 10.8046 30.6796 10.4894 30.5596 10.1936ZM27.8063 7.5482C27.3153 7.5482 26.8473 7.75188 26.4205 8.11922C25.9938 8.48657 25.6095 9.0188 25.2845 9.67712C25.6871 9.73895 26.1017 9.82987 26.5236 9.94747C26.9455 10.0651 27.3747 10.2081 27.8063 10.3779C28.2379 10.2093 28.6671 10.0651 29.089 9.94747C29.5109 9.82987 29.9255 9.74016 30.328 9.67712C30.0031 9.0188 29.6188 8.48657 29.192 8.11922C28.7665 7.75188 28.2985 7.5482 27.8063 7.5482ZM26.0035 7.77249C25.327 7.94222 24.6856 8.2053 24.0976 8.54719C23.5084 8.88908 22.9701 9.30977 22.4985 9.79593C22.7252 9.72319 22.9677 9.66742 23.2272 9.62983C23.4866 9.59225 23.7618 9.57285 24.0516 9.57285C24.1607 9.57285 24.271 9.57528 24.3825 9.58134C24.4941 9.58619 24.608 9.59467 24.722 9.60437C24.9002 9.22369 25.0978 8.87695 25.3124 8.57022C25.527 8.26228 25.7586 7.99556 26.0035 7.77249ZM24.4735 12.1831C24.6723 12.0412 24.8772 11.903 25.0869 11.7672C25.2979 11.6315 25.5149 11.4993 25.738 11.3708C25.9586 11.2435 26.1805 11.1235 26.4023 11.0095C26.6254 10.8955 26.8497 10.7889 27.074 10.6858C26.7212 10.5646 26.3757 10.4639 26.0374 10.3815C25.7004 10.2991 25.3706 10.236 25.053 10.1936C24.933 10.4894 24.8226 10.8046 24.7256 11.1368C24.6299 11.4702 24.545 11.8194 24.4735 12.1831ZM28.5398 19.2197C28.8926 19.3409 29.2381 19.4415 29.5763 19.524C29.9146 19.6064 30.2431 19.6694 30.5608 19.7119C30.6808 19.4161 30.7911 19.1008 30.8881 18.7687C30.9851 18.4365 31.07 18.0861 31.1415 17.7224C30.9427 17.8642 30.7378 18.0024 30.528 18.1382C30.3171 18.274 30.1001 18.4062 29.877 18.5347C29.6576 18.662 29.4345 18.782 29.2126 18.896C28.9871 19.0111 28.764 19.1178 28.5398 19.2197ZM29.6103 22.1342C30.2868 21.9645 30.9281 21.7014 31.5161 21.3595C32.1053 21.0176 32.6436 20.5969 33.1152 20.1108C32.8885 20.1835 32.646 20.2393 32.3866 20.2768C32.1271 20.3144 31.8519 20.3338 31.5622 20.3338C31.4531 20.3338 31.3427 20.3314 31.2312 20.3253C31.1197 20.3205 31.0057 20.312 30.8917 20.3023C30.7135 20.683 30.5159 21.0297 30.3013 21.3365C30.0855 21.6432 29.8552 21.9111 29.6103 22.1342ZM34.2027 18.6802C34.2112 18.6656 34.2197 18.6511 34.2282 18.6353C34.2367 18.6207 34.2452 18.605 34.2536 18.5904C34.4755 18.1685 34.5204 17.6703 34.41 17.1283C34.2997 16.5876 34.0354 16.0033 33.639 15.408C33.388 15.722 33.1067 16.0336 32.7952 16.3403C32.4836 16.647 32.1429 16.9489 31.7768 17.2423C31.7065 17.7054 31.6155 18.1504 31.5052 18.5735C31.3949 18.9954 31.2664 19.3955 31.1209 19.7689C31.1961 19.7737 31.2712 19.7786 31.3452 19.7822C31.4191 19.7858 31.4931 19.7883 31.5646 19.7883C32.1817 19.7883 32.7309 19.6973 33.1807 19.5131C33.6281 19.33 33.9784 19.0524 34.2027 18.6802ZM31.9441 14.9533C31.9441 15.2104 31.938 15.465 31.9259 15.7159C31.9138 15.9669 31.8956 16.213 31.8726 16.4555C32.1526 16.2106 32.4133 15.962 32.6533 15.7111C32.8934 15.4601 33.1116 15.2067 33.308 14.9533C33.1116 14.7 32.8934 14.4466 32.6533 14.1956C32.4133 13.9446 32.1526 13.6961 31.8726 13.4512C31.8956 13.6937 31.9138 13.941 31.9259 14.1908C31.938 14.4417 31.9441 14.6951 31.9441 14.9533ZM34.9277 16.9816C35.0199 16.6591 35.0914 16.3282 35.1387 15.9887C35.1872 15.6505 35.2114 15.3037 35.2114 14.9521C35.2114 14.6005 35.186 14.255 35.1375 13.9156C35.089 13.5773 35.0186 13.2451 34.9265 12.9226C34.8562 13.2463 34.7398 13.5809 34.581 13.9204C34.4222 14.2599 34.2197 14.6054 33.9784 14.9509C34.2197 15.2964 34.4209 15.642 34.581 15.9814C34.7398 16.3233 34.8562 16.6579 34.9277 16.9816ZM15.0546 7.27057L17.0744 8.43686L19.0942 9.60316C20.0689 8.84907 21.2389 8.20773 22.6428 7.74824C24.0467 7.28996 25.6834 7.01476 27.5929 6.99536C27.6281 6.99415 27.6632 6.99415 27.6984 6.99293C27.7335 6.99293 27.7687 6.99172 27.8051 6.99172C28.5725 6.99172 29.3145 7.10083 30.0176 7.30451C30.7196 7.50819 31.3828 7.80643 31.9914 8.18348C31.5343 7.68883 31.0566 7.24147 30.5596 6.84381C30.0625 6.44616 29.546 6.097 29.0102 5.79754C28.2051 5.34896 27.3553 5.01071 26.4666 4.78521C25.5779 4.55971 24.6505 4.44575 23.6891 4.44575C23.6782 4.44575 23.666 4.44575 23.6551 4.44575C23.6442 4.44575 23.6321 4.44575 23.6212 4.44575C22.0815 4.45424 20.6727 4.75005 19.5294 5.1077C18.385 5.46414 17.5072 5.88119 17.0283 6.13215C17.0138 6.14064 16.9713 6.16125 16.9641 6.16489L16.0087 6.71652L15.0546 7.27057ZM14.7782 16.3936C15.0558 15.3728 15.4704 14.2429 16.0912 13.1324C16.7119 12.0218 17.5387 10.9283 18.6371 9.98021L16.707 8.86604L14.777 7.75188V12.0728V16.3936H14.7782ZM22.5397 26.957C21.1746 25.5822 19.7258 23.6266 19.0748 21.1158C18.4238 18.6062 18.568 15.5413 20.389 11.9503C20.4581 12.017 20.5333 12.074 20.6157 12.1225C20.6982 12.1697 20.7867 12.2085 20.8812 12.2328C20.9261 12.2449 20.9709 12.2534 21.0158 12.2595C21.0607 12.2655 21.1055 12.2692 21.1504 12.2704C21.1552 12.6074 21.2316 12.9675 21.371 13.3421C21.5104 13.7167 21.7153 14.1047 21.9772 14.4975C22.2282 14.1835 22.5094 13.8719 22.821 13.5652C23.1326 13.2584 23.4721 12.9566 23.8394 12.6632C23.9097 12.2001 24.0006 11.7551 24.111 11.332C24.2213 10.9101 24.3498 10.51 24.4953 10.1366C24.4201 10.1318 24.345 10.1269 24.271 10.1233C24.1971 10.1196 24.1231 10.1172 24.0516 10.1172C23.6721 10.1172 23.3205 10.1524 23.0004 10.2215C22.6804 10.2906 22.3943 10.3948 22.1469 10.5343C22.0766 10.4203 21.9881 10.3209 21.8863 10.2397C21.7832 10.1584 21.6668 10.0954 21.5408 10.053C21.879 9.62135 22.2597 9.22612 22.678 8.87332C23.0962 8.52052 23.5509 8.20894 24.0358 7.94707C23.3799 8.09619 22.7543 8.28532 22.1615 8.51688C21.5686 8.74844 21.0085 9.02122 20.4824 9.33523C19.6822 9.8129 18.9572 10.3888 18.311 11.0544C17.6648 11.7212 17.0986 12.4801 16.6173 13.3251C15.8548 14.6624 15.4074 16.0311 15.1443 17.1999C14.8812 18.3686 14.8036 19.3385 14.7806 19.878C14.7794 19.8949 14.777 20.0744 14.777 20.0744C14.777 20.8151 14.9758 21.5304 15.3359 22.1524C15.6947 22.7755 16.2148 23.3053 16.8562 23.6751L19.6967 25.3154L22.5397 26.957ZM27.5299 25.1724C26.3684 24.6959 25.2057 23.9879 24.0879 22.9732C22.9701 21.9584 21.8972 20.6357 20.914 18.9335H20.9152H20.9164C20.5769 18.348 20.3102 17.7151 20.1283 17.0483C19.9465 16.3815 19.8495 15.6795 19.8495 14.9546C19.8495 14.9158 19.8495 14.877 19.8507 14.8382C19.8519 14.7994 19.8519 14.7606 19.8531 14.7218C19.6543 15.3631 19.5064 15.9996 19.4106 16.6276C19.3149 17.2556 19.2712 17.8764 19.2809 18.4886C19.2955 19.4209 19.43 20.3363 19.6846 21.2286C19.9392 22.1209 20.3126 22.9901 20.8049 23.8315C21.582 25.1603 22.5434 26.232 23.4236 27.0443C24.305 27.8566 25.1051 28.4094 25.561 28.6979C25.5755 28.7076 25.5876 28.7149 25.5973 28.721C25.607 28.727 25.6155 28.7319 25.6216 28.7367L26.5769 29.2884L27.5323 29.84V27.5074V25.1724H27.5299ZM35.5691 25.5167C35.032 25.6585 34.4513 25.7822 33.8366 25.8707C33.2219 25.9592 32.5733 26.0126 31.9016 26.0126C31.293 26.0126 30.6638 25.9689 30.0261 25.8683C29.3872 25.7677 28.7374 25.61 28.0851 25.3833V27.6105V29.8376L31.8277 27.6771L35.5691 25.5167ZM40.8356 13.5118C40.3276 15.3825 39.3577 17.6145 37.5101 19.4342C35.6624 21.254 32.9358 22.6604 28.9132 22.8798C28.9471 22.7416 28.9556 22.5997 28.9374 22.4615C28.9192 22.3233 28.8768 22.1887 28.8089 22.0639C29.0987 21.8905 29.3739 21.6444 29.6285 21.3352C29.8831 21.0261 30.1183 20.6539 30.3268 20.2296C29.9243 20.1677 29.5096 20.0768 29.0877 19.9592C28.6658 19.8416 28.2367 19.6985 27.8051 19.5288C27.3735 19.6973 26.9443 19.8416 26.5224 19.9592C26.1005 20.0768 25.6858 20.1665 25.2833 20.2296C25.4931 20.6551 25.7283 21.0273 25.9829 21.3365C26.2375 21.6456 26.5127 21.8917 26.8036 22.0651C26.7406 22.1815 26.6994 22.3088 26.68 22.4385C26.6606 22.5682 26.6642 22.7028 26.6909 22.8349C26.1332 22.7561 25.5949 22.6203 25.0809 22.4324C24.5668 22.2445 24.077 22.0057 23.6188 21.7208C24.0758 22.2154 24.5535 22.6628 25.0506 23.0604C25.5476 23.4581 26.0641 23.8073 26.6 24.1067C27.4147 24.5601 28.2755 24.9008 29.175 25.1275C30.0758 25.353 31.0154 25.4646 31.9877 25.4585C33.5274 25.45 34.9362 25.1542 36.0795 24.7965C37.2239 24.4401 38.1017 24.0231 38.5806 23.7721C38.5951 23.7636 38.7527 23.6763 38.7527 23.6763C39.3941 23.3066 39.9142 22.7755 40.273 22.1536C40.6331 21.5304 40.8319 20.8163 40.8319 20.0756V16.7949V13.5118H40.8356ZM40.8356 7.75066L38.8158 8.91696L36.796 10.0833C36.9645 11.3271 36.9318 12.6886 36.6117 14.1641C36.2916 15.6395 35.683 17.2302 34.701 18.9323H34.6998H34.6986C34.3288 19.57 33.8742 20.152 33.348 20.6612C32.823 21.1716 32.2278 21.6092 31.5779 21.9608C32.2338 21.8117 32.8594 21.6226 33.4523 21.391C34.0451 21.1594 34.6052 20.8867 35.1314 20.5727C35.9316 20.095 36.6566 19.5203 37.3027 18.8535C37.9489 18.1867 38.5151 17.4278 38.9964 16.5828C39.759 15.2455 40.2064 13.8768 40.4694 12.708C40.7325 11.5393 40.8101 10.5694 40.8332 10.0299C40.8344 10.0129 40.8356 9.96566 40.8368 9.95838V8.85513V7.75066H40.8356Z" fill="white"/>
<path d="M2.09473 34.8494H2.71061L2.76517 35.1719H2.78335C2.99794 34.9658 3.25496 34.7876 3.60291 34.7876C4.15696 34.7876 4.39337 35.1792 4.39337 35.8157V37.399H3.63807V35.9127C3.63807 35.5453 3.53987 35.4314 3.32164 35.4314C3.1313 35.4314 3.01613 35.5199 2.85003 35.6787V37.399H2.09473V34.8494Z" fill="white"/>
<path d="M5.03516 34.8494H5.65104L5.7056 35.1719H5.72378C5.93837 34.9658 6.19539 34.7876 6.54334 34.7876C7.09739 34.7876 7.3338 35.1792 7.3338 35.8157V37.399H6.5785V35.9127C6.5785 35.5453 6.4803 35.4314 6.26207 35.4314C6.07173 35.4314 5.95655 35.5199 5.79046 35.6787V37.399H5.03516V34.8494Z" fill="white"/>
<path d="M7.82642 36.1248C7.82642 35.2774 8.4229 34.7876 9.06788 34.7876C9.71286 34.7876 10.3093 35.2774 10.3093 36.1248C10.3093 36.9711 9.71286 37.4609 9.06788 37.4609C8.4229 37.4609 7.82642 36.9711 7.82642 36.1248ZM9.53585 36.1248C9.53585 35.6835 9.38067 35.3974 9.06788 35.3974C8.75509 35.3974 8.59991 35.6835 8.59991 36.1248C8.59991 36.5661 8.75509 36.851 9.06788 36.851C9.38067 36.851 9.53585 36.5661 9.53585 36.1248Z" fill="white"/>
<path d="M10.5144 34.8496H11.2733L11.6055 36.0535C11.671 36.3069 11.7377 36.57 11.8032 36.8367H11.8238C11.8892 36.57 11.9559 36.3069 12.0214 36.0535L12.3536 34.8496H13.0773L12.2457 37.3992H11.3752L10.5144 34.8496Z" fill="white"/>
<path d="M13.2537 36.6922C13.2537 36.1551 13.6816 35.8642 14.6891 35.7575C14.6746 35.5344 14.563 35.3889 14.2854 35.3889C14.0708 35.3889 13.8574 35.4786 13.6101 35.6193L13.341 35.1234C13.6647 34.9258 14.0296 34.7876 14.4297 34.7876C15.0819 34.7876 15.442 35.1598 15.442 35.9418V37.399H14.8261L14.7715 37.1384H14.7534C14.5388 37.3275 14.2987 37.4609 14.0114 37.4609C13.5495 37.4609 13.2537 37.1214 13.2537 36.6922ZM14.6903 36.6583V36.2133C14.1532 36.2861 13.9774 36.4388 13.9774 36.6316C13.9774 36.7965 14.0902 36.8765 14.2696 36.8765C14.4418 36.8765 14.5557 36.7916 14.6903 36.6583Z" fill="white"/>
<path d="M15.855 37.1047L16.1944 36.6343C16.426 36.8089 16.6394 36.9022 16.8528 36.9022C17.077 36.9022 17.1752 36.8161 17.1752 36.6828C17.1752 36.5143 16.9231 36.4391 16.66 36.336C16.3472 36.2148 15.9847 36.0075 15.9847 35.5868C15.9847 35.1116 16.3702 34.7891 16.9594 34.7891C17.3498 34.7891 17.6408 34.9467 17.8578 35.1116L17.5196 35.565C17.3377 35.4328 17.1595 35.3468 16.9825 35.3468C16.7873 35.3468 16.6915 35.4231 16.6915 35.5504C16.6915 35.7129 16.9303 35.7747 17.1946 35.8717C17.5171 35.9917 17.8821 36.1724 17.8821 36.6391C17.8821 37.101 17.5183 37.4611 16.8346 37.4611C16.4975 37.4611 16.1132 37.3156 15.855 37.1047Z" fill="white"/>
<path d="M19.6989 38.3449L19.8334 37.769C19.8807 37.7811 19.9498 37.8017 20.0056 37.8017C20.2541 37.8017 20.3863 37.6647 20.4517 37.4671L20.4893 37.3337L19.5061 34.8496H20.265L20.63 35.9468C20.7039 36.1784 20.7645 36.4196 20.8312 36.6694H20.8518C20.9088 36.4281 20.9658 36.1868 21.0288 35.9468L21.338 34.8496H22.0618L21.1767 37.4271C20.9343 38.066 20.6627 38.397 20.0638 38.397C19.9038 38.3958 19.8019 38.3752 19.6989 38.3449Z" fill="white"/>
<path d="M22.2322 36.6922C22.2322 36.1551 22.6601 35.8642 23.6676 35.7575C23.6531 35.5344 23.5415 35.3889 23.2639 35.3889C23.0493 35.3889 22.8359 35.4786 22.5886 35.6193L22.3195 35.1234C22.6432 34.9258 23.0081 34.7876 23.4082 34.7876C24.0604 34.7876 24.4205 35.1598 24.4205 35.9418V37.399H23.8046L23.7501 37.1384H23.7319C23.5173 37.3275 23.2772 37.4609 22.9899 37.4609C22.528 37.4609 22.2322 37.1214 22.2322 36.6922ZM23.6688 36.6583V36.2133C23.1318 36.2861 22.956 36.4388 22.956 36.6316C22.956 36.7965 23.0687 36.8765 23.2481 36.8765C23.4203 36.8765 23.5343 36.7916 23.6688 36.6583Z" fill="white"/>
<path d="M25.8162 34.8496H26.5751L26.9073 36.0535C26.9728 36.3069 27.0394 36.57 27.1049 36.8367H27.1255C27.191 36.57 27.2577 36.3069 27.3231 36.0535L27.6553 34.8496H28.3791L27.5474 37.3992H26.6769L25.8162 34.8496Z" fill="white"/>
<path d="M28.6287 36.2279C28.6287 36.0921 28.6456 35.9539 28.6602 35.8921H30.1853C30.1259 35.5308 29.9174 35.3635 29.5998 35.3635C29.4034 35.3635 29.2203 35.4241 29.0409 35.5344L28.7911 35.0446C29.0663 34.8603 29.4094 34.7876 29.7283 34.7876C30.4011 34.7876 30.9176 35.2919 30.9176 36.1236C30.9176 36.9505 30.3611 37.4609 29.7234 37.4609C28.9996 37.4609 28.6287 36.9323 28.6287 36.2279ZM30.1938 36.3916H29.2736C29.2736 36.6825 29.4034 36.885 29.7065 36.885C29.955 36.885 30.1441 36.7359 30.1938 36.3916Z" fill="white"/>
<path d="M35.148 37.3991L34.3902 36.0594C34.7479 35.8982 34.9867 35.5854 34.9867 35.092C34.9867 34.2954 34.4048 34.0493 33.6943 34.0493H32.488V37.3991H33.2458V36.194H33.6628L34.3017 37.3991H35.148ZM33.2446 34.6506H33.6325C34.0314 34.6506 34.2448 34.761 34.2448 35.092C34.2448 35.4217 34.0302 35.5914 33.6325 35.5914H33.2446V34.6506Z" fill="white"/>
<path d="M35.4277 36.2279C35.4277 36.0921 35.4447 35.9539 35.4593 35.8921H36.9844C36.925 35.5308 36.7165 35.3635 36.3988 35.3635C36.2024 35.3635 36.0194 35.4241 35.8399 35.5344L35.5902 35.0446C35.8654 34.8603 36.2085 34.7876 36.5274 34.7876C37.2002 34.7876 37.7167 35.2919 37.7167 36.1236C37.7167 36.9505 37.1602 37.4609 36.5225 37.4609C35.7975 37.4609 35.4277 36.9323 35.4277 36.2279ZM36.9929 36.3916H36.0727C36.0727 36.6825 36.2024 36.885 36.5055 36.885C36.7528 36.885 36.942 36.7359 36.9929 36.3916Z" fill="white"/>
<path d="M39.7611 37.5676L39.7877 37.1784C39.6204 37.3433 39.3768 37.4609 39.1476 37.4609C38.5135 37.4609 38.105 36.9577 38.105 36.1248C38.105 35.2907 38.6251 34.7876 39.1622 34.7876C39.4386 34.7876 39.641 34.8834 39.8435 35.1004H39.8617L39.9247 34.8482H40.5152V38.3447H39.7599V37.5676H39.7611ZM39.7611 36.6134V35.5659C39.6277 35.4459 39.4774 35.4047 39.3392 35.4047C39.0943 35.4047 38.8797 35.6302 38.8797 36.1151C38.8797 36.6158 39.0531 36.8413 39.3452 36.8413C39.5065 36.8426 39.6362 36.7807 39.7611 36.6134Z" fill="white"/>
<path d="M41.0361 36.2279C41.0361 36.0921 41.0531 35.9539 41.0677 35.8921H42.5928C42.5334 35.5308 42.3249 35.3635 42.0072 35.3635C41.8108 35.3635 41.6278 35.4241 41.4483 35.5344L41.1986 35.0446C41.4738 34.8603 41.8169 34.7876 42.1358 34.7876C42.8086 34.7876 43.3251 35.2919 43.3251 36.1236C43.3251 36.9505 42.7686 37.4609 42.1309 37.4609C41.4059 37.4609 41.0361 36.9323 41.0361 36.2279ZM42.6013 36.3916H41.6811C41.6811 36.6825 41.8108 36.885 42.1139 36.885C42.3613 36.885 42.5504 36.7359 42.6013 36.3916Z" fill="white"/>
<path d="M43.8442 34.8494H44.4601L44.5147 35.1768H44.5329C44.7426 34.9658 44.9705 34.7876 45.3051 34.7876C45.664 34.7876 45.8798 34.9428 46.0095 35.2168C46.2338 34.9828 46.4726 34.7876 46.8097 34.7876C47.3601 34.7876 47.6074 35.1792 47.6074 35.8157V37.399H46.8521V35.9127C46.8521 35.5453 46.7515 35.4314 46.5369 35.4314C46.4084 35.4314 46.2641 35.5114 46.1029 35.6787V37.399H45.3476V35.9127C45.3476 35.5453 45.2469 35.4314 45.0323 35.4314C44.9063 35.4314 44.7596 35.5114 44.5983 35.6787V37.399H43.843V34.8494H43.8442Z" fill="white"/>
<path d="M48.0234 37.1047L48.3629 36.6343C48.5945 36.8089 48.8078 36.9022 49.0212 36.9022C49.2455 36.9022 49.3437 36.8161 49.3437 36.6828C49.3437 36.5143 49.0915 36.4391 48.8285 36.336C48.5157 36.2148 48.1532 36.0075 48.1532 35.5868C48.1532 35.1116 48.5387 34.7891 49.1279 34.7891C49.5183 34.7891 49.8093 34.9467 50.0263 35.1116L49.688 35.565C49.5062 35.4328 49.328 35.3468 49.1509 35.3468C48.9558 35.3468 48.86 35.4231 48.86 35.5504C48.86 35.7129 49.0988 35.7747 49.3631 35.8717C49.6856 35.9917 50.0505 36.1724 50.0505 36.6391C50.0505 37.101 49.6868 37.4611 49.003 37.4611C48.666 37.4611 48.2817 37.3156 48.0234 37.1047Z" fill="white"/>
<path d="M50.4077 36.6922C50.4077 36.1551 50.8357 35.8642 51.8432 35.7575C51.8286 35.5344 51.7171 35.3889 51.4394 35.3889C51.2249 35.3889 51.0115 35.4786 50.7642 35.6193L50.495 35.1234C50.8187 34.9258 51.1836 34.7876 51.5837 34.7876C52.236 34.7876 52.596 35.1598 52.596 35.9418V37.399H51.9802L51.9256 37.1384H51.9074C51.6928 37.3275 51.4516 37.4609 51.1654 37.4609C50.7035 37.4609 50.4077 37.1214 50.4077 36.6922ZM51.8444 36.6583V36.2133C51.3073 36.2861 51.1315 36.4388 51.1315 36.6316C51.1315 36.7965 51.2442 36.8765 51.4237 36.8765C51.5946 36.8765 51.7098 36.7916 51.8444 36.6583Z" fill="white"/>
<path d="M53.2344 36.6062V33.7983H53.9897V36.6377C53.9897 36.8002 54.0648 36.8511 54.1267 36.8511C54.1558 36.8511 54.1764 36.8511 54.2188 36.8414L54.3085 37.3991C54.2249 37.4342 54.1012 37.4621 53.9291 37.4621C53.4114 37.4609 53.2344 37.1227 53.2344 36.6062Z" fill="white"/>
<path d="M10.7778 41.0169H11.3937L11.4483 41.3394H11.4665C11.681 41.1333 11.9381 40.9551 12.286 40.9551C12.8401 40.9551 13.0765 41.3467 13.0765 41.9832V43.5665H12.3212V42.0802C12.3212 41.7128 12.223 41.5988 12.0047 41.5988C11.8144 41.5988 11.6992 41.6873 11.5331 41.8462V43.5665H10.7778V41.0169Z" fill="white"/>
<path d="M13.7166 39.9658H14.4549V42.0281H14.4731L15.2817 41.0157H16.1025L15.209 42.0669L16.1704 43.5653H15.352L14.7786 42.5712L14.4549 42.9385V43.5666H13.7166V39.9658Z" fill="white"/>
<path d="M19.7529 42.8064C19.7529 42.3396 19.3892 42.159 19.0655 42.0389C18.8012 41.9432 18.5624 41.8801 18.5624 41.7177C18.5624 41.5904 18.6581 41.514 18.8533 41.514C19.0303 41.514 19.2086 41.6001 19.3904 41.731L19.7287 41.2776C19.5116 41.1127 19.2207 40.9551 18.8303 40.9551C18.2423 40.9551 17.8556 41.2788 17.8556 41.7528C17.8556 42.1747 18.218 42.382 18.5308 42.5021C18.7927 42.6051 19.0461 42.6815 19.0461 42.8488C19.0461 42.9822 18.9491 43.0682 18.7236 43.0682C18.5102 43.0682 18.2969 42.9749 18.0653 42.8003L17.7258 43.2707C17.9574 43.4598 18.2896 43.5956 18.5987 43.6223L18.3878 44.0478C18.6994 44.089 18.7806 44.1606 18.7806 44.2648C18.7806 44.4103 18.6557 44.4697 18.2544 44.4916L18.3102 44.7946C18.9503 44.7728 19.3249 44.6128 19.3249 44.2636C19.3249 44.049 19.1892 43.9399 18.9309 43.8805L19.057 43.592C19.5141 43.4877 19.7529 43.1798 19.7529 42.8064Z" fill="white"/>
<path d="M20.1116 42.8597C20.1116 42.3226 20.5395 42.0317 21.547 41.925C21.5325 41.7019 21.4209 41.5564 21.1433 41.5564C20.9287 41.5564 20.7153 41.6461 20.468 41.7868L20.1989 41.2909C20.5226 41.0933 20.8875 40.9551 21.2876 40.9551C21.9398 40.9551 22.2999 41.3273 22.2999 42.1093V43.5665H21.684L21.6295 43.3059H21.6113C21.3967 43.495 21.1566 43.6284 20.8693 43.6284C20.4062 43.6284 20.1116 43.2889 20.1116 42.8597ZM21.547 42.8258V42.3808C21.0099 42.4536 20.8341 42.6063 20.8341 42.7991C20.8341 42.964 20.9469 43.044 21.1263 43.044C21.2985 43.044 21.4137 42.9591 21.547 42.8258Z" fill="white"/>
<path d="M24.1145 40.4969C24.1981 40.4969 24.2927 40.5175 24.3788 40.5514L24.5146 39.9938C24.4018 39.9513 24.2188 39.9028 24.0054 39.9028C23.3168 39.9028 23.067 40.3453 23.067 40.8836V41.0194L22.7275 41.0449V41.6086H23.067V43.5666H23.8223V41.6098H24.2806V41.017H23.8223V40.863C23.8235 40.5987 23.9302 40.4969 24.1145 40.4969Z" fill="white"/>
<path d="M28.7404 43.5666H29.5418L28.4895 40.2168H27.5838L26.5315 43.5666H27.3062L27.5135 42.7688H28.5343L28.7404 43.5666ZM27.6651 42.1796L27.7451 41.8693C27.8384 41.5346 27.9281 41.143 28.0082 40.789H28.0288C28.1185 41.1382 28.2082 41.5346 28.3003 41.8693L28.3804 42.1796H27.6651Z" fill="white"/>
<path d="M32.4641 42.2923C32.4641 41.4655 33.0545 40.9551 33.6668 40.9551C34.393 40.9551 34.7531 41.4825 34.7531 42.1784C34.7531 42.3141 34.7361 42.4511 34.7215 42.5118H33.1964C33.2643 42.8815 33.5177 43.0513 33.8571 43.0513C34.0499 43.0513 34.2233 42.9931 34.4087 42.884L34.6585 43.3398C34.3978 43.5204 34.0559 43.6271 33.7541 43.6271C33.0279 43.6283 32.4641 43.1361 32.4641 42.2923ZM34.1081 42.0135C34.1081 41.7334 33.9856 41.531 33.6838 41.531C33.4449 41.531 33.2388 41.691 33.1879 42.0135H34.1081Z" fill="white"/>
<path d="M35.2734 41.0169H35.8893L35.9439 41.3394H35.9621C36.1767 41.1333 36.4337 40.9551 36.7816 40.9551C37.3357 40.9551 37.5721 41.3467 37.5721 41.9832V43.5665H36.8168V42.0802C36.8168 41.7128 36.7186 41.5988 36.5004 41.5988C36.31 41.5988 36.1948 41.6873 36.0287 41.8462V43.5665H35.2734V41.0169Z" fill="white"/>
<path d="M38.3152 42.639V41.6085H37.9673V41.0447L38.3577 41.0156L38.4462 40.3379H39.0705V41.0156H39.6816V41.6085H39.0705V42.6293C39.0705 42.9178 39.2015 43.0342 39.4003 43.0342C39.484 43.0342 39.5761 43.0099 39.6428 42.9857L39.7616 43.5349C39.6258 43.5773 39.4427 43.627 39.1954 43.627C38.5662 43.6283 38.3152 43.2306 38.3152 42.639Z" fill="white"/>
<path d="M40.1821 42.7737V39.9658H40.9374V42.8052C40.9374 42.9676 41.0126 43.0186 41.0744 43.0186C41.1035 43.0186 41.1241 43.0186 41.1666 43.0089L41.2563 43.5666C41.1726 43.6017 41.049 43.6296 40.8768 43.6296C40.3591 43.6284 40.1821 43.2901 40.1821 42.7737Z" fill="white"/>
<path d="M42.9943 44.5123L43.1288 43.9365C43.1761 43.9486 43.2452 43.9692 43.301 43.9692C43.5495 43.9692 43.6817 43.8322 43.7472 43.6346L43.7847 43.5012L42.8015 41.0171H43.5604L43.9254 42.1143C43.9993 42.3458 44.06 42.5871 44.1266 42.8369H44.1472C44.2042 42.5956 44.2612 42.3543 44.3242 42.1143L44.6334 41.0171H45.3572L44.4722 43.5946C44.2297 44.2335 43.9581 44.5645 43.3592 44.5645C43.1992 44.5633 43.0973 44.5427 42.9943 44.5123Z" fill="white"/>
<path d="M32.1843 43.1299C32.1843 43.93 31.6338 44.3156 30.8022 44.3156C30.4045 44.3156 30.1087 44.221 29.8892 44.1143L30.0905 43.6087C30.2736 43.7069 30.5015 43.7918 30.784 43.7918C31.1683 43.7918 31.4411 43.6221 31.4411 43.1565V43.0183H31.4326C31.2762 43.2329 31.0337 43.3711 30.7173 43.3711C30.1184 43.3711 29.7244 42.8837 29.7244 42.2085C29.7244 41.538 30.1269 40.9961 30.744 40.9961C31.0665 40.9961 31.3259 41.144 31.5041 41.395H31.5126L31.5308 41.0458H32.1843V43.1299ZM31.4677 42.1854C31.4677 41.8011 31.2895 41.532 30.9707 41.532C30.6446 41.532 30.4736 41.8229 30.4736 42.1939C30.4736 42.5564 30.6349 42.8474 30.9658 42.8474C31.2895 42.8474 31.4677 42.571 31.4677 42.1854Z" fill="white"/>
<path d="M0.611075 34.0494H1.3688V37.3992H0.611075V34.0494ZM0.609863 33.1729H1.37002V33.7996H0.609863V33.1729Z" fill="white"/>
<path d="M9.29442 40.2166H10.0521V43.5664H9.29442V40.2166ZM9.29199 39.3413H10.0521V39.9681H9.29199V39.3413Z" fill="white"/>
<path d="M18.3562 34.8495H19.1115V37.3991H18.3562V34.8495ZM18.355 33.7681H19.1151V34.3949H18.355V33.7681Z" fill="white"/>
<path d="M16.5349 41.017H17.2902V43.5666H16.5349V41.017ZM16.5337 39.9355H17.2938V40.5623H16.5337V39.9355Z" fill="white"/>
<path d="M41.6526 41.017H42.4079V43.5666H41.6526V41.017ZM41.6514 39.9355H42.4115V40.5623H41.6514V39.9355Z" fill="white"/>
<path d="M45.7497 41.017H46.5051V43.5666H45.7497V41.017ZM45.7485 39.9355H46.5087V40.5623H45.7485V39.9355Z" fill="white"/>
</svg>
