<svg width="87" height="72" viewBox="0 0 87 72" fill="none" xmlns="http://www.w3.org/2000/svg">
<g id="Group">
<path id="XMLID_57_" d="M44.1036 26.6015C43.3943 26.6015 42.7532 26.3151 42.2874 25.8493C41.8236 25.3855 41.5352 24.7425 41.5352 24.0331C41.5352 23.3238 41.8217 22.6827 42.2874 22.217C42.7512 21.7532 43.3943 21.4648 44.1036 21.4648C44.8129 21.4648 45.454 21.7512 45.9198 22.217C46.3836 22.6808 46.672 23.3238 46.672 24.0331C46.672 24.7425 46.3855 25.3836 45.9198 25.8493C45.456 26.3151 44.8129 26.6015 44.1036 26.6015ZM34.0698 18.9685C34.368 18.797 34.5687 18.5203 34.6505 18.2124C34.7324 17.9045 34.6973 17.5655 34.5258 17.2673C34.3543 16.9692 34.0776 16.7704 33.7697 16.6866C33.4618 16.6048 33.1227 16.6398 32.8246 16.8113C32.5264 16.9828 32.3277 17.2595 32.2439 17.5674C32.162 17.8753 32.1971 18.2144 32.3686 18.5125C32.5401 18.8107 32.8168 19.0114 33.1247 19.0932C33.4326 19.1751 33.7717 19.14 34.0698 18.9685ZM53.6775 18.5086C53.849 18.8068 54.1257 19.0075 54.4336 19.0893C54.7415 19.1712 55.0805 19.1361 55.3787 18.9646C55.6768 18.7931 55.8776 18.5164 55.9594 18.2085C56.0412 17.9006 56.0062 17.5616 55.8347 17.2634C55.6632 16.9653 55.3865 16.7645 55.0786 16.6827C54.7707 16.6009 54.4316 16.6359 54.1335 16.8074C53.8353 16.9789 53.6346 17.2556 53.5528 17.5635C53.4709 17.8714 53.506 18.2105 53.6775 18.5086ZM43.482 35.2556C43.1838 35.4271 42.9831 35.7038 42.9013 36.0117C42.8194 36.3196 42.8545 36.6587 43.026 36.9568C43.1975 37.255 43.4742 37.4557 43.7821 37.5375C44.09 37.6194 44.429 37.5843 44.7272 37.4128C45.0253 37.2414 45.226 36.9646 45.3079 36.6567C45.3897 36.3489 45.3547 36.0098 45.1832 35.7116C45.0117 35.4135 44.735 35.2128 44.4271 35.1309C44.1192 35.0491 43.7801 35.0842 43.482 35.2556ZM65.9386 11.429V21.8487V32.2683C65.9386 33.6168 65.5762 34.9205 64.9214 36.0546C64.2667 37.1887 63.3196 38.1553 62.1523 38.8295L53.1299 44.0384L44.1075 49.2472L35.0851 44.0384L26.0588 38.8276C24.8915 38.1533 23.9444 37.1868 23.2897 36.0527C22.6349 34.9185 22.2725 33.6148 22.2725 32.2664V21.8467V11.429L31.2949 6.22021L40.3173 1.01137C41.4846 0.337122 42.7941 0 44.1055 0C45.4151 0 46.7246 0.337122 47.8938 1.01137L56.9162 6.22021L65.9386 11.429ZM52.5706 4.74115C53.7691 5.94739 55.0065 7.43424 56.0549 9.19001C57.1033 10.9477 57.9607 12.9763 58.3972 15.268L61.4995 13.4771L64.6018 11.6863L58.5862 8.21371L52.5706 4.74115ZM31.6281 7.05619C34.6408 6.25918 38.5264 5.81683 42.5466 6.92758C46.5648 8.03833 50.7135 10.7041 54.2504 16.1293C54.1803 16.1507 54.1101 16.1721 54.0399 16.2014C53.9717 16.2287 53.9035 16.2618 53.8373 16.2988C53.7009 16.3787 53.5801 16.4722 53.4729 16.5794C53.3676 16.6866 53.2761 16.8055 53.1981 16.9321C52.8006 16.708 52.3407 16.5405 51.8262 16.4294C51.3137 16.3183 50.7467 16.2618 50.1387 16.2618C50.0237 16.2618 49.9068 16.2657 49.786 16.2715C49.6671 16.2774 49.5463 16.2852 49.4255 16.293C49.6593 16.8932 49.8678 17.5343 50.0432 18.2144C50.2205 18.8925 50.3667 19.6077 50.4797 20.354C51.0701 20.8256 51.6177 21.3108 52.1166 21.8039C52.6174 22.2969 53.0695 22.7996 53.4729 23.3024C53.8957 22.671 54.2231 22.0455 54.4492 21.4433C54.6733 20.8412 54.7941 20.2624 54.8038 19.7188C54.9519 19.7149 55.1 19.6934 55.2462 19.6545C55.3923 19.6155 55.5346 19.5551 55.6729 19.4771C55.7256 19.4459 55.7782 19.4128 55.8269 19.3777C55.8756 19.3427 55.9243 19.3056 55.9691 19.2647C56.2673 20.0033 56.4992 20.773 56.657 21.572C56.8149 22.369 56.8967 23.1933 56.8967 24.037C56.8967 24.0994 56.8967 24.1618 56.8948 24.2241C56.8928 24.2865 56.8928 24.3488 56.8909 24.4112C57.2105 23.3803 57.4482 22.3573 57.6021 21.3479C57.7561 20.3384 57.8262 19.3407 57.8126 18.3566C57.7892 16.8581 57.5729 15.3868 57.1637 13.9526C56.7545 12.5184 56.1543 11.1212 55.3631 9.76877C54.114 7.633 52.5687 5.91037 51.1539 4.60475C49.7372 3.29913 48.4511 2.41052 47.7165 1.94674C47.6931 1.93115 47.4456 1.78305 47.4456 1.78305C46.4147 1.1887 45.2592 0.89055 44.1036 0.89055C42.948 0.89055 41.7925 1.1887 40.7616 1.78305L36.1939 4.41962L31.6281 7.05619ZM33.7444 29.8851C33.758 29.9104 33.7736 29.9357 33.7872 29.9611C33.8009 29.9864 33.8165 30.0117 33.8301 30.0371C34.1906 30.6314 34.7557 31.0757 35.4768 31.37C36.1978 31.6642 37.0766 31.8104 38.0666 31.8104C38.1815 31.8104 38.2985 31.8065 38.4193 31.8006C38.5381 31.7948 38.659 31.787 38.7798 31.7792C38.5459 31.179 38.3374 30.5379 38.162 29.8578C37.9847 29.1796 37.8386 28.4645 37.7255 27.7181C37.1351 27.2465 36.5875 26.7613 36.0886 26.2683C35.5878 25.7753 35.1357 25.2725 34.7324 24.7698C34.0932 25.7266 33.6684 26.6658 33.491 27.5369C33.3157 28.406 33.3878 29.2069 33.7444 29.8851ZM34.1828 24.0351C33.795 23.4797 33.4716 22.9243 33.2143 22.3787C32.9591 21.8331 32.772 21.2952 32.659 20.773C32.5109 21.2913 32.3959 21.8233 32.3199 22.369C32.2419 22.9127 32.203 23.47 32.203 24.0351C32.203 24.6002 32.2439 25.1556 32.3218 25.7012C32.3998 26.2449 32.5128 26.7788 32.6609 27.2972C32.7739 26.7769 32.961 26.2391 33.2163 25.6934C33.4716 25.1459 33.795 24.5905 34.1828 24.0351ZM37.4547 24.0351C37.4547 23.622 37.4644 23.2128 37.4839 22.8113C37.5034 22.4079 37.5326 22.0124 37.5696 21.6226C37.1195 22.0163 36.7005 22.4157 36.3147 22.8191C35.9289 23.2225 35.5781 23.6298 35.2624 24.037C35.5781 24.4443 35.9289 24.8516 36.3147 25.255C36.7005 25.6584 37.1195 26.0578 37.5696 26.4515C37.5326 26.0617 37.5034 25.6642 37.4839 25.2628C37.4644 24.8574 37.4547 24.4482 37.4547 24.0351ZM35.5761 32.3268C36.3342 33.1062 37.1994 33.7844 38.1445 34.3339C39.0916 34.8834 40.1205 35.3063 41.2078 35.5791C40.8123 35.2206 40.442 34.7899 40.0951 34.2969C39.7502 33.8039 39.4306 33.2446 39.1442 32.6327C38.9591 32.6483 38.7778 32.6619 38.5986 32.6697C38.4193 32.6775 38.2419 32.6834 38.0666 32.6834C37.6008 32.6834 37.1604 32.6522 36.7454 32.5918C36.3303 32.5314 35.9405 32.4437 35.5761 32.3268ZM39.6801 31.6856C40.1906 31.6155 40.7187 31.5161 41.2624 31.3836C41.8061 31.2511 42.3615 31.0874 42.9285 30.8945C42.568 30.7308 42.2075 30.5574 41.849 30.3742C41.4904 30.191 41.1338 29.9981 40.7811 29.7935C40.4225 29.5869 40.0737 29.3726 39.7346 29.1562C39.3956 28.938 39.0662 28.7158 38.7486 28.4878C38.8636 29.0725 39 29.6337 39.1559 30.1696C39.3098 30.7016 39.4852 31.2102 39.6801 31.6856ZM44.1036 30.4502C44.581 30.2553 45.0623 30.041 45.5437 29.8071C46.025 29.5733 46.5083 29.318 46.9915 29.0393C47.4729 28.7607 47.9386 28.4703 48.3849 28.1722C48.8311 27.8721 49.2579 27.5642 49.6671 27.2485C49.7372 26.7379 49.7899 26.2137 49.8269 25.6778C49.8639 25.142 49.8814 24.5944 49.8814 24.037C49.8814 23.4797 49.862 22.9321 49.8269 22.3963C49.7899 21.8604 49.7372 21.3362 49.6671 20.8256C49.2598 20.5099 48.8311 20.202 48.3849 19.9019C47.9386 19.6018 47.4748 19.3115 46.9915 19.0348C46.5102 18.7561 46.025 18.5008 45.5437 18.267C45.0623 18.0331 44.581 17.8188 44.1036 17.6239C43.6262 17.8188 43.1448 18.0331 42.6635 18.267C42.1822 18.5008 41.6989 18.7561 41.2156 19.0348C40.7343 19.3134 40.2686 19.6038 39.8223 19.9019C39.3761 20.202 38.9493 20.5099 38.5401 20.8256C38.4699 21.3362 38.4173 21.8604 38.3803 22.3963C38.3433 22.9321 38.3257 23.4797 38.3257 24.037C38.3257 24.5944 38.3452 25.142 38.3803 25.6778C38.4173 26.2137 38.4699 26.7379 38.5401 27.2485C38.9474 27.5642 39.3761 27.8721 39.8223 28.1722C40.2686 28.4723 40.7324 28.7626 41.2156 29.0393C41.6989 29.318 42.1822 29.5733 42.6635 29.8071C43.1468 30.041 43.6262 30.2553 44.1036 30.4502ZM49.063 15.4375C49.2481 15.4219 49.4294 15.4083 49.6086 15.4005C49.7879 15.3927 49.9652 15.3868 50.1406 15.3868C50.6064 15.3868 51.0468 15.418 51.4618 15.4784C51.8769 15.5388 52.2666 15.6265 52.631 15.7434C51.873 14.964 51.0078 14.2858 50.0627 13.7363C49.1156 13.1868 48.0867 12.7639 46.9993 12.4911C47.3949 12.8496 47.7652 13.2803 48.112 13.7733C48.457 14.2663 48.7746 14.8237 49.063 15.4375ZM48.5291 16.3846C48.0185 16.4547 47.4904 16.5541 46.9467 16.6866C46.405 16.8191 45.8477 16.9828 45.2806 17.1757C45.6411 17.3394 46.0016 17.5128 46.3602 17.696C46.7187 17.8792 47.0753 18.0721 47.4281 18.2767C47.7866 18.4833 48.1354 18.6976 48.4745 18.914C48.8136 19.1322 49.1429 19.3544 49.4605 19.5823C49.3456 18.9977 49.2092 18.4365 49.0533 17.9006C48.8993 17.3667 48.722 16.86 48.5291 16.3846ZM44.1036 12.1325C43.3144 12.1325 42.5622 12.4599 41.8762 13.0504C41.1903 13.6408 40.5726 14.4963 40.0503 15.5544C40.6973 15.6538 41.3637 15.7999 42.0419 15.989C42.72 16.178 43.4099 16.4079 44.1036 16.6808C44.7973 16.4099 45.4872 16.178 46.1653 15.989C46.8434 15.7999 47.5099 15.6557 48.1569 15.5544C47.6346 14.4963 47.0169 13.6408 46.3309 13.0504C45.647 12.4599 44.8948 12.1325 44.1036 12.1325ZM41.2059 12.493C40.1185 12.7658 39.0877 13.1887 38.1426 13.7382C37.1955 14.2878 36.3303 14.964 35.5722 15.7454C35.9367 15.6285 36.3264 15.5388 36.7434 15.4784C37.1604 15.418 37.6028 15.3868 38.0685 15.3868C38.2439 15.3868 38.4212 15.3907 38.6005 15.4005C38.7798 15.4083 38.963 15.4219 39.1461 15.4375C39.4326 14.8256 39.7502 14.2683 40.0951 13.7753C40.4401 13.2803 40.8123 12.8516 41.2059 12.493ZM38.7467 19.5823C39.0662 19.3544 39.3956 19.1322 39.7327 18.914C40.0718 18.6957 40.4206 18.4833 40.7791 18.2767C41.1338 18.0721 41.4904 17.8792 41.847 17.696C42.2056 17.5128 42.5661 17.3414 42.9266 17.1757C42.3595 16.9809 41.8041 16.8191 41.2605 16.6866C40.7187 16.5541 40.1887 16.4528 39.6781 16.3846C39.4852 16.86 39.3079 17.3667 39.152 17.9006C38.998 18.4365 38.8616 18.9977 38.7467 19.5823ZM45.2825 30.8925C45.8496 31.0874 46.405 31.2491 46.9487 31.3816C47.4924 31.5142 48.0205 31.6155 48.531 31.6837C48.7239 31.2082 48.9013 30.7016 49.0572 30.1676C49.213 29.6337 49.3495 29.0705 49.4644 28.4859C49.1448 28.7139 48.8155 28.9361 48.4784 29.1543C48.1393 29.3726 47.7905 29.585 47.4319 29.7915C47.0792 29.9961 46.7207 30.1891 46.3641 30.3722C46.0016 30.5574 45.6431 30.7288 45.2825 30.8925ZM47.0032 35.5772C48.0906 35.3044 49.1215 34.8815 50.0666 34.332C51.0136 33.7824 51.8789 33.1062 52.6369 32.3248C52.2725 32.4417 51.8827 32.5314 51.4657 32.5918C51.0487 32.6522 50.6064 32.6834 50.1406 32.6834C49.9652 32.6834 49.7879 32.6795 49.6086 32.6697C49.4294 32.6619 49.2462 32.6483 49.063 32.6327C48.7765 33.2446 48.4589 33.8019 48.114 34.2949C47.7671 34.788 47.3969 35.2186 47.0032 35.5772ZM54.3849 30.0254C54.3985 30.002 54.4121 29.9786 54.4258 29.9533C54.4394 29.9299 54.4531 29.9045 54.4667 29.8812C54.8233 29.203 54.8954 28.4021 54.7181 27.531C54.5408 26.6619 54.1159 25.7227 53.4787 24.7659C53.0753 25.2706 52.6233 25.7714 52.1224 26.2644C51.6216 26.7574 51.074 27.2426 50.4855 27.7142C50.3725 28.4586 50.2264 29.1738 50.049 29.8539C49.8717 30.532 49.6651 31.1751 49.4313 31.7753C49.5521 31.7831 49.6729 31.7909 49.7918 31.7967C49.9107 31.8026 50.0296 31.8065 50.1445 31.8065C51.1364 31.8065 52.0192 31.6603 52.7421 31.3641C53.4612 31.0699 54.0244 30.6236 54.3849 30.0254ZM50.7545 24.0351C50.7545 24.4482 50.7447 24.8574 50.7252 25.2608C50.7057 25.6642 50.6765 26.0598 50.6395 26.4495C51.0896 26.0559 51.5086 25.6564 51.8944 25.253C52.2803 24.8496 52.631 24.4424 52.9467 24.0351C52.631 23.6278 52.2803 23.2205 51.8944 22.8172C51.5086 22.4138 51.0896 22.0143 50.6395 21.6207C50.6765 22.0104 50.7057 22.4079 50.7252 22.8094C50.7447 23.2128 50.7545 23.62 50.7545 24.0351ZM55.5502 27.2953C55.6983 26.7769 55.8132 26.2449 55.8892 25.6993C55.9672 25.1556 56.0062 24.5983 56.0062 24.0331C56.0062 23.468 55.9652 22.9127 55.8873 22.367C55.8094 21.8233 55.6963 21.2894 55.5482 20.7711C55.4352 21.2913 55.2481 21.8292 54.9929 22.3748C54.7376 22.9205 54.4121 23.4758 54.0244 24.0312C54.4121 24.5866 54.7356 25.142 54.9929 25.6876C55.2481 26.2371 55.4352 26.775 55.5502 27.2953ZM23.6073 11.6863L26.8538 13.5609L30.1003 15.4355C31.6671 14.2235 33.5476 13.1926 35.8041 12.4541C38.0607 11.7175 40.6914 11.2751 43.7606 11.2439C43.8171 11.242 43.8736 11.242 43.9302 11.24C43.9867 11.24 44.0432 11.2381 44.1016 11.2381C45.3352 11.2381 46.5278 11.4135 47.658 11.7408C48.7863 12.0682 49.8522 12.5476 50.8305 13.1536C50.0958 12.3586 49.328 11.6395 48.5291 11.0003C47.7301 10.3612 46.9 9.79994 46.0386 9.31862C44.7447 8.5976 43.3787 8.05392 41.9503 7.69146C40.5219 7.32901 39.0312 7.14583 37.4859 7.14583C37.4683 7.14583 37.4488 7.14583 37.4313 7.14583C37.4137 7.14583 37.3943 7.14583 37.3767 7.14583C34.9019 7.15948 32.6375 7.63495 30.7999 8.20982C28.9603 8.78273 27.5495 9.45308 26.7798 9.85646C26.7564 9.8701 26.6882 9.90322 26.6765 9.90907L25.1409 10.7957L23.6073 11.6863ZM23.163 26.3501C23.6093 24.7093 24.2757 22.8932 25.2734 21.1082C26.2712 19.3232 27.6002 17.5655 29.3657 16.0416L26.2634 14.2507L23.1611 12.4599V19.405V26.3501H23.163ZM35.6385 43.329C33.4443 41.1192 31.1156 37.976 30.0692 33.9403C29.0227 29.9065 29.2546 24.9802 32.1815 19.2082C32.2926 19.3154 32.4134 19.407 32.5459 19.4849C32.6784 19.5609 32.8207 19.6233 32.9727 19.6622C33.0448 19.6817 33.1169 19.6954 33.189 19.7051C33.2611 19.7149 33.3332 19.7207 33.4053 19.7227C33.4131 20.2644 33.5359 20.8432 33.76 21.4453C33.9841 22.0474 34.3134 22.671 34.7343 23.3024C35.1377 22.7977 35.5898 22.2969 36.0906 21.8039C36.5914 21.3108 37.137 20.8256 37.7275 20.354C37.8405 19.6096 37.9867 18.8945 38.164 18.2144C38.3413 17.5362 38.5479 16.8932 38.7817 16.293C38.6609 16.2852 38.5401 16.2774 38.4212 16.2715C38.3024 16.2657 38.1835 16.2618 38.0685 16.2618C37.4586 16.2618 36.8935 16.3183 36.379 16.4294C35.8645 16.5405 35.4047 16.708 35.0071 16.9321C34.8941 16.749 34.7518 16.5892 34.5882 16.4586C34.4225 16.328 34.2354 16.2267 34.0328 16.1585C34.5765 15.4648 35.1884 14.8295 35.8606 14.2624C36.5329 13.6954 37.2637 13.1946 38.0432 12.7736C36.9889 13.0133 35.9834 13.3173 35.0305 13.6895C34.0776 14.0617 33.1773 14.5002 32.3316 15.0049C31.0454 15.7727 29.8801 16.6983 28.8415 17.7681C27.8028 18.8399 26.8928 20.0598 26.1192 21.418C24.8934 23.5674 24.1744 25.7675 23.7515 27.646C23.3286 29.5245 23.2039 31.0835 23.1669 31.9507C23.165 31.9779 23.1611 32.2664 23.1611 32.2664C23.1611 33.457 23.4806 34.6067 24.0594 35.6064C24.6362 36.608 25.4722 37.4596 26.5031 38.054L31.0688 40.6905L35.6385 43.329ZM43.6593 40.4606C41.7925 39.6947 39.9237 38.5567 38.127 36.9257C36.3303 35.2946 34.6057 33.1686 33.0253 30.4326H33.0273H33.0292C32.4836 29.4914 32.0549 28.4742 31.7626 27.4024C31.4703 26.3307 31.3144 25.2024 31.3144 24.037C31.3144 23.9747 31.3144 23.9123 31.3163 23.85C31.3183 23.7876 31.3183 23.7253 31.3202 23.6629C31.0006 24.6938 30.7629 25.7168 30.6089 26.7262C30.455 27.7357 30.3848 28.7334 30.4004 29.7175C30.4238 31.216 30.6401 32.6873 31.0493 34.1215C31.4586 35.5557 32.0588 36.9529 32.8499 38.3053C34.099 40.4411 35.6443 42.1637 37.0591 43.4694C38.4758 44.775 39.7619 45.6636 40.4946 46.1274C40.518 46.1429 40.5375 46.1546 40.5531 46.1644C40.5687 46.1741 40.5823 46.1819 40.5921 46.1897L42.1276 47.0764L43.6632 47.963V44.2138V40.4606H43.6593ZM56.581 41.014C55.7178 41.242 54.7843 41.4408 53.7964 41.583C52.8084 41.7253 51.7658 41.811 50.6863 41.811C49.708 41.811 48.6966 41.7409 47.6716 41.5791C46.6447 41.4174 45.6002 41.1641 44.5518 40.7996V44.3794V47.9591L50.5674 44.4866L56.581 41.014ZM65.0461 21.7181C64.2296 24.7249 62.6707 28.3125 59.7009 31.2374C56.7311 34.1624 52.3485 36.4229 45.8827 36.7756C45.9373 36.5535 45.9509 36.3255 45.9217 36.1033C45.8925 35.8812 45.8243 35.6649 45.7152 35.4641C46.1809 35.1855 46.6232 34.7899 47.0325 34.293C47.4417 33.7961 47.8197 33.1978 48.1549 32.5158C47.508 32.4164 46.8415 32.2702 46.1634 32.0812C45.4852 31.8922 44.7954 31.6623 44.1016 31.3894C43.4079 31.6603 42.7181 31.8922 42.0399 32.0812C41.3618 32.2702 40.6953 32.4145 40.0484 32.5158C40.3855 33.1998 40.7635 33.798 41.1728 34.2949C41.582 34.7919 42.0243 35.1874 42.492 35.4661C42.3907 35.6532 42.3244 35.8578 42.2933 36.0663C42.2621 36.2748 42.2679 36.4911 42.3108 36.7035C41.4144 36.5768 40.5492 36.3586 39.7229 36.0565C38.8967 35.7545 38.1094 35.3706 37.3728 34.9127C38.1075 35.7077 38.8753 36.4268 39.6742 37.066C40.4732 37.7051 41.3033 38.2664 42.1646 38.7477C43.4742 39.4765 44.8577 40.0241 46.3037 40.3885C47.7515 40.7509 49.2618 40.9302 50.8246 40.9205C53.2994 40.9068 55.5638 40.4313 57.4014 39.8565C59.241 39.2836 60.6518 38.6132 61.4216 38.2099C61.4449 38.1962 61.6983 38.0559 61.6983 38.0559C62.7291 37.4616 63.5651 36.608 64.1419 35.6084C64.7207 34.6067 65.0403 33.4589 65.0403 32.2683V26.9952V21.7181H65.0461ZM65.0461 12.458L61.7996 14.3326L58.5531 16.2072C58.824 18.2066 58.7714 20.395 58.2569 22.7665C57.7425 25.1381 56.7642 27.6947 55.1858 30.4307H55.1838H55.1819C54.5875 31.4557 53.8568 32.3911 53.011 33.2095C52.1673 34.0299 51.2105 34.7334 50.166 35.2985C51.2202 35.0588 52.2257 34.7548 53.1786 34.3826C54.1315 34.0104 55.0318 33.572 55.8776 33.0673C57.1637 32.2995 58.329 31.3758 59.3677 30.304C60.4063 29.2322 61.3163 28.0124 62.09 26.6541C63.3157 24.5047 64.0348 22.3047 64.4576 20.4261C64.8805 18.5476 65.0052 16.9886 65.0422 16.1215C65.0442 16.0942 65.0461 16.0182 65.0481 16.0065V14.2332V12.458H65.0461Z" fill="white"/>
<g id="Group_2">
<path id="Vector" d="M2.77673 56.0149H3.76667L3.85436 56.5333H3.88359C4.2285 56.202 4.64163 55.9155 5.2009 55.9155C6.09145 55.9155 6.47144 56.545 6.47144 57.568V60.113H5.25741V57.7239C5.25741 57.1335 5.09957 56.9503 4.7488 56.9503C4.44286 56.9503 4.25773 57.0925 3.99076 57.3478V60.113H2.77673V56.0149Z" fill="white"/>
<path id="Vector_2" d="M7.50293 56.0149H8.49286L8.58055 56.5333H8.60978C8.9547 56.202 9.36782 55.9155 9.9271 55.9155C10.8176 55.9155 11.1976 56.545 11.1976 57.568V60.113H9.98361V57.7239C9.98361 57.1335 9.82576 56.9503 9.475 56.9503C9.16906 56.9503 8.98393 57.0925 8.71696 57.3478V60.113H7.50293V56.0149Z" fill="white"/>
<path id="Vector_3" d="M11.9894 58.0649C11.9894 56.7028 12.9481 55.9155 13.9848 55.9155C15.0215 55.9155 15.9803 56.7028 15.9803 58.0649C15.9803 59.4251 15.0215 60.2124 13.9848 60.2124C12.9481 60.2124 11.9894 59.4251 11.9894 58.0649ZM14.737 58.0649C14.737 57.3556 14.4876 56.8957 13.9848 56.8957C13.4821 56.8957 13.2326 57.3556 13.2326 58.0649C13.2326 58.7743 13.4821 59.2322 13.9848 59.2322C14.4876 59.2322 14.737 58.7743 14.737 58.0649Z" fill="white"/>
<path id="Vector_4" d="M16.3098 56.0151H17.5297L18.0636 57.9502C18.1689 58.3575 18.276 58.7803 18.3813 59.209H18.4144C18.5196 58.7803 18.6268 58.3575 18.732 57.9502L19.266 56.0151H20.4293L19.0925 60.1132H17.6934L16.3098 56.0151Z" fill="white"/>
<path id="Vector_5" d="M20.7126 58.9769C20.7126 58.1136 21.4005 57.646 23.0199 57.4745C22.9965 57.1159 22.8172 56.8821 22.371 56.8821C22.0261 56.8821 21.6831 57.0263 21.2856 57.2523L20.853 56.4553C21.3733 56.1377 21.9598 55.9155 22.6029 55.9155C23.6513 55.9155 24.23 56.5138 24.23 57.7707V60.113H23.2401L23.1524 59.694H23.1232C22.7783 59.998 22.3924 60.2124 21.9306 60.2124C21.1881 60.2124 20.7126 59.6667 20.7126 58.9769ZM23.0218 58.9223V58.2072C22.1586 58.3241 21.876 58.5696 21.876 58.8795C21.876 59.1445 22.0572 59.2731 22.3456 59.2731C22.6224 59.2731 22.8055 59.1367 23.0218 58.9223Z" fill="white"/>
<path id="Vector_6" d="M24.8942 59.6395L25.4398 58.8834C25.812 59.164 26.155 59.314 26.4979 59.314C26.8584 59.314 27.0163 59.1757 27.0163 58.9613C27.0163 58.6905 26.611 58.5696 26.1881 58.404C25.6853 58.2091 25.1027 57.8759 25.1027 57.1997C25.1027 56.4358 25.7224 55.9175 26.6694 55.9175C27.2969 55.9175 27.7646 56.1708 28.1134 56.4358L27.5697 57.1646C27.2774 56.9522 26.9909 56.8139 26.7064 56.8139C26.3927 56.8139 26.2388 56.9366 26.2388 57.1413C26.2388 57.4024 26.6226 57.5018 27.0475 57.6577C27.5658 57.8506 28.1524 58.1409 28.1524 58.8912C28.1524 59.6336 27.5678 60.2124 26.4687 60.2124C25.927 60.2124 25.3092 59.9785 24.8942 59.6395Z" fill="white"/>
<path id="Vector_7" d="M31.0722 61.6332L31.2885 60.7076C31.3645 60.7271 31.4755 60.7602 31.5652 60.7602C31.9647 60.7602 32.1771 60.54 32.2823 60.2224L32.3427 60.008L30.7623 56.0151H31.9822L32.5688 57.7787C32.6876 58.1509 32.7851 58.5387 32.8922 58.9401H32.9254C33.017 58.5523 33.1085 58.1645 33.2099 57.7787L33.7068 56.0151H34.8702L33.4476 60.158C33.0579 61.185 32.6214 61.717 31.6587 61.717C31.4015 61.715 31.2378 61.6819 31.0722 61.6332Z" fill="white"/>
<path id="Vector_8" d="M35.1442 58.9769C35.1442 58.1136 35.8321 57.646 37.4514 57.4745C37.428 57.1159 37.2487 56.8821 36.8025 56.8821C36.4576 56.8821 36.1146 57.0263 35.7171 57.2523L35.2845 56.4553C35.8048 56.1377 36.3913 55.9155 37.0344 55.9155C38.0828 55.9155 38.6615 56.5138 38.6615 57.7707V60.113H37.6716L37.5839 59.694H37.5547C37.2098 59.998 36.8239 60.2124 36.3621 60.2124C35.6196 60.2124 35.1442 59.6667 35.1442 58.9769ZM37.4534 58.9223V58.2072C36.5901 58.3241 36.3075 58.5696 36.3075 58.8795C36.3075 59.1445 36.4888 59.2731 36.7772 59.2731C37.0539 59.2731 37.2371 59.1367 37.4534 58.9223Z" fill="white"/>
<path id="Vector_9" d="M40.9047 56.0151H42.1245L42.6585 57.9502C42.7637 58.3575 42.8709 58.7803 42.9761 59.209H43.0092C43.1145 58.7803 43.2217 58.3575 43.3269 57.9502L43.8608 56.0151H45.0242L43.6874 60.1132H42.2882L40.9047 56.0151Z" fill="white"/>
<path id="Vector_10" d="M45.4258 58.2306C45.4258 58.0123 45.4531 57.7902 45.4764 57.6908H47.9279C47.8324 57.1101 47.4972 56.8412 46.9867 56.8412C46.671 56.8412 46.3767 56.9386 46.0883 57.1159L45.6869 56.3286C46.1293 56.0324 46.6807 55.9155 47.1932 55.9155C48.2748 55.9155 49.1049 56.7262 49.1049 58.063C49.1049 59.392 48.2105 60.2124 47.1854 60.2124C46.0221 60.2124 45.4258 59.3628 45.4258 58.2306ZM47.9415 58.4936H46.4625C46.4625 58.9613 46.671 59.2868 47.1582 59.2868C47.5576 59.2868 47.8616 59.0471 47.9415 58.4936Z" fill="white"/>
<path id="Vector_11" d="M55.9043 60.1127L54.6864 57.9594C55.2613 57.7003 55.6452 57.1975 55.6452 56.4044C55.6452 55.1241 54.7098 54.7285 53.5679 54.7285H51.6289V60.1127H52.8468V58.1757H53.5172L54.5441 60.1127H55.9043ZM52.8449 55.6951H53.4685C54.1096 55.6951 54.4526 55.8724 54.4526 56.4044C54.4526 56.9344 54.1076 57.2072 53.4685 57.2072H52.8449V55.6951Z" fill="white"/>
<path id="Vector_12" d="M56.354 58.2306C56.354 58.0123 56.3813 57.7902 56.4047 57.6908H58.8561C58.7606 57.1101 58.4255 56.8412 57.9149 56.8412C57.5992 56.8412 57.305 56.9386 57.0166 57.1159L56.6151 56.3286C57.0575 56.0324 57.609 55.9155 58.1215 55.9155C59.203 55.9155 60.0331 56.7262 60.0331 58.063C60.0331 59.392 59.1387 60.2124 58.1137 60.2124C56.9484 60.2124 56.354 59.3628 56.354 58.2306ZM58.8698 58.4936H57.3907C57.3907 58.9613 57.5992 59.2868 58.0864 59.2868C58.4839 59.2868 58.7879 59.0471 58.8698 58.4936Z" fill="white"/>
<path id="Vector_13" d="M63.3191 60.3839L63.362 59.7583C63.0931 60.0234 62.7014 60.2124 62.3331 60.2124C61.3139 60.2124 60.6572 59.4037 60.6572 58.0649C60.6572 56.7242 61.4932 55.9155 62.3565 55.9155C62.8008 55.9155 63.1262 56.0695 63.4516 56.4183H63.4809L63.5822 56.013H64.5312V61.633H63.3172V60.3839H63.3191ZM63.3191 58.8502V57.1666C63.1048 56.9737 62.8631 56.9074 62.641 56.9074C62.2473 56.9074 61.9024 57.2699 61.9024 58.0493C61.9024 58.8541 62.1811 59.2166 62.6507 59.2166C62.9099 59.2186 63.1184 59.1192 63.3191 58.8502Z" fill="white"/>
<path id="Vector_14" d="M65.3684 58.2306C65.3684 58.0123 65.3957 57.7902 65.4191 57.6908H67.8705C67.775 57.1101 67.4399 56.8412 66.9293 56.8412C66.6136 56.8412 66.3194 56.9386 66.031 57.1159L65.6295 56.3286C66.0719 56.0324 66.6234 55.9155 67.1359 55.9155C68.2174 55.9155 69.0475 56.7262 69.0475 58.063C69.0475 59.392 68.1531 60.2124 67.1281 60.2124C65.9628 60.2124 65.3684 59.3628 65.3684 58.2306ZM67.8842 58.4936H66.4051C66.4051 58.9613 66.6136 59.2868 67.1008 59.2868C67.4983 59.2868 67.8023 59.0471 67.8842 58.4936Z" fill="white"/>
<path id="Vector_15" d="M69.8823 56.0149H70.8723L70.9599 56.5411H70.9892C71.3263 56.202 71.6926 55.9155 72.2305 55.9155C72.8073 55.9155 73.1542 56.165 73.3627 56.6054C73.7232 56.2293 74.1071 55.9155 74.6488 55.9155C75.5335 55.9155 75.931 56.545 75.931 57.568V60.113H74.717V57.7239C74.717 57.1335 74.5553 56.9503 74.2104 56.9503C74.0038 56.9503 73.7719 57.0789 73.5127 57.3478V60.113H72.2987V57.7239C72.2987 57.1335 72.1369 56.9503 71.792 56.9503C71.5894 56.9503 71.3536 57.0789 71.0944 57.3478V60.113H69.8804V56.0149H69.8823Z" fill="white"/>
<path id="Vector_16" d="M76.5994 59.6395L77.145 58.8834C77.5172 59.164 77.8602 59.314 78.2031 59.314C78.5636 59.314 78.7215 59.1757 78.7215 58.9613C78.7215 58.6905 78.3162 58.5696 77.8933 58.404C77.3905 58.2091 76.8079 57.8759 76.8079 57.1997C76.8079 56.4358 77.4276 55.9175 78.3746 55.9175C79.0021 55.9175 79.4698 56.1708 79.8186 56.4358L79.2749 57.1646C78.9826 56.9522 78.6962 56.8139 78.4117 56.8139C78.0979 56.8139 77.944 56.9366 77.944 57.1413C77.944 57.4024 78.3279 57.5018 78.7527 57.6577C79.271 57.8506 79.8576 58.1409 79.8576 58.8912C79.8576 59.6336 79.273 60.2124 78.1739 60.2124C77.6322 60.2124 77.0144 59.9785 76.5994 59.6395Z" fill="white"/>
<path id="Vector_17" d="M80.432 58.9769C80.432 58.1136 81.1199 57.646 82.7392 57.4745C82.7159 57.1159 82.5366 56.8821 82.0903 56.8821C81.7454 56.8821 81.4025 57.0263 81.0049 57.2523L80.5723 56.4553C81.0926 56.1377 81.6792 55.9155 82.3222 55.9155C83.3706 55.9155 83.9494 56.5138 83.9494 57.7707V60.113H82.9594L82.8718 59.694H82.8425C82.4976 59.998 82.1098 60.2124 81.6499 60.2124C80.9075 60.2124 80.432 59.6667 80.432 58.9769ZM82.7412 58.9223V58.2072C81.8779 58.3241 81.5954 58.5696 81.5954 58.8795C81.5954 59.1445 81.7766 59.2731 82.065 59.2731C82.3398 59.2731 82.5249 59.1367 82.7412 58.9223Z" fill="white"/>
<path id="Vector_18" d="M84.975 58.8384V54.3252H86.189V58.889C86.189 59.1501 86.3098 59.232 86.4092 59.232C86.456 59.232 86.4891 59.232 86.5573 59.2164L86.7015 60.1128C86.567 60.1693 86.3683 60.2141 86.0916 60.2141C85.2595 60.2122 84.975 59.6685 84.975 58.8384Z" fill="white"/>
<path id="Vector_19" d="M16.7329 65.928H17.7228L17.8105 66.4463H17.8398C18.1847 66.1151 18.5978 65.8286 19.1571 65.8286C20.0476 65.8286 20.4276 66.458 20.4276 67.4811V70.0261H19.2136V67.637C19.2136 67.0465 19.0557 66.8634 18.705 66.8634C18.399 66.8634 18.2139 67.0056 17.9469 67.2609V70.0261H16.7329V65.928Z" fill="white"/>
<path id="Vector_20" d="M21.4569 64.2383H22.6437V67.553H22.6729L23.9727 65.9258H25.2919L23.8557 67.6154L25.401 70.0239H24.0857L23.164 68.426L22.6437 69.0165V70.0259H21.4569V64.2383Z" fill="white"/>
<path id="Vector_21" d="M31.1593 68.8043C31.1593 68.054 30.5747 67.7637 30.0544 67.5707C29.6296 67.4168 29.2457 67.3155 29.2457 67.0543C29.2457 66.8497 29.3997 66.727 29.7134 66.727C29.9979 66.727 30.2844 66.8653 30.5767 67.0758L31.1204 66.347C30.7715 66.0819 30.3039 65.8286 29.6764 65.8286C28.7313 65.8286 28.1096 66.3489 28.1096 67.1109C28.1096 67.789 28.6923 68.1222 29.195 68.3151C29.616 68.4808 30.0232 68.6035 30.0232 68.8725C30.0232 69.0868 29.8673 69.2252 29.5049 69.2252C29.1619 69.2252 28.819 69.0751 28.4468 68.7945L27.9011 69.5506C28.2733 69.8546 28.8073 70.0729 29.3042 70.1157L28.9651 70.7997C29.4659 70.866 29.5965 70.9809 29.5965 71.1485C29.5965 71.3824 29.3958 71.4779 28.7507 71.5129L28.8404 72.0001C29.8693 71.965 30.4714 71.7078 30.4714 71.1466C30.4714 70.8017 30.2532 70.6263 29.8381 70.5308L30.0408 70.067C30.7754 69.8994 31.1593 69.4045 31.1593 68.8043Z" fill="white"/>
<path id="Vector_22" d="M31.7361 68.89C31.7361 68.0267 32.424 67.559 34.0433 67.3876C34.0199 67.029 33.8407 66.7952 33.3944 66.7952C33.0495 66.7952 32.7065 66.9394 32.309 67.1654L31.8764 66.3684C32.3967 66.0508 32.9832 65.8286 33.6263 65.8286C34.6747 65.8286 35.2535 66.4269 35.2535 67.6838V70.0261H34.2635L34.1758 69.6071H34.1466C33.8017 69.9111 33.4159 70.1255 32.954 70.1255C32.2096 70.1255 31.7361 69.5798 31.7361 68.89ZM34.0433 68.8354V68.1203C33.1801 68.2372 32.8975 68.4827 32.8975 68.7926C32.8975 69.0576 33.0787 69.1862 33.3671 69.1862C33.6438 69.1862 33.829 69.0498 34.0433 68.8354Z" fill="white"/>
<path id="Vector_23" d="M38.17 65.0921C38.3044 65.0921 38.4564 65.1252 38.5948 65.1798L38.813 64.2834C38.6318 64.2152 38.3376 64.1372 37.9946 64.1372C36.8877 64.1372 36.4863 64.8485 36.4863 65.7137V65.9319L35.9407 65.9729V66.879H36.4863V70.0261H37.7003V66.881H38.4369V65.9281H37.7003V65.6806C37.7023 65.2558 37.8738 65.0921 38.17 65.0921Z" fill="white"/>
<path id="Vector_24" d="M45.6052 70.0258H46.8933L45.2018 64.6416H43.7462L42.0547 70.0258H43.2999L43.6331 68.7436H45.2739L45.6052 70.0258ZM43.8767 67.7965L44.0053 67.2977C44.1554 66.7598 44.2996 66.1304 44.4282 65.5614H44.4613C44.6055 66.1226 44.7497 66.7598 44.8978 67.2977L45.0264 67.7965H43.8767Z" fill="white"/>
<path id="Vector_25" d="M51.5907 67.978C51.5907 66.649 52.5397 65.8286 53.5238 65.8286C54.6911 65.8286 55.2698 66.6763 55.2698 67.7948C55.2698 68.0131 55.2425 68.2333 55.2192 68.3307H52.7677C52.8768 68.9251 53.2841 69.1979 53.8297 69.1979C54.1396 69.1979 54.4182 69.1044 54.7164 68.929L55.1178 69.6617C54.6988 69.952 54.1493 70.1235 53.6641 70.1235C52.4968 70.1255 51.5907 69.3343 51.5907 67.978ZM54.2331 67.5298C54.2331 67.0797 54.0363 66.7542 53.5511 66.7542C53.1672 66.7542 52.8359 67.0115 52.7541 67.5298H54.2331Z" fill="white"/>
<path id="Vector_26" d="M56.1061 65.928H57.096L57.1837 66.4463H57.2129C57.5578 66.1151 57.971 65.8286 58.5302 65.8286C59.4208 65.8286 59.8008 66.458 59.8008 67.4811V70.0261H58.5868V67.637C58.5868 67.0465 58.4289 66.8634 58.0781 66.8634C57.7722 66.8634 57.5871 67.0056 57.3201 67.2609V70.0261H56.1061V65.928Z" fill="white"/>
<path id="Vector_27" d="M60.9949 68.535V66.8787H60.4357V65.9725L61.0631 65.9257L61.2054 64.8364H62.209V65.9257H63.1911V66.8787H62.209V68.5194C62.209 68.9832 62.4194 69.1703 62.739 69.1703C62.8735 69.1703 63.0216 69.1313 63.1287 69.0924L63.3197 69.9751C63.1015 70.0433 62.8072 70.1232 62.4097 70.1232C61.3983 70.1252 60.9949 69.486 60.9949 68.535Z" fill="white"/>
<path id="Vector_28" d="M63.996 68.7514V64.2383H65.21V68.8021C65.21 69.0632 65.3308 69.1451 65.4302 69.1451C65.477 69.1451 65.5101 69.1451 65.5783 69.1295L65.7225 70.0259C65.588 70.0824 65.3893 70.1272 65.1126 70.1272C64.2805 70.1253 63.996 69.5816 63.996 68.7514Z" fill="white"/>
<path id="Vector_29" d="M68.5161 71.5458L68.7324 70.6202C68.8084 70.6397 68.9195 70.6728 69.0092 70.6728C69.4086 70.6728 69.621 70.4526 69.7263 70.1349L69.7867 69.9206L68.2063 65.9277H69.4262L70.0127 67.6913C70.1316 68.0635 70.229 68.4513 70.3362 68.8527H70.3693C70.4609 68.4649 70.5525 68.0771 70.6538 67.6913L71.1508 65.9277H72.3141L70.8916 70.0706C70.5018 71.0976 70.0653 71.6296 69.1027 71.6296C68.8455 71.6276 68.6818 71.5945 68.5161 71.5458Z" fill="white"/>
<path id="Vector_30" d="M51.1405 69.3247C51.1405 70.6108 50.2558 71.2305 48.919 71.2305C48.2799 71.2305 47.8044 71.0785 47.4517 70.907L47.7751 70.0944C48.0694 70.2523 48.4358 70.3887 48.8898 70.3887C49.5075 70.3887 49.946 70.1159 49.946 69.3676V69.1454H49.9323C49.681 69.4904 49.2912 69.7125 48.7826 69.7125C47.82 69.7125 47.1866 68.9291 47.1866 67.8437C47.1866 66.7661 47.8336 65.895 48.8255 65.895C49.3438 65.895 49.7609 66.1328 50.0473 66.5361H50.061L50.0902 65.9749H51.1405V69.3247ZM49.9889 67.8067C49.9889 67.1889 49.7024 66.7563 49.1899 66.7563C48.6657 66.7563 48.3909 67.224 48.3909 67.8203C48.3909 68.403 48.6501 68.8707 49.1821 68.8707C49.7024 68.8707 49.9889 68.4264 49.9889 67.8067Z" fill="white"/>
<path id="Vector_31" d="M0.391718 54.7287H1.60965V60.1129H0.391718V54.7287ZM0.389771 53.3198H1.61159V54.3273H0.389771V53.3198Z" fill="white"/>
<path id="Vector_32" d="M14.3487 64.6418H15.5667V70.026H14.3487V64.6418ZM14.3448 63.2349H15.5667V64.2423H14.3448V63.2349Z" fill="white"/>
<path id="Vector_33" d="M28.9141 56.0151H30.1281V60.1132H28.9141V56.0151ZM28.9121 54.2769H30.1339V55.2843H28.9121V54.2769Z" fill="white"/>
<path id="Vector_34" d="M25.9869 65.9277H27.201V70.0258H25.9869V65.9277ZM25.985 64.1895H27.2068V65.1969H25.985V64.1895Z" fill="white"/>
<path id="Vector_35" d="M66.3593 65.9277H67.5733V70.0258H66.3593V65.9277ZM66.3573 64.1895H67.5791V65.1969H66.3573V64.1895Z" fill="white"/>
<path id="Vector_36" d="M72.9451 65.9277H74.1591V70.0258H72.9451V65.9277ZM72.9431 64.1895H74.1649V65.1969H72.9431V64.1895Z" fill="white"/>
</g>
</g>
</svg>
