<svg width="68" height="14" viewBox="0 0 68 14" fill="none" xmlns="http://www.w3.org/2000/svg">
<g id="Group 2219">
<path id="Vector" d="M25.6982 0.0528259H27.8091V5.24074L28.117 5.01395C29.1862 4.21854 30.3747 4.04661 31.6144 4.47008C32.9167 4.91428 33.6147 5.92108 33.6733 7.24432C33.7535 9.0432 33.6935 10.8488 33.6935 12.6731H31.578C31.578 12.5607 31.578 12.4436 31.578 12.3259C31.5726 10.8668 31.5814 9.40779 31.5558 7.94942C31.5389 6.99948 30.9965 6.37398 30.1362 6.23216C29.2462 6.08565 28.3811 6.53186 28.1082 7.39083C27.9337 7.97397 27.8379 8.57752 27.8232 9.18569C27.7801 10.341 27.8104 11.499 27.8104 12.6751H25.6982V0.0528259Z" fill="white"/>
<path id="Vector_2" d="M52.0524 10.5026C51.2403 12.3906 49.2672 13.35 47.147 12.9111C45.4063 12.5505 44.1957 11.286 43.8571 9.47561C43.5048 7.59428 44.3721 5.71162 45.9922 4.83786C46.6079 4.50269 47.299 4.32379 48.0028 4.31738C48.7067 4.31097 49.4011 4.47726 50.0229 4.80116C50.6448 5.12507 51.1744 5.59632 51.5638 6.17218C51.9532 6.74803 52.1899 7.41024 52.2527 8.09874C52.2867 8.46001 52.2894 8.82397 52.3078 9.2187H45.9847C45.9847 10.253 46.959 11.1756 48.0525 11.1903C48.87 11.2011 49.5656 10.9629 50.0432 10.2577C50.0936 10.1821 50.2708 10.1386 50.375 10.158C50.9303 10.257 51.4807 10.3822 52.0524 10.5026ZM50.033 7.72207C49.8756 6.71852 48.9661 6.09431 47.8208 6.19399C46.8916 6.27495 46.0352 7.09853 46.0713 7.72207H50.033Z" fill="white"/>
<path id="Vector_3" d="M15.5843 10.5049C15.1718 11.4596 14.5289 12.1677 13.5839 12.6036C11.5359 13.547 9.10275 12.8262 8.03052 10.9194C6.78015 8.69569 7.55569 5.49716 10.248 4.55712C10.8612 4.33954 11.517 4.26855 12.1626 4.34987C12.8083 4.4312 13.4259 4.66255 13.9658 5.02537C14.5056 5.38818 14.9527 5.87233 15.2712 6.43893C15.5896 7.00554 15.7705 7.6388 15.7993 8.28786C15.8154 8.58672 15.7993 8.88959 15.7993 9.21586H9.62045C9.57959 10.2702 10.6465 11.2303 11.7743 11.1869C12.5264 11.1581 13.164 10.9194 13.604 10.2615C13.6582 10.18 13.8498 10.1352 13.9623 10.1559C14.496 10.2542 15.0251 10.3812 15.5843 10.5049ZM9.66733 7.7122H13.5912C13.5156 6.93396 12.728 6.22793 11.9042 6.19383C10.7523 6.14369 9.85887 6.74542 9.66733 7.7122Z" fill="white"/>
<path id="Vector_4" d="M34.7393 4.59974H36.8592V5.31674C37.4145 4.81876 38.1047 4.49019 38.8458 4.37091C40.8816 4.02667 42.6635 5.37246 42.7282 7.39812C42.7834 9.14984 42.7396 10.9042 42.7396 12.6752H40.6089C40.6089 12.5624 40.6089 12.4463 40.6089 12.3303C40.6089 10.8837 40.6224 9.43704 40.5968 7.99043C40.584 7.26082 40.2728 6.66387 39.5354 6.376C38.8876 6.1213 38.0142 6.30238 37.5434 6.79122C37.0727 7.28005 36.9077 7.88231 36.8889 8.51574C36.8518 9.77598 36.8585 11.0322 36.8478 12.2905C36.8478 12.4112 36.8478 12.5319 36.8478 12.6712H34.7399L34.7393 4.59974Z" fill="white"/>
<path id="Vector_5" d="M52.9902 10.6204L55.1306 10.1969C55.2666 10.8659 55.7109 11.1883 56.3177 11.2512C56.743 11.2929 57.1723 11.2703 57.5906 11.1843C57.7658 11.1517 57.9234 11.0591 58.0356 10.9228C58.1477 10.7866 58.207 10.6157 58.2029 10.4404C58.1798 10.0551 57.9049 9.86983 57.575 9.78621C56.9858 9.63637 56.3871 9.51864 55.7912 9.39689C55.0428 9.2437 54.3148 9.0303 53.7781 8.45501C52.9515 7.56933 53.0644 6.06286 54.0032 5.20527C55.4476 3.88678 58.3859 4.06137 59.6275 5.56316C59.8895 5.87957 60.048 6.27826 60.2909 6.70036L58.19 7.12314C58.1264 6.9625 58.0524 6.80609 57.9682 6.65488C57.5675 6.02205 56.3538 5.77588 55.7231 6.1933C55.6078 6.26562 55.515 6.36785 55.455 6.48871C55.3949 6.60958 55.37 6.7444 55.383 6.8783C55.4013 7.19806 55.6047 7.39607 55.8986 7.46831C56.6103 7.64157 57.3273 7.78941 58.0437 7.94728C58.8009 8.11452 59.4983 8.39213 59.9446 9.05773C60.6929 10.1789 60.299 11.7282 59.0921 12.4566C57.7138 13.2888 55.187 13.1771 53.8964 12.2272C53.3739 11.8426 53.0174 11.2278 52.9902 10.6204Z" fill="white"/>
<path id="Vector_6" d="M22.8565 7.88753C22.826 7.81043 22.8048 7.76014 22.7862 7.70918C22.362 6.56938 21.5655 6.11614 20.3382 6.31058C19.3425 6.46814 18.5965 7.34176 18.5427 8.41117C18.5049 9.17216 18.6237 9.8775 19.1978 10.4347C19.4569 10.6894 19.773 10.8771 20.1193 10.9819C20.4656 11.0867 20.8319 11.1055 21.1869 11.0365C21.542 10.9676 21.8752 10.813 22.1584 10.586C22.4416 10.359 22.6663 10.0663 22.8134 9.73267C22.8486 9.65222 22.8798 9.57109 22.9262 9.46784C23.2515 9.54762 23.5694 9.62205 23.886 9.70384C24.2026 9.78564 24.5199 9.87549 24.8352 9.96198C24.5033 11.8105 22.5844 13.1394 20.465 13.0073C18.323 12.8732 16.6012 11.1299 16.495 8.98778C16.3788 6.64514 17.8411 4.73899 20.0302 4.37961C22.2293 4.0189 24.2737 5.25123 24.8465 7.31428L22.8565 7.88753Z" fill="white"/>
<path id="Vector_7" d="M67.4325 10.7079C67.6267 11.2655 67.8128 11.7998 67.9976 12.334C68.0011 12.3562 68.0011 12.3788 67.9976 12.4009C66.8071 13.2378 64.8295 13.2204 63.7608 12.3527C62.9818 11.7208 62.7652 10.8431 62.7456 9.9065C62.7219 8.88155 62.7395 7.85593 62.7388 6.8303V6.41456H61.0068V4.70341H62.7401V1.92914H64.8538V4.69069H67.5184V6.39314H64.8674C64.8674 7.14495 64.8674 7.85526 64.8674 8.56489C64.8674 8.95519 64.8626 9.34549 64.8748 9.73512C64.9086 10.7802 65.5232 11.2421 66.558 10.993C66.849 10.9228 67.1292 10.8083 67.4325 10.7079Z" fill="white"/>
<path id="Vector_8" d="M6.52991 10.6625C6.72269 11.2344 6.91503 11.8043 7.10693 12.3722C5.80331 13.3368 3.62485 13.1982 2.61041 12.0876C2.18299 11.6235 1.93201 11.0198 1.90243 10.3847C1.85058 9.41938 1.85656 8.45067 1.84193 7.48331C1.83595 7.08988 1.84193 6.69644 1.84193 6.2665H0.113525V4.50146H1.81534C1.88182 4.13574 1.75418 3.73623 2.12114 3.45298C2.41563 3.22584 2.64099 2.90677 2.91222 2.61136C3.2446 2.98181 3.60159 3.31237 3.87015 3.7031C3.99646 3.88765 3.9579 4.18982 3.99912 4.47713H6.60104V6.25231H3.99247C3.99247 7.4975 3.94328 8.71228 4.00909 9.9203C4.05496 10.7592 4.66921 11.1486 5.48821 10.9755C5.83123 10.9025 6.16295 10.7748 6.52991 10.6625Z" fill="white"/>
<path id="Vector_9" d="M1.81934 2.95253V0.0528259H4.03676V2.91929C3.74716 2.62872 3.49518 2.3807 3.24817 2.1287C2.95999 1.83414 2.90959 1.83015 2.61289 2.1287C2.36021 2.38735 2.1139 2.64667 1.81934 2.95253Z" fill="white"/>
</g>
</svg>
