<svg width="33" height="32" viewBox="0 0 33 32" fill="none" xmlns="http://www.w3.org/2000/svg">
<g id="Group 1549">
<g id="Group 1554">
<circle id="Ellipse 21" cx="16.3711" cy="16" r="16" fill="white"/>
<path id="Vector" d="M16.3719 12.4401C14.33 12.4401 12.6746 14.0954 12.6746 16.1375C12.6746 18.1796 14.33 19.8347 16.3719 19.8347C18.414 19.8347 20.0692 18.1796 20.0692 16.1375C20.0692 14.0954 18.414 12.4401 16.3719 12.4401ZM16.3719 18.5375C15.0464 18.5375 13.972 17.4631 13.972 16.1375C13.972 14.812 15.0464 13.7375 16.3719 13.7375C17.6975 13.7375 18.772 14.812 18.772 16.1375C18.772 17.4631 17.6975 18.5375 16.3719 18.5375ZM21.0793 12.2941C21.0793 12.7711 20.6925 13.1582 20.2153 13.1582C19.7381 13.1582 19.3513 12.7712 19.3513 12.2941C19.3513 11.8169 19.7381 11.4301 20.2153 11.4301C20.6925 11.4301 21.0793 11.8169 21.0793 12.2941ZM23.194 11.4212C23.0098 10.9477 22.7638 10.5463 22.3636 10.1459C21.9633 9.74566 21.5616 9.49934 21.0884 9.3155C20.6303 9.13742 20.1069 9.01566 19.3406 8.98094C18.5726 8.9459 18.3275 8.9375 16.3719 8.9375C14.4165 8.9375 14.1715 8.9459 13.4034 8.98094C12.637 9.01566 12.1137 9.13742 11.6556 9.3155C11.1821 9.49942 10.7808 9.74566 10.3805 10.1459C9.98004 10.5463 9.73387 10.9477 9.55011 11.4212C9.37195 11.8793 9.2502 12.4026 9.21548 13.1689C9.18027 13.9369 9.17188 14.182 9.17188 16.1375C9.17188 18.093 9.18027 18.338 9.21548 19.1061C9.2502 19.8725 9.37195 20.3957 9.55011 20.8536C9.73387 21.3272 9.98004 21.7287 10.3805 22.1289C10.7808 22.5293 11.1821 22.7753 11.6556 22.9595C12.1136 23.1376 12.6369 23.2592 13.4034 23.2941C14.1715 23.3291 14.4165 23.3375 16.3719 23.3375C18.3275 23.3375 18.5726 23.3291 19.3405 23.2941C20.1068 23.2592 20.6302 23.1376 21.0884 22.9595C21.5616 22.7753 21.9632 22.5293 22.3635 22.1289C22.7637 21.7287 23.0098 21.3272 23.1939 20.8536C23.3718 20.3957 23.4937 19.8725 23.5285 19.1061C23.5637 18.338 23.5719 18.093 23.5719 16.1375C23.5719 14.182 23.5637 13.9369 23.5287 13.1689C23.4938 12.4026 23.372 11.8793 23.194 11.4212ZM22.2328 19.0469C22.2007 19.7489 22.0834 20.1302 21.9848 20.3838C21.854 20.72 21.6983 20.9597 21.4462 21.2116C21.1942 21.4636 20.9544 21.6195 20.6183 21.7503C20.3645 21.849 19.9832 21.9661 19.2814 21.998C18.5222 22.0329 18.2945 22.0401 16.3718 22.0401C14.4494 22.0401 14.2216 22.0329 13.4625 21.998C12.7605 21.9661 12.3793 21.849 12.1257 21.7503C11.7895 21.6195 11.5498 21.4636 11.2978 21.2116C11.0458 20.9597 10.8897 20.72 10.7591 20.3838C10.6605 20.1302 10.5433 19.7489 10.5112 19.0469C10.4766 18.2877 10.4692 18.0598 10.4692 16.1375C10.4692 14.2149 10.4766 13.9873 10.5112 13.228C10.5433 12.5261 10.6605 12.1449 10.7591 11.8912C10.8898 11.555 11.0458 11.3152 11.2978 11.0633C11.5499 10.8113 11.7895 10.6552 12.1258 10.5247C12.3794 10.4261 12.7606 10.3088 13.4626 10.2767C14.2217 10.2421 14.4495 10.2348 16.3719 10.2348C18.2944 10.2348 18.522 10.2421 19.2815 10.2768C19.9832 10.3089 20.3646 10.4261 20.6184 10.5248C20.9545 10.6553 21.1943 10.8114 21.4463 11.0633C21.6983 11.3153 21.8541 11.5551 21.9848 11.8913C22.0834 12.145 22.2008 12.5262 22.2328 13.2281C22.2674 13.9873 22.2745 14.2149 22.2745 16.1375C22.2745 18.0598 22.2674 18.2877 22.2328 19.0469Z" fill="#353836"/>
</g>
</g>
</svg>
