<svg width="91" height="25" viewBox="0 0 91 25" fill="none" xmlns="http://www.w3.org/2000/svg">
<rect width="91" height="25" fill="#E6E6E6"/>
<g clip-path="url(#clip0_0_1)">
<rect width="390" height="6037" transform="translate(-60 -310)" fill="white"/>
<g filter="url(#filter0_d_0_1)">
<rect width="390" height="423" transform="translate(-60 -310)" fill="url(#paint0_linear_0_1)"/>
</g>
<g clip-path="url(#clip1_0_1)">
<mask id="mask0_0_1" style="mask-type:luminance" maskUnits="userSpaceOnUse" x="0" y="0" width="91" height="25">
<path d="M90.0765 0H0V24.8169H90.0765V0Z" fill="white"/>
</mask>
<g mask="url(#mask0_0_1)">
<path d="M10.9168 13.4055C10.6194 13.4055 10.3313 13.3016 10.1015 13.1114C9.87165 12.9213 9.71438 12.6567 9.65647 12.3627C9.59856 12.0688 9.6436 11.7638 9.78386 11.4995C9.92416 11.2353 10.151 11.0283 10.4258 10.9138C10.7005 10.7992 11.0062 10.7843 11.2907 10.8715C11.5752 10.9587 11.8208 11.1426 11.9858 11.3919C12.1508 11.6412 12.2249 11.9405 12.1955 12.2386C12.1661 12.5368 12.035 12.8155 11.8245 13.0272C11.7054 13.1474 11.5639 13.2427 11.4081 13.3077C11.2523 13.3726 11.0853 13.4059 10.9168 13.4055ZM5.89892 9.55927C6.02352 9.48661 6.11929 9.37269 6.1699 9.23686C6.22051 9.10105 6.22286 8.95176 6.17649 8.8144C6.13015 8.67707 6.03797 8.56016 5.91571 8.48359C5.79343 8.40705 5.64859 8.37559 5.50589 8.39458C5.36316 8.41356 5.23141 8.48183 5.13304 8.58776C5.03466 8.69367 4.97577 8.83067 4.96637 8.97544C4.95699 9.12022 4.99769 9.26377 5.08153 9.38169C5.16537 9.49962 5.28722 9.58459 5.42624 9.62215C5.58588 9.66505 5.75584 9.64245 5.89892 9.55927ZM15.7033 9.32706C15.7751 9.45279 15.888 9.54955 16.0226 9.60083C16.1573 9.65211 16.3054 9.65474 16.4418 9.6083C16.5782 9.56184 16.6943 9.46918 16.7705 9.34608C16.8467 9.22298 16.8782 9.0771 16.8596 8.93322C16.8411 8.78935 16.7736 8.65641 16.6687 8.55708C16.5638 8.45773 16.4279 8.39811 16.2843 8.38836C16.1407 8.37864 15.9981 8.4194 15.881 8.50368C15.7638 8.58797 15.6793 8.71062 15.6418 8.85067C15.6205 8.93026 15.6149 9.0133 15.6255 9.09504C15.636 9.17679 15.6625 9.25563 15.7033 9.32706ZM10.6056 17.7671C10.5344 17.808 10.4721 17.8628 10.4222 17.9282C10.3722 17.9936 10.3356 18.0684 10.3146 18.1482C10.277 18.2887 10.2889 18.4381 10.3483 18.5707C10.4077 18.7034 10.5109 18.8113 10.6403 18.8758C10.7697 18.9404 10.9174 18.9577 11.0581 18.9249C11.1988 18.892 11.3238 18.811 11.4119 18.6957C11.4999 18.5803 11.5456 18.4377 11.541 18.2923C11.5365 18.1468 11.482 18.0074 11.3869 17.8979C11.2918 17.7883 11.1619 17.7154 11.0195 17.6916C10.877 17.6677 10.7307 17.6944 10.6056 17.7671ZM21.8335 5.76013V16.2602C21.8328 16.9301 21.6575 17.5881 21.3252 18.1683C20.9929 18.7485 20.5152 19.2306 19.94 19.5663L15.4279 22.1915L10.9168 24.8168L6.40558 22.1915L1.8935 19.5663C1.31826 19.2306 0.840588 18.7485 0.508287 18.1683C0.175985 17.5881 0.00070965 16.9301 0 16.2602V5.76013L4.51115 3.13487L9.02326 0.50963C9.5993 0.175727 10.2522 0 10.9168 0C11.5813 0 12.2342 0.175727 12.8102 0.50963L17.3223 3.13487L21.8335 5.76013ZM15.1498 2.3893C15.8194 3.06251 16.405 3.81548 16.8937 4.6316C17.4592 5.57553 17.8559 6.61219 18.0658 7.69438L19.616 6.79249L21.1671 5.88963L18.1576 4.13947L15.1498 2.3893ZM4.68097 3.55577C6.18714 3.15523 8.13019 2.93137 10.1393 3.49101C12.1485 4.05067 14.2265 5.39473 15.9896 8.1273C15.9547 8.13777 15.9199 8.14982 15.885 8.16336C15.8504 8.17766 15.8167 8.19401 15.784 8.2124C15.717 8.25133 15.6553 8.2989 15.6005 8.35394C15.5479 8.40758 15.5018 8.46721 15.4628 8.53155C15.2479 8.41339 15.0169 8.32796 14.7772 8.27809C14.4994 8.2202 14.2164 8.19201 13.9328 8.19389C13.8758 8.19389 13.8171 8.19389 13.7574 8.19945L13.5739 8.21054C13.6958 8.52665 13.7991 8.84974 13.8832 9.17813C13.9746 9.53358 14.0475 9.89361 14.1016 10.2567C14.387 10.4858 14.6603 10.7297 14.9203 10.9875C15.1607 11.2257 15.3872 11.4777 15.5986 11.7423C15.7964 11.4503 15.96 11.1362 16.086 10.8062C16.1933 10.5285 16.2532 10.2345 16.2631 9.93666C16.3379 9.93499 16.4122 9.92413 16.4843 9.90428C16.559 9.88287 16.6306 9.85178 16.6973 9.8118C16.724 9.79688 16.7498 9.7802 16.7744 9.76184C16.7989 9.74429 16.8225 9.72545 16.8451 9.70542C17.1524 10.4694 17.3101 11.2861 17.3095 12.1105C17.3095 12.142 17.3095 12.1734 17.3095 12.203V12.2955C17.4664 11.7909 17.5855 11.2752 17.6656 10.7525C17.742 10.2537 17.777 9.7494 17.7702 9.24475C17.7596 8.49352 17.6503 7.74701 17.4453 7.02466C17.2349 6.28652 16.9327 5.57816 16.5458 4.91651C15.975 3.94961 15.2658 3.07283 14.4412 2.31437C13.9085 1.8198 13.3335 1.37345 12.723 0.980471L12.5872 0.898145C12.0788 0.603617 11.5027 0.448619 10.9163 0.448619C10.3299 0.448619 9.75375 0.603617 9.24537 0.898145L6.96178 2.22742L4.68097 3.55577ZM5.73738 15.0604C5.74382 15.0734 5.75115 15.0863 5.75851 15.0984L5.78052 15.1363C5.97567 15.4451 6.26582 15.681 6.60657 15.8079C7.0201 15.9651 7.45983 16.0405 7.90166 16.0299C7.95856 16.0299 8.0173 16.0299 8.07696 16.0299L8.26052 16.0188C8.13843 15.7024 8.03516 15.379 7.95121 15.0502C7.85769 14.6937 7.78293 14.3325 7.72728 13.968C7.44212 13.7387 7.16885 13.4948 6.90855 13.2372C6.66813 12.9987 6.44168 12.7464 6.23028 12.4814C5.93702 12.9018 5.72668 13.3751 5.61074 13.8755C5.51895 14.3149 5.5584 14.7182 5.73738 15.0604ZM5.95585 12.1124C5.77153 11.8491 5.60973 11.5706 5.47213 11.2798C5.35106 11.0211 5.25874 10.7496 5.19679 10.4704C5.12236 10.7342 5.06563 11.0028 5.02698 11.2743C4.91009 12.1047 4.96794 12.9507 5.19679 13.7571C5.25874 13.4782 5.35109 13.207 5.47213 12.9486C5.60952 12.6577 5.77135 12.3791 5.95585 12.1161M7.59143 12.1161C7.59143 11.907 7.59662 11.7013 7.60704 11.499C7.6162 11.2955 7.63089 11.0957 7.64925 10.8996C7.42438 11.0976 7.21419 11.2993 7.02144 11.5028C6.83581 11.6979 6.66027 11.9027 6.49553 12.1161C6.66051 12.3292 6.83605 12.5339 7.02144 12.7293C7.21419 12.9329 7.42438 13.1345 7.64925 13.3325C7.63089 13.1354 7.6162 12.9356 7.60704 12.733C7.59784 12.5305 7.59143 12.3242 7.59143 12.1161ZM6.65339 16.2907C7.0339 16.6853 7.46624 17.0255 7.93836 17.3018C8.41725 17.5825 8.93292 17.7939 9.47022 17.9299C9.26142 17.7357 9.07485 17.5185 8.91402 17.2824C8.73243 17.0163 8.57338 16.7354 8.43858 16.4424C8.34682 16.4517 8.25503 16.4572 8.16324 16.4619C8.07145 16.4665 7.98517 16.4683 7.89798 16.4683C7.67661 16.4688 7.4555 16.4537 7.23623 16.423C7.03832 16.3945 6.84308 16.3496 6.65247 16.2889M8.70383 15.9651C8.96968 15.9283 9.23345 15.8777 9.4941 15.8134C9.76577 15.7468 10.0436 15.6645 10.3275 15.5664C10.1439 15.4838 9.96403 15.3965 9.78781 15.3046C9.60423 15.2122 9.42984 15.115 9.25362 15.0123C9.0774 14.9097 8.90302 14.8005 8.73139 14.6932C8.55974 14.5859 8.39728 14.4703 8.23758 14.3556C8.2954 14.6506 8.36331 14.9337 8.44134 15.2029C8.51592 15.462 8.60385 15.7171 8.70475 15.967M10.9168 15.3454C11.1554 15.2464 11.3959 15.1391 11.6373 15.0206C11.8786 14.9022 12.12 14.7737 12.3614 14.6331C12.6028 14.4925 12.8341 14.3472 13.0572 14.1965C13.2802 14.0457 13.494 13.8894 13.6996 13.7339C13.7345 13.4768 13.7611 13.2122 13.7795 12.9421C13.7978 12.672 13.807 12.3963 13.807 12.1161C13.807 11.8358 13.7978 11.561 13.7795 11.2891C13.7611 11.0171 13.7345 10.7553 13.6996 10.4973C13.4959 10.3381 13.2817 10.184 13.0572 10.0347C12.8326 9.88547 12.6007 9.73962 12.3614 9.59718C12.12 9.45749 11.8777 9.32892 11.6373 9.21052C11.3968 9.09211 11.1554 8.98387 10.9168 8.88583C10.6781 8.98387 10.4379 9.09211 10.1962 9.21052C9.95578 9.32892 9.71346 9.45749 9.47298 9.59718C9.23253 9.73687 8.99937 9.88395 8.77637 10.0347C8.55333 10.1855 8.33946 10.3409 8.13387 10.4973C8.09898 10.7553 8.07237 11.0199 8.054 11.2891C8.03567 11.5582 8.02647 11.8358 8.02647 12.1161C8.02647 12.3963 8.03567 12.6711 8.054 12.9421C8.07237 13.2131 8.09898 13.4768 8.13387 13.7339C8.33762 13.893 8.55149 14.0494 8.77637 14.1965C9.00121 14.3435 9.23526 14.4934 9.47298 14.6331C9.7107 14.7727 9.95578 14.9022 10.1962 15.0206C10.4367 15.1391 10.6781 15.2464 10.9168 15.3454ZM13.4004 7.77948C13.4922 7.77117 13.584 7.76468 13.6758 7.76097C13.7675 7.75729 13.8593 7.75451 13.9419 7.75451C14.163 7.75403 14.3838 7.76919 14.6028 7.79984C14.8008 7.82792 14.996 7.8728 15.1865 7.93397C14.8058 7.53935 14.3735 7.19891 13.9015 6.92198C13.4226 6.64158 12.907 6.43046 12.3697 6.2948C12.5785 6.48903 12.7651 6.70622 12.9259 6.94231C13.1073 7.20735 13.266 7.48742 13.4004 7.77948ZM13.1251 8.2568C12.8592 8.29394 12.5954 8.34488 12.3348 8.40944C12.0595 8.47603 11.7841 8.55837 11.5023 8.65641C11.6822 8.73843 11.8618 8.8257 12.0411 8.91821C12.2247 9.01069 12.399 9.1032 12.5753 9.21052C12.7515 9.31783 12.9296 9.42143 13.0985 9.53149C13.2673 9.64158 13.4325 9.7535 13.5922 9.86822C13.5344 9.57407 13.4665 9.291 13.3885 9.02182C13.3139 8.76238 13.226 8.50703 13.1251 8.2568ZM10.9168 6.11442C10.5221 6.11442 10.1458 6.27908 9.80341 6.57694C9.41759 6.93215 9.10561 7.361 8.88557 7.83868C9.22149 7.89172 9.554 7.96462 9.88144 8.05701C10.2306 8.15571 10.5746 8.27211 10.9122 8.40573C11.2497 8.27211 11.5937 8.15571 11.9429 8.05701C12.2712 7.9645 12.6047 7.8916 12.9415 7.83868C12.7214 7.361 12.4095 6.93215 12.0237 6.57694C11.6813 6.27908 11.305 6.11442 10.9103 6.11442M9.46105 6.29944C8.39215 6.57197 7.41924 7.13813 6.65063 7.9349C6.84165 7.8733 7.03758 7.82842 7.23623 7.80077C7.45573 7.76931 7.6772 7.75386 7.8989 7.75451C7.99069 7.75451 8.07512 7.75451 8.16508 7.76097C8.25503 7.76746 8.34863 7.77117 8.44042 7.77948C8.57386 7.48598 8.73169 7.20439 8.91218 6.93771C9.07268 6.70162 9.25896 6.48443 9.46749 6.29017M8.23758 9.86266C8.39728 9.74796 8.56187 9.63572 8.73139 9.52596C8.90118 9.41587 9.07464 9.30856 9.25454 9.20495C9.43444 9.10135 9.60975 9.00424 9.78873 8.91265C9.96771 8.82107 10.1476 8.73319 10.3284 8.65088C10.0445 8.55281 9.76669 8.47049 9.49502 8.40388C9.2344 8.33932 8.97063 8.28837 8.70475 8.25124C8.60462 8.50335 8.51761 8.76055 8.44409 9.02182C8.36607 9.291 8.29816 9.57682 8.24034 9.86822M11.5078 15.5683C11.7918 15.6663 12.0695 15.7487 12.3412 15.8153C12.6019 15.8795 12.8657 15.9302 13.1315 15.967C13.2324 15.7171 13.3203 15.462 13.3949 15.2029C13.4729 14.9337 13.5408 14.6479 13.5987 14.3556C13.439 14.4703 13.2738 14.5831 13.1049 14.6932C12.936 14.8033 12.7607 14.9097 12.5817 15.0142C12.4027 15.1187 12.2265 15.214 12.0475 15.3065C11.8685 15.399 11.6886 15.4859 11.5078 15.5683ZM12.3688 17.929C13.4404 17.6565 14.4157 17.0889 15.1856 16.2898C14.9944 16.3506 14.7985 16.3954 14.6 16.4239C14.3805 16.4554 14.1591 16.4708 13.9373 16.4702C13.8502 16.4702 13.7611 16.4702 13.6712 16.4637C13.5812 16.4572 13.4876 16.4535 13.3958 16.4443C13.2617 16.7368 13.103 17.0172 12.9213 17.2824C12.7605 17.5182 12.5742 17.7354 12.366 17.9299M16.0566 15.1326C16.064 15.1206 16.0704 15.1086 16.0768 15.0965L16.097 15.0604C16.2751 14.7182 16.3109 14.3149 16.2228 13.8764C16.1065 13.3758 15.8962 12.9023 15.6032 12.4814C15.3921 12.7466 15.1656 12.9989 14.9249 13.2372C14.6646 13.4948 14.3914 13.7387 14.1062 13.968C14.0522 14.3308 13.9793 14.6905 13.8878 15.0456C13.8038 15.3744 13.7005 15.6978 13.5785 16.0142L13.762 16.0253C13.8217 16.0253 13.8804 16.0253 13.9373 16.0253C14.3801 16.037 14.821 15.9629 15.2361 15.807C15.5773 15.679 15.8675 15.4418 16.0621 15.1317M14.2476 12.1124C14.2476 12.3205 14.2421 12.5268 14.2329 12.7293C14.2237 12.9319 14.2081 13.1317 14.1898 13.3288C14.4146 13.1308 14.6248 12.9292 14.8175 12.7257C15.003 12.5302 15.1785 12.3255 15.3435 12.1124C15.1787 11.899 15.0032 11.6943 14.8175 11.499C14.6248 11.2955 14.4146 11.0939 14.1898 10.8959C14.2081 11.0921 14.2225 11.2918 14.2329 11.4953C14.2421 11.6979 14.2476 11.9033 14.2476 12.1124ZM16.645 13.7561C16.8737 12.9497 16.9316 12.1038 16.8148 11.2733C16.7763 11.0018 16.7196 10.7333 16.645 10.4695C16.5829 10.7484 16.4905 11.0195 16.3696 11.278C16.2317 11.5686 16.0699 11.8471 15.8859 12.1105C16.0702 12.3737 16.232 12.6522 16.3696 12.943C16.4907 13.2018 16.583 13.4732 16.645 13.7524M0.67461 5.88963L2.29459 6.83411L3.9155 7.77948C4.77306 7.11684 5.73783 6.6086 6.76722 6.27722C7.89522 5.90721 9.21141 5.68335 10.746 5.66762H10.8314H10.9168C12.1056 5.66625 13.271 6.00083 14.2806 6.63336C13.9244 6.24379 13.5396 5.88171 13.1297 5.55015C12.7389 5.23354 12.3226 4.95042 11.8851 4.70374C11.242 4.34196 10.5549 4.06613 9.84103 3.88323C9.11128 3.698 8.36141 3.6054 7.60888 3.60759H7.55378C6.43741 3.62185 5.32922 3.80232 4.26518 4.14318C3.57207 4.36031 2.89943 4.63889 2.25512 4.97571L2.20281 4.99512L1.43458 5.44191L0.67461 5.88963ZM0.446069 13.2788C0.689808 12.3586 1.04395 11.4717 1.50066 10.6378C2.02936 9.67262 2.72214 8.80845 3.54745 8.08476L1.9963 7.1819L0.446069 6.27815V13.2788ZM6.68736 21.8345C5.58596 20.7244 4.4258 19.1371 3.90173 17.1038C3.37763 15.0706 3.48779 12.5887 4.95631 9.68042C5.01193 9.73373 5.07355 9.78029 5.13989 9.81919C5.2067 9.85961 5.27864 9.89074 5.35373 9.9117C5.38906 9.92129 5.4249 9.92871 5.46112 9.93388C5.49785 9.93388 5.53363 9.9413 5.56944 9.94222C5.57932 10.2395 5.63954 10.533 5.7475 10.8099C5.87356 11.1394 6.03676 11.4532 6.23395 11.7451C6.44536 11.4805 6.67184 11.2285 6.91223 10.9903C7.17229 10.7325 7.44556 10.4886 7.73093 10.2595C7.78504 9.89639 7.85796 9.53636 7.9494 9.18091C8.03344 8.85252 8.13674 8.52943 8.25871 8.21333L8.07513 8.20223C8.01546 8.20223 7.95672 8.19667 7.89982 8.19667C7.61591 8.19479 7.33256 8.22298 7.05449 8.28084C6.81481 8.33125 6.58379 8.41697 6.36888 8.53523C6.31337 8.44376 6.2422 8.36297 6.15869 8.29657C6.07615 8.23079 5.983 8.17978 5.88332 8.14581C6.42697 7.4434 7.10839 6.86146 7.88514 6.43632C7.37255 6.55215 6.86939 6.70676 6.37989 6.89884C5.91254 7.0812 5.46121 7.30276 5.03065 7.56118C4.391 7.94608 3.80463 8.41449 3.28676 8.95427C2.75888 9.50733 2.30218 10.1252 1.92746 10.7933C1.38197 11.7752 0.983011 12.8328 0.743446 13.9319C0.582968 14.6449 0.4856 15.3708 0.452492 16.1011C0.452492 16.115 0.452492 16.2602 0.452492 16.2602C0.453429 16.8513 0.608182 17.4318 0.901302 17.9437C1.19442 18.4557 1.61566 18.8812 2.12296 19.1778L4.40655 20.5061L6.68736 21.8345ZM10.6974 20.3896C9.67911 19.9636 8.74305 19.3605 7.93195 18.6079C7.03339 17.7856 6.17061 16.7153 5.38037 15.3361C4.81711 14.357 4.52133 13.245 4.52311 12.1133V12.0208C4.52311 11.9893 4.52311 11.9579 4.52311 11.9283C4.36688 12.433 4.24815 12.9487 4.1679 13.4712C4.09151 13.97 4.05651 14.4744 4.06327 14.979C4.07407 15.7302 4.18301 16.4767 4.38726 17.1991C4.59879 17.937 4.90128 18.6453 5.28766 19.3073C5.85852 20.2744 6.56804 21.1512 7.39317 21.9094C7.92525 22.4065 8.50025 22.8547 9.11137 23.2488L9.13982 23.2673L9.16002 23.2812L9.92733 23.728L10.6946 24.1739V20.3896H10.6974ZM17.158 20.6671C16.6999 20.7901 16.2349 20.8862 15.7657 20.9548C15.2507 21.0301 14.7312 21.0684 14.2109 21.0695C13.7059 21.07 13.2017 21.0307 12.7029 20.952C12.1721 20.8691 11.6498 20.7378 11.1425 20.5598V24.1674L14.1503 22.4172L17.158 20.6671ZM21.3856 10.9449C20.9771 12.4602 20.1979 14.2686 18.7128 15.7422C17.2278 17.2158 15.036 18.3554 11.8034 18.533C11.8306 18.4223 11.8374 18.3076 11.8236 18.1945C11.8086 18.0814 11.7735 17.972 11.7199 17.8716C11.9714 17.7143 12.1943 17.5147 12.3788 17.2815C12.5995 17.0056 12.788 16.7052 12.9406 16.386C12.6046 16.3327 12.2721 16.2595 11.9447 16.1668C11.5963 16.0684 11.2532 15.952 10.9168 15.818C10.5793 15.9518 10.2353 16.0679 9.88601 16.1658C9.5586 16.2585 9.22609 16.3317 8.89017 16.3851C9.04331 16.7045 9.23208 17.0052 9.45281 17.2815C9.63766 17.5144 9.86049 17.714 10.1118 17.8716C10.0617 17.9659 10.0281 18.0682 10.0127 18.1741C9.99693 18.2808 10 18.3895 10.0219 18.4951C9.14531 18.3713 8.30421 18.0638 7.55287 17.5923C7.90905 17.9828 8.29377 18.3458 8.70383 18.6783C9.09472 18.9946 9.51104 19.2778 9.94843 19.5247C10.601 19.8911 11.2988 20.1689 12.0237 20.3507C12.763 20.5354 13.5226 20.6255 14.2843 20.619C15.4007 20.6043 16.5089 20.4235 17.5729 20.0824C18.2661 19.8656 18.9388 19.587 19.5829 19.2499L19.7215 19.1731C20.2267 18.8759 20.6461 18.4507 20.9379 17.9397C21.2298 17.4288 21.3841 16.8498 21.3856 16.2602V10.9449ZM21.3856 6.27815L19.7647 7.22355L18.141 8.168C18.2824 9.26927 18.2312 10.387 17.9896 11.4704C17.7317 12.6655 17.2434 13.9541 16.4531 15.3333C15.8592 16.3682 14.9934 17.2177 13.9511 17.7884C14.4642 17.6721 14.9679 17.5175 15.4582 17.3259C15.925 17.1426 16.376 16.9208 16.8065 16.6626C17.4464 16.278 18.0328 15.8096 18.5504 15.2695C19.0796 14.7169 19.5372 14.099 19.9125 13.4305C20.4581 12.4488 20.8568 11.3911 21.0956 10.2919C21.2553 9.57912 21.3524 8.85354 21.3856 8.1236C21.3856 8.10972 21.3856 8.07181 21.3856 8.06532V6.27815Z" fill="white"/>
<path d="M26.5771 7.34035H27.327L27.3931 7.73625H27.416C27.6767 7.48279 27.9897 7.2645 28.4119 7.2645C29.0865 7.2645 29.3738 7.7446 29.3738 8.52531V10.4679H28.4532V8.64371C28.4532 8.19417 28.3338 8.05355 28.0677 8.05355C27.8373 8.05355 27.696 8.16179 27.494 8.35698V10.466H26.5762L26.5771 7.34035Z" fill="white"/>
<path d="M30.1519 7.34035H30.9018L30.9677 7.73625H30.9908C31.2513 7.48279 31.5643 7.2645 31.9865 7.2645C32.6611 7.2645 32.9495 7.7446 32.9495 8.52531V10.4679H32.0325V8.64371C32.0325 8.19417 31.9132 8.05355 31.648 8.05355C31.4166 8.05355 31.2807 8.16179 31.0733 8.35698V10.466H30.1554L30.1519 7.34035Z" fill="white"/>
<path d="M33.5474 8.90366C33.5474 7.86485 34.2733 7.2645 35.058 7.2645C35.8427 7.2645 36.5687 7.863 36.5687 8.90366C36.5687 9.94433 35.8427 10.5456 35.0619 10.5456C34.2807 10.5456 33.5509 9.94525 33.5509 8.9083M35.6309 8.9083C35.6309 8.36807 35.4416 8.01657 35.0619 8.01657C34.6818 8.01657 34.4926 8.36807 34.4926 8.9083C34.4926 9.4485 34.6818 9.79818 35.0619 9.79818C35.4416 9.79818 35.6309 9.44943 35.6309 8.9083Z" fill="white"/>
<path d="M36.8171 7.34033H37.7404L38.1433 8.82037C38.2234 9.13025 38.3049 9.45404 38.3839 9.78057H38.4097C38.4886 9.45404 38.5702 9.13303 38.65 8.82037L39.0529 7.34033H39.9331L38.9235 10.466H37.8617L36.8171 7.34033Z" fill="white"/>
<path d="M40.1479 9.59836C40.1479 8.94065 40.6674 8.58084 41.8918 8.45316C41.8737 8.1803 41.7387 8.00177 41.4017 8.00177C41.1421 8.00177 40.8822 8.11183 40.5814 8.27927L40.2562 7.67798C40.6502 7.41932 41.108 7.27616 41.5779 7.2645C42.3709 7.2645 42.8106 7.72145 42.8106 8.67888V10.4651H42.0609L41.9947 10.1451H41.9719C41.7111 10.3763 41.421 10.541 41.0694 10.541C40.5042 10.541 40.1453 10.1256 40.1453 9.59836M41.8891 9.55766V9.0119C41.2364 9.10438 41.0228 9.2894 41.0228 9.52528C41.0228 9.72696 41.1605 9.825 41.3788 9.825C41.5972 9.825 41.7268 9.72139 41.8891 9.55766Z" fill="white"/>
<path d="M43.3098 10.1044L43.724 9.52806C44.0046 9.74176 44.2636 9.85645 44.5232 9.85645C44.7985 9.85645 44.9151 9.75099 44.9151 9.58726C44.9151 9.38191 44.6077 9.28847 44.2882 9.16176C43.9082 9.01375 43.4676 8.75937 43.4676 8.24318C43.4676 7.66133 43.9376 7.2645 44.6528 7.2645C45.051 7.26823 45.4363 7.40778 45.7458 7.6604L45.3346 8.21543C45.1136 8.05448 44.8958 7.94902 44.6822 7.94902C44.4443 7.94902 44.3277 8.04153 44.3277 8.19878C44.3277 8.39767 44.6178 8.47631 44.9391 8.59193C45.3319 8.73808 45.7742 8.96194 45.7742 9.53177C45.7742 10.1016 45.3319 10.5456 44.5003 10.5456C44.0663 10.5337 43.6477 10.3805 43.3071 10.109" fill="white"/>
<path d="M47.985 11.6242L48.1484 10.9184C48.2161 10.9399 48.2858 10.9535 48.3567 10.9591C48.6605 10.9591 48.8157 10.7907 48.8999 10.5483L48.9459 10.3855L47.7527 7.34033H48.6762L49.1194 8.68532C49.2111 8.96838 49.2829 9.26439 49.3645 9.57059H49.3891C49.4579 9.27551 49.528 8.97857 49.6048 8.68532L49.9813 7.34033H50.8606L49.781 10.4993C49.4864 11.2828 49.1562 11.688 48.4264 11.688C48.2769 11.6903 48.128 11.6687 47.985 11.6242Z" fill="white"/>
<path d="M51.0679 9.59836C51.0679 8.94065 51.5873 8.58084 52.8117 8.45316C52.7933 8.1803 52.6586 8.00177 52.3216 8.00177C52.062 8.00177 51.8021 8.11183 51.501 8.27927L51.1762 7.67798C51.571 7.41884 52.0297 7.27565 52.5005 7.2645C53.2935 7.2645 53.7332 7.72145 53.7332 8.67888V10.4651H52.9835L52.9173 10.1451H52.8945C52.6337 10.3763 52.3436 10.541 51.992 10.541C51.4268 10.541 51.0679 10.1256 51.0679 9.59836ZM52.8117 9.55766V9.0119C52.1593 9.10438 51.9454 9.2894 51.9454 9.52528C51.9454 9.72696 52.0831 9.825 52.3014 9.825C52.5198 9.825 52.6494 9.72139 52.8117 9.55766Z" fill="white"/>
<path d="M55.4243 7.34033H56.3479L56.7516 8.82037C56.8305 9.13025 56.9121 9.45404 56.9919 9.78057H57.0168C57.0967 9.45404 57.1773 9.13303 57.2571 8.82037L57.6612 7.34033H58.5406L57.5307 10.466H56.4698L55.4243 7.34033Z" fill="white"/>
<path d="M58.846 9.02952C58.8451 8.89165 58.8579 8.75405 58.8846 8.61881H60.7393C60.667 8.17663 60.4136 7.97127 60.0261 7.97127C59.7847 7.97492 59.5494 8.0474 59.3471 8.18033L59.0433 7.5809C59.3845 7.36592 59.7808 7.25625 60.1831 7.26546C61.001 7.26546 61.6297 7.88433 61.6297 8.90277C61.6297 9.92125 60.9515 10.5456 60.1777 10.5456C59.2966 10.5456 58.846 9.89814 58.846 9.03415M60.7494 9.2358H59.6307C59.6307 9.59286 59.7876 9.83983 60.1567 9.83983C60.4587 9.83983 60.688 9.65484 60.7494 9.2358Z" fill="white"/>
<path d="M66.7734 10.4659L65.8555 8.82307C66.2904 8.6251 66.5814 8.24214 66.5814 7.63811C66.5814 6.66218 65.873 6.35971 65.009 6.35971H63.5405V10.4659H64.4584V8.98587H64.9643L65.7424 10.4659H66.7734ZM64.4584 7.09695H64.9292C65.414 7.09695 65.6736 7.23201 65.6736 7.63811C65.6736 8.04421 65.414 8.25141 64.9292 8.25141H64.4584V7.09695Z" fill="white"/>
<path d="M67.1148 9.0295C67.1142 8.89166 67.1272 8.75413 67.1533 8.6188H69.0081C68.9357 8.17664 68.6824 7.97126 68.2958 7.97126C68.0543 7.97476 67.8191 8.04726 67.6167 8.18032L67.3129 7.58092C67.6541 7.36582 68.0505 7.25614 68.4528 7.26547C69.2707 7.26547 69.8984 7.88431 69.8984 8.90279C69.8984 9.92123 69.2211 10.5456 68.4465 10.5456C67.5654 10.5456 67.1148 9.89812 67.1148 9.03414M69.0212 9.23118H67.8995C67.8995 9.58824 68.0573 9.83521 68.4263 9.83521C68.7275 9.83521 68.9568 9.65022 69.0182 9.23118" fill="white"/>
<path d="M72.3833 10.6723L72.4162 10.195C72.2097 10.405 71.932 10.5285 71.6389 10.541C70.8679 10.541 70.3704 9.92489 70.3704 8.90366C70.3704 7.88244 71.0038 7.2645 71.6555 7.2645C71.9923 7.2645 72.2373 7.38197 72.4815 7.64838H72.5091L72.5862 7.34035H73.3047V11.6251H72.3868L72.3833 10.6723ZM72.3833 9.5031V8.22006C72.2424 8.09009 72.0575 8.01926 71.8665 8.0221C71.5692 8.0221 71.3084 8.29963 71.3084 8.8935C71.3084 9.50677 71.5188 9.78338 71.8748 9.78338C71.9754 9.78433 72.0747 9.75934 72.1631 9.71078C72.2513 9.66219 72.326 9.59166 72.3797 9.50585" fill="white"/>
<path d="M73.9345 9.02874C73.9339 8.89087 73.9466 8.75327 73.973 8.61803H75.8281C75.7554 8.17584 75.5024 7.97049 75.1158 7.97049C74.8746 7.97393 74.6391 8.04608 74.4367 8.17863L74.1329 7.57922C74.4741 7.36421 74.8705 7.25457 75.2728 7.26378C76.0907 7.26378 76.7193 7.88262 76.7193 8.90109C76.7193 9.91954 76.0411 10.5449 75.2627 10.5449C74.3816 10.5449 73.9309 9.89736 73.9309 9.03337M75.8346 9.23502H74.7195C74.7195 9.59208 74.8764 9.83908 75.2452 9.83908C75.5472 9.83908 75.7768 9.65406 75.8382 9.23502" fill="white"/>
<path d="M77.3486 7.34035H78.0986L78.1648 7.74089H78.1876C78.4419 7.48279 78.7201 7.2645 79.1275 7.2645C79.5636 7.2645 79.827 7.44952 79.9831 7.79085C80.2584 7.50408 80.5473 7.2645 80.9568 7.2645C81.6269 7.2645 81.9269 7.7446 81.9269 8.52531V10.4679H81.009V8.64371C81.009 8.19417 80.887 8.05355 80.6263 8.05355C80.4702 8.05355 80.294 8.15159 80.0985 8.35698V10.466H79.1809V8.64371C79.1809 8.19417 79.0587 8.05355 78.7982 8.05355C78.6439 8.05355 78.4659 8.15159 78.2704 8.35698V10.466H77.3525L77.3486 7.34035Z" fill="white"/>
<path d="M82.4319 10.1044L82.8449 9.52806C83.1258 9.74176 83.3854 9.85645 83.6453 9.85645C83.9049 9.85645 84.0372 9.75099 84.0372 9.58726C84.0372 9.38191 83.7296 9.28847 83.4103 9.16176C83.0303 9.01375 82.5897 8.75937 82.5897 8.24318C82.5897 7.66133 83.0588 7.2645 83.7746 7.2645C84.1728 7.26823 84.5582 7.40778 84.8679 7.6604L84.4567 8.21543C84.2354 8.05448 84.0179 7.94902 83.8031 7.94902C83.5664 7.94902 83.4489 8.04153 83.4489 8.19878C83.4489 8.39767 83.7396 8.47631 84.0609 8.59193C84.4537 8.73808 84.8964 8.96194 84.8964 9.53177C84.8964 10.1016 84.4537 10.5456 83.6222 10.5456C83.1881 10.5337 82.7695 10.3805 82.429 10.109" fill="white"/>
<path d="M85.332 9.59824C85.332 8.94054 85.8515 8.58069 87.0759 8.45305C87.0575 8.18015 86.9219 8.00162 86.5858 8.00162C86.3253 8.00162 86.0654 8.11171 85.7643 8.27912L85.4412 7.67787C85.8358 7.41935 86.2941 7.27679 86.7647 7.2662C87.5577 7.2662 87.9973 7.72319 87.9973 8.68059V10.4668H87.2476L87.1815 10.1468H87.1586C86.8979 10.378 86.6077 10.5427 86.2565 10.5427C85.691 10.5427 85.332 10.1273 85.332 9.60007M87.0759 9.55937V9.01361C86.4223 9.10612 86.2096 9.29111 86.2096 9.52699C86.2096 9.72866 86.3463 9.82671 86.5647 9.82671C86.7831 9.82671 86.9127 9.7231 87.0759 9.55937Z" fill="white"/>
<path d="M88.7686 9.49483V6.0528H89.6865V9.52814C89.6865 9.72703 89.7781 9.78991 89.8526 9.78991C89.8903 9.79102 89.9279 9.78698 89.9644 9.77789L90.0748 10.4606C89.9282 10.5163 89.7722 10.5423 89.6159 10.5373C88.9851 10.5373 88.7694 10.1229 88.7694 9.49113" fill="white"/>
<path d="M24.7726 6.3596H25.6904V10.4658H24.7726V6.3596ZM24.7726 5.28656H25.6996V6.05343H24.7708L24.7726 5.28656Z" fill="white"/>
<path d="M46.3506 7.33961H47.2685V10.4653H46.3506V7.33961ZM46.3506 6.01218H47.275V6.77994H46.3506V6.01218Z" fill="white"/>
<path d="M26.5771 14.8996H27.327L27.3931 15.2956H27.416C27.6767 15.0421 27.9897 14.8238 28.4119 14.8238C29.0865 14.8238 29.3738 15.3039 29.3738 16.0846V18.0272H28.4532V16.2049C28.4532 15.7553 28.3338 15.6147 28.0677 15.6147C27.8373 15.6147 27.696 15.7229 27.494 15.9181V18.0272H26.5762L26.5771 14.8996Z" fill="white"/>
<path d="M30.1519 13.6121H31.0505V16.1402H31.0733L32.0565 14.8997H33.0539L31.9684 16.1874L33.1367 18.0254H32.1407L31.4433 16.8062L31.0505 17.2558V18.0254H30.1519V13.6121Z" fill="white"/>
<path d="M37.4928 17.0932C37.4928 16.5216 37.0495 16.2986 36.6576 16.1525C36.3355 16.0341 36.0453 15.9582 36.0453 15.7584C36.0453 15.603 36.1628 15.5096 36.3995 15.5096C36.6143 15.5096 36.8318 15.6141 37.0522 15.776L37.4643 15.221C37.1549 14.9684 36.7695 14.8288 36.3711 14.825C35.6552 14.825 35.1861 15.2219 35.1861 15.8038C35.1861 16.3199 35.6267 16.5743 36.0067 16.7223C36.3263 16.849 36.6327 16.9415 36.6327 17.1478C36.6327 17.3115 36.5152 17.417 36.2417 17.417C35.9682 17.417 35.7222 17.3023 35.4413 17.0886L35.0283 17.6649C35.3339 17.9077 35.7021 18.0569 36.0895 18.0951L35.8344 18.6177C36.2123 18.6676 36.3105 18.7565 36.3105 18.8832C36.3105 19.0617 36.1592 19.1329 35.6682 19.1607L35.7371 19.5307C36.5161 19.5039 36.9706 19.3087 36.9706 18.8832C36.9706 18.6214 36.8054 18.4873 36.4915 18.4133L36.6455 18.059C37.1964 17.9332 37.491 17.5548 37.491 17.097" fill="white"/>
<path d="M37.929 17.1577C37.929 16.4999 38.4485 16.1401 39.6728 16.0125C39.6544 15.7396 39.5186 15.561 39.1818 15.561C38.922 15.561 38.6621 15.6711 38.3612 15.8432L38.0343 15.2354C38.4295 14.9771 38.8881 14.8345 39.3589 14.8238C40.152 14.8238 40.5916 15.2808 40.5916 16.2382V18.0253H39.8416L39.7755 17.7043H39.7526C39.4919 17.9356 39.202 18.1003 38.8505 18.1003C38.285 18.1003 37.926 17.6849 37.926 17.1577M39.6699 17.117V16.5712C39.0166 16.6637 38.8036 16.8487 38.8036 17.0846C38.8036 17.2862 38.9403 17.3843 39.1587 17.3843C39.3773 17.3843 39.5067 17.2807 39.6699 17.117Z" fill="white"/>
<path d="M42.7972 14.2616C42.9075 14.2642 43.0164 14.2871 43.1184 14.3291L43.2837 13.6465C43.0855 13.573 42.8761 13.5355 42.6648 13.5354C41.8279 13.5354 41.525 14.0766 41.525 14.738V14.9036L41.1121 14.935V15.626H41.525V18.0256H42.4429V15.6251H43.001V14.899H42.4429V14.7139C42.4429 14.3902 42.5723 14.2653 42.7972 14.2653" fill="white"/>
<path d="M48.4219 18.0243H49.3964L48.1169 13.919H47.0156L45.7361 18.0243H46.6768L46.9293 17.0465H48.1712L48.4219 18.0243ZM47.1147 16.325L47.2129 15.9457C47.3259 15.535 47.4351 15.054 47.5333 14.6211H47.5579C47.6674 15.0494 47.7757 15.535 47.8884 15.9457L47.9866 16.325H47.1147Z" fill="white"/>
<path d="M52.9512 16.4659C52.9512 15.4483 53.6683 14.8267 54.4135 14.8267C55.2964 14.8267 55.7343 15.4742 55.7343 16.3271C55.7352 16.4644 55.7221 16.6014 55.6957 16.736H53.8407C53.9234 17.1893 54.2317 17.3974 54.6446 17.3974C54.8829 17.3932 55.1152 17.3224 55.3157 17.193L55.6195 17.748C55.2944 17.9711 54.9114 18.0936 54.518 18.1004C53.6333 18.1004 52.9495 17.4982 52.9495 16.4631M54.9475 16.1208C54.9475 15.7777 54.7989 15.5297 54.4319 15.5297C54.1418 15.5297 53.8911 15.7268 53.8288 16.1208H54.9475Z" fill="white"/>
<path d="M56.3684 14.8996H57.1181L57.1843 15.2956H57.2071C57.4679 15.0421 57.7809 14.8238 58.203 14.8238C58.8777 14.8238 59.1648 15.3039 59.1648 16.0846V18.0272H58.2472V16.2049C58.2472 15.7553 58.1268 15.6147 57.8624 15.6147C57.6313 15.6147 57.4898 15.7229 57.2881 15.9181V18.0272H56.3702L56.3684 14.8996Z" fill="white"/>
<path d="M60.0678 16.8885V15.6258H59.6436V14.9349L60.1191 14.8997L60.2265 14.0672H60.9866V14.8997H61.7297V15.6258H60.9866V16.8774C60.9866 17.2317 61.1462 17.3742 61.3877 17.3742C61.4883 17.3708 61.5879 17.3508 61.6823 17.315L61.8271 17.9875C61.6048 18.0617 61.3723 18.0998 61.1379 18.1003C60.3725 18.1003 60.0678 17.6128 60.0678 16.8885Z" fill="white"/>
<path d="M62.3379 17.0541V13.6121H63.2555V17.0911C63.2555 17.29 63.3475 17.3529 63.4216 17.3529C63.4593 17.354 63.497 17.35 63.5338 17.3409L63.6438 18.0236C63.4973 18.0792 63.3415 18.1053 63.1849 18.1003C62.5545 18.1003 62.3397 17.6859 62.3397 17.0541" fill="white"/>
<path d="M65.7555 19.1834L65.9187 18.4776C65.9869 18.4991 66.0569 18.5128 66.1281 18.5183C66.431 18.5183 66.5871 18.35 66.6704 18.1076L66.7164 17.9448L65.5232 14.8996H66.4464L66.89 16.2446C66.9816 16.5276 67.0531 16.8236 67.1341 17.1298H67.1596C67.2285 16.8347 67.2973 16.5378 67.3744 16.2446L67.7518 14.8996H68.6311L67.5524 18.0586C67.2587 18.8421 66.9276 19.2472 66.1987 19.2472C66.0489 19.2496 65.8997 19.228 65.7564 19.1834" fill="white"/>
<path d="M52.6109 17.4896C52.6109 18.4711 51.9416 18.9428 50.9293 18.9428C50.5455 18.9485 50.1654 18.8639 49.8195 18.6959L50.0646 18.077C50.3227 18.222 50.6128 18.299 50.9083 18.3009C51.3761 18.3009 51.7075 18.0927 51.7075 17.5229V17.3527H51.6965C51.5977 17.491 51.4666 17.6027 51.315 17.6782C51.1631 17.7536 50.9955 17.7905 50.8264 17.7856C50.0978 17.7856 49.6187 17.1881 49.6187 16.3602C49.6187 15.5322 50.1079 14.8745 50.8587 14.8745C51.0409 14.8724 51.2207 14.916 51.3824 15.0012C51.5438 15.0865 51.6817 15.2107 51.7838 15.363H51.7947L51.8167 14.9347H52.6109V17.4896ZM51.7399 16.3333C51.7399 15.8615 51.5221 15.5322 51.1367 15.5322C50.7513 15.5322 50.5327 15.8884 50.5327 16.3435C50.5327 16.7986 50.7282 17.1446 51.1311 17.1446C51.5343 17.1446 51.7399 16.8042 51.7399 16.3333Z" fill="white"/>
<path d="M24.7717 13.9189H25.6895V18.0242H24.7717V13.9189ZM24.7717 12.845H25.6996V13.6127H24.7708L24.7717 12.845Z" fill="white"/>
<path d="M33.577 14.8995H34.4949V18.0243H33.577V14.8995ZM33.577 13.5739H34.502V14.338H33.5752L33.577 13.5739Z" fill="white"/>
<path d="M64.1246 14.8995H65.0425V18.0243H64.1246V14.8995ZM64.1246 13.5739H65.0499V14.338H64.1228L64.1246 13.5739Z" fill="white"/>
<path d="M69.1065 14.8995H70.0244V18.0243H69.1065V14.8995ZM69.1065 13.5739H70.0309V14.338H69.1047L69.1065 13.5739Z" fill="white"/>
</g>
</g>
</g>
<defs>
<filter id="filter0_d_0_1" x="-75" y="-316" width="410" height="443" filterUnits="userSpaceOnUse" color-interpolation-filters="sRGB">
<feFlood flood-opacity="0" result="BackgroundImageFix"/>
<feColorMatrix in="SourceAlpha" type="matrix" values="0 0 0 0 0 0 0 0 0 0 0 0 0 0 0 0 0 0 127 0" result="hardAlpha"/>
<feOffset dx="-5" dy="4"/>
<feGaussianBlur stdDeviation="5"/>
<feColorMatrix type="matrix" values="0 0 0 0 0.415686 0 0 0 0 0.87451 0 0 0 0 0.792157 0 0 0 0.35 0"/>
<feBlend mode="normal" in2="BackgroundImageFix" result="effect1_dropShadow_0_1"/>
<feBlend mode="normal" in="SourceGraphic" in2="effect1_dropShadow_0_1" result="shape"/>
</filter>
<linearGradient id="paint0_linear_0_1" x1="0" y1="423" x2="478.621" y2="163.368" gradientUnits="userSpaceOnUse">
<stop stop-color="#487E64"/>
<stop offset="1" stop-color="#49A478" stop-opacity="0.65"/>
</linearGradient>
<clipPath id="clip0_0_1">
<rect width="390" height="6037" fill="white" transform="translate(-60 -310)"/>
</clipPath>
<clipPath id="clip1_0_1">
<rect width="90.1881" height="24.8169" fill="white"/>
</clipPath>
</defs>
</svg>
