<svg width="149" height="41" viewBox="0 0 149 41" fill="none" xmlns="http://www.w3.org/2000/svg">
<g id="idda-logo 2" clip-path="url(#clip0_53_252)">
<g id="Clip path group">
<mask id="mask0_53_252" style="mask-type:luminance" maskUnits="userSpaceOnUse" x="0" y="0" width="149" height="41">
<g id="clip0_348_11069">
<path id="Vector" d="M148.816 0H0V41H148.816V0Z" fill="white"/>
</g>
</mask>
<g mask="url(#mask0_53_252)">
<g id="Group">
<path id="Vector_2" d="M18.0356 22.1474C17.5444 22.1473 17.0683 21.9756 16.6887 21.6614C16.309 21.3473 16.0492 20.9101 15.9535 20.4245C15.8578 19.9389 15.9322 19.4349 16.164 18.9984C16.3957 18.5619 16.7705 18.2198 17.2245 18.0307C17.6784 17.8415 18.1834 17.8168 18.6534 17.9608C19.1234 18.1048 19.5292 18.4087 19.8019 18.8206C20.0744 19.2324 20.1969 19.7269 20.1482 20.2195C20.0996 20.7122 19.883 21.1726 19.5353 21.5223C19.3385 21.7209 19.1047 21.8784 18.8473 21.9857C18.59 22.0929 18.3141 22.1479 18.0356 22.1474ZM9.74563 15.7929C9.95148 15.6729 10.1097 15.4847 10.1933 15.2602C10.2769 15.0359 10.2808 14.7892 10.2042 14.5623C10.1276 14.3354 9.97535 14.1423 9.77337 14.0158C9.57134 13.8893 9.33206 13.8373 9.0963 13.8687C8.8605 13.9001 8.64283 14.0129 8.48031 14.1879C8.31778 14.3628 8.22049 14.5892 8.20495 14.8284C8.18946 15.0675 8.25671 15.3047 8.39522 15.4995C8.53373 15.6943 8.73503 15.8347 8.9647 15.8968C9.22844 15.9677 9.50924 15.9303 9.74563 15.7929ZM25.9434 15.4093C26.0621 15.617 26.2486 15.7768 26.471 15.8616C26.6935 15.9463 26.9382 15.9506 27.1635 15.8739C27.3888 15.7971 27.5808 15.6441 27.7066 15.4407C27.8325 15.2373 27.8846 14.9963 27.8539 14.7586C27.8232 14.5209 27.7117 14.3013 27.5384 14.1372C27.3651 13.973 27.1406 13.8745 26.9034 13.8584C26.666 13.8424 26.4306 13.9097 26.237 14.049C26.0435 14.1882 25.9038 14.3908 25.8418 14.6222C25.8066 14.7537 25.7974 14.8909 25.8149 15.0259C25.8323 15.161 25.876 15.2913 25.9434 15.4093ZM17.5216 29.3531C17.404 29.4207 17.301 29.5112 17.2185 29.6192C17.1359 29.7273 17.0755 29.8509 17.0408 29.9827C16.9787 30.2149 16.9984 30.4616 17.0964 30.6808C17.1946 30.9 17.3651 31.0781 17.5789 31.1848C17.7927 31.2915 18.0366 31.3201 18.2691 31.2659C18.5015 31.2116 18.7081 31.0778 18.8536 30.8872C18.9991 30.6966 19.0745 30.4611 19.067 30.2207C19.0595 29.9804 18.9695 29.7501 18.8123 29.5691C18.6552 29.3882 18.4407 29.2677 18.2053 29.2283C17.9699 29.1889 17.7283 29.233 17.5216 29.3531ZM36.0712 9.51634V26.8635C36.07 27.9703 35.7804 29.0574 35.2314 30.0159C34.6824 30.9745 33.8933 31.7709 32.9429 32.3255L25.4885 36.6627L18.0356 40.9999L10.5827 36.6627L3.12825 32.3255C2.1779 31.7709 1.38874 30.9745 0.839742 30.0159C0.290746 29.0574 0.00117241 27.9703 0 26.8635V9.51634L7.45289 5.17913L14.9074 0.841961C15.859 0.29032 16.9377 0 18.0356 0C19.1335 0 20.2121 0.29032 21.1638 0.841961L28.6183 5.17913L36.0712 9.51634ZM25.0291 3.94737C26.1352 5.05959 27.1028 6.30357 27.9102 7.65187C28.8444 9.21136 29.4998 10.924 29.8465 12.7119L32.4076 11.2219L34.9703 9.73028L29.9982 6.83884L25.0291 3.94737ZM7.73344 5.8745C10.2218 5.21277 13.4319 4.84293 16.7512 5.7675C20.0705 6.69213 23.5036 8.91265 26.4165 13.4271C26.3589 13.4444 26.3013 13.4643 26.2437 13.4867C26.1865 13.5103 26.1308 13.5374 26.0769 13.5677C25.9661 13.632 25.8641 13.7106 25.7736 13.8016C25.6868 13.8902 25.6105 13.9887 25.5461 14.095C25.1911 13.8998 24.8094 13.7587 24.4134 13.6763C23.9545 13.5806 23.4869 13.534 23.0183 13.5372C22.9243 13.5372 22.8273 13.5372 22.7287 13.5463L22.4255 13.5647C22.6269 14.0869 22.7976 14.6207 22.9365 15.1632C23.0875 15.7505 23.208 16.3453 23.2974 16.9452C23.7688 17.3236 24.2203 17.7266 24.6499 18.1525C25.0471 18.546 25.4213 18.9624 25.7705 19.3996C26.0974 18.9171 26.3676 18.3981 26.5757 17.853C26.753 17.3942 26.852 16.9085 26.8684 16.4164C26.9919 16.4136 27.1146 16.3957 27.2338 16.3629C27.3572 16.3275 27.4755 16.2762 27.5856 16.2101C27.6298 16.1855 27.6724 16.1579 27.713 16.1276C27.7535 16.0986 27.7925 16.0674 27.8298 16.0343C28.3375 17.2965 28.5981 18.6458 28.597 20.0078C28.597 20.0598 28.597 20.1117 28.597 20.1606V20.3135C28.8563 19.4798 29.053 18.6277 29.1854 17.7643C29.3115 16.9403 29.3694 16.107 29.3582 15.2733C29.3406 14.0322 29.1601 12.7989 28.8215 11.6055C28.4739 10.386 27.9746 9.2157 27.3354 8.12258C26.3923 6.52516 25.2207 5.07663 23.8584 3.82359C22.9782 3.0065 22.0283 2.26908 21.0198 1.61984L20.7954 1.48383C19.9555 0.997238 19.0036 0.741165 18.0348 0.741165C17.066 0.741165 16.1142 0.997238 15.2743 1.48383L11.5016 3.67993L7.73344 5.8745ZM9.47875 24.8814C9.48939 24.9028 9.5015 24.9242 9.51365 24.944L9.55002 25.0067C9.87243 25.5169 10.3518 25.9066 10.9147 26.1163C11.5979 26.376 12.3244 26.5006 13.0544 26.483C13.1484 26.483 13.2454 26.483 13.344 26.483L13.6472 26.4647C13.4455 25.942 13.2749 25.4077 13.1362 24.8646C12.9817 24.2755 12.8582 23.6787 12.7663 23.0765C12.2951 22.6977 11.8437 22.2948 11.4136 21.8692C11.0164 21.4752 10.6423 21.0583 10.2931 20.6206C9.80856 21.3151 9.46106 22.097 9.26952 22.9237C9.11787 23.6496 9.18306 24.316 9.47875 24.8814ZM9.83969 20.0109C9.53517 19.576 9.26785 19.1159 9.04053 18.6354C8.8405 18.2079 8.68797 17.7595 8.58564 17.2982C8.46266 17.734 8.36895 18.1777 8.30508 18.6262C8.11197 19.9982 8.20755 21.3958 8.58564 22.7281C8.68797 22.2673 8.84055 21.8194 9.04053 21.3924C9.26751 20.9118 9.53487 20.4516 9.83969 20.017M12.5418 20.017C12.5418 19.6716 12.5504 19.3318 12.5676 18.9976C12.5828 18.6614 12.607 18.3313 12.6374 18.0073C12.2658 18.3344 11.9186 18.6675 11.6001 19.0037C11.2935 19.3262 11.0035 19.6644 10.7313 20.017C11.0038 20.3692 11.2939 20.7074 11.6001 21.0302C11.9186 21.3664 12.2658 21.6996 12.6374 22.0266C12.607 21.7011 12.5828 21.371 12.5676 21.0363C12.5524 20.7016 12.5418 20.3608 12.5418 20.017ZM10.9921 26.914C11.6207 27.5659 12.335 28.1279 13.115 28.5844C13.9062 29.0481 14.7581 29.3974 15.6458 29.622C15.3008 29.3012 14.9926 28.9423 14.7269 28.5522C14.4269 28.1128 14.1641 27.6486 13.9414 27.1646C13.7898 27.1799 13.6382 27.1891 13.4865 27.1967C13.3349 27.2043 13.1923 27.2074 13.0483 27.2074C12.6825 27.2082 12.3173 27.1832 11.955 27.1325C11.628 27.0854 11.3055 27.0113 10.9906 26.9109M14.3796 26.376C14.8188 26.3152 15.2546 26.2316 15.6852 26.1254C16.1341 26.0154 16.593 25.8793 17.0621 25.7174C16.7588 25.5808 16.4616 25.4367 16.1705 25.2848C15.8672 25.1321 15.5791 24.9716 15.2879 24.8019C14.9968 24.6323 14.7087 24.4519 14.4252 24.2747C14.1416 24.0974 13.8732 23.9064 13.6093 23.7169C13.7049 24.2044 13.8171 24.672 13.946 25.1167C14.0692 25.5449 14.2145 25.9662 14.3811 26.3791M18.0356 25.3521C18.4298 25.1886 18.8271 25.0113 19.226 24.8157C19.6247 24.62 20.0235 24.4076 20.4224 24.1754C20.8211 23.9431 21.2033 23.7031 21.5718 23.454C21.9402 23.2049 22.2935 22.9467 22.6332 22.6899C22.6908 22.265 22.7348 21.8279 22.7651 21.3817C22.7954 20.9354 22.8106 20.48 22.8106 20.017C22.8106 19.5539 22.7954 19.1 22.7651 18.6507C22.7348 18.2014 22.6908 17.7689 22.6332 17.3425C22.2966 17.0797 21.9427 16.825 21.5718 16.5784C21.2007 16.3318 20.8176 16.0909 20.4224 15.8555C20.0235 15.6247 19.6232 15.4123 19.226 15.2167C18.8286 15.0211 18.4298 14.8423 18.0356 14.6803C17.6414 14.8423 17.2445 15.0211 16.8452 15.2167C16.448 15.4123 16.0476 15.6247 15.6503 15.8555C15.2531 16.0863 14.8679 16.3293 14.4995 16.5784C14.131 16.8275 13.7776 17.0842 13.438 17.3425C13.3803 17.7689 13.3364 18.206 13.306 18.6507C13.2758 19.0954 13.2606 19.5539 13.2606 20.017C13.2606 20.48 13.2758 20.9339 13.306 21.3817C13.3364 21.8295 13.3803 22.265 13.438 22.6899C13.7746 22.9527 14.1279 23.211 14.4995 23.454C14.8709 23.697 15.2576 23.9446 15.6503 24.1754C16.0431 24.4061 16.448 24.62 16.8452 24.8157C17.2425 25.0113 17.6414 25.1886 18.0356 25.3521ZM22.1389 12.8525C22.2905 12.8388 22.4421 12.8281 22.5938 12.8219C22.7454 12.8158 22.897 12.8113 23.0335 12.8113C23.3987 12.8105 23.7635 12.8355 24.1253 12.8861C24.4524 12.9325 24.775 13.0067 25.0897 13.1077C24.4607 12.4558 23.7465 11.8933 22.9668 11.4358C22.1756 10.9726 21.3236 10.6238 20.436 10.3997C20.781 10.7206 21.0892 11.0794 21.3549 11.4694C21.6546 11.9073 21.9168 12.37 22.1389 12.8525ZM21.684 13.6411C21.2448 13.7024 20.809 13.7866 20.3783 13.8933C19.9235 14.0033 19.4686 14.1393 19.003 14.3013C19.3003 14.4368 19.5969 14.581 19.8931 14.7338C20.1964 14.8866 20.4845 15.0394 20.7757 15.2167C21.0668 15.394 21.361 15.5652 21.64 15.747C21.919 15.9289 22.1919 16.1138 22.4558 16.3033C22.3602 15.8173 22.2481 15.3497 22.1191 14.905C21.9959 14.4763 21.8507 14.0545 21.684 13.6411ZM18.0356 10.1016C17.3835 10.1016 16.7619 10.3737 16.1963 10.8658C15.5588 11.4526 15.0434 12.1611 14.6799 12.9503C15.2349 13.0379 15.7842 13.1584 16.3252 13.311C16.902 13.4741 17.4703 13.6664 18.028 13.8871C18.5857 13.6664 19.154 13.4741 19.7309 13.311C20.2733 13.1582 20.8242 13.0377 21.3807 12.9503C21.0171 12.1611 20.5017 11.4526 19.8643 10.8658C19.2987 10.3737 18.677 10.1016 18.025 10.1016M15.6306 10.4073C13.8647 10.8576 12.2574 11.7929 10.9875 13.1093C11.3031 13.0075 11.6268 12.9334 11.955 12.8877C12.3176 12.8357 12.6835 12.8102 13.0498 12.8113C13.2014 12.8113 13.3409 12.8113 13.4895 12.8219C13.6382 12.8326 13.7928 12.8388 13.9444 12.8525C14.1649 12.3676 14.4257 11.9024 14.7238 11.4618C14.989 11.0718 15.2968 10.7129 15.6413 10.392M13.6093 16.2941C13.8732 16.1046 14.1451 15.9192 14.4252 15.7379C14.7057 15.556 14.9922 15.3787 15.2895 15.2075C15.5867 15.0364 15.8763 14.8759 16.172 14.7246C16.4677 14.5733 16.7649 14.4281 17.0636 14.2921C16.5945 14.1301 16.1356 13.9941 15.6868 13.8841C15.2562 13.7774 14.8204 13.6932 14.3811 13.6319C14.2157 14.0484 14.072 14.4733 13.9505 14.905C13.8216 15.3497 13.7094 15.8219 13.6139 16.3033M19.0121 25.7204C19.4812 25.8824 19.9401 26.0184 20.389 26.1285C20.8196 26.2347 21.2554 26.3183 21.6946 26.3791C21.8613 25.9662 22.0066 25.5449 22.1298 25.1167C22.2586 24.672 22.3709 24.1998 22.4664 23.7169C22.2026 23.9064 21.9296 24.0928 21.6506 24.2747C21.3716 24.4565 21.082 24.6323 20.7863 24.805C20.4906 24.9777 20.1995 25.1351 19.9038 25.2879C19.6081 25.4407 19.3108 25.5844 19.0121 25.7204ZM20.4345 29.6205C22.2049 29.1704 23.8162 28.2327 25.0882 26.9124C24.7722 27.0128 24.4487 27.0869 24.1207 27.134C23.7581 27.186 23.3922 27.2115 23.0259 27.2105C22.8819 27.2105 22.7348 27.2105 22.5862 27.1997C22.4376 27.1891 22.2829 27.1829 22.1313 27.1677C21.9098 27.6509 21.6474 28.1142 21.3473 28.5522C21.0816 28.9419 20.7739 29.3007 20.4299 29.622M26.5272 25.0006C26.5394 24.9807 26.5499 24.9609 26.5606 24.941L26.594 24.8814C26.8881 24.316 26.9472 23.6496 26.8017 22.9252C26.6096 22.0982 26.2622 21.3159 25.7781 20.6206C25.4293 21.0587 25.0551 21.4756 24.6575 21.8692C24.2275 22.2948 23.776 22.6977 23.3049 23.0765C23.2157 23.676 23.0952 24.2703 22.944 24.857C22.8054 25.4 22.6347 25.9344 22.433 26.457L22.7363 26.4754C22.8349 26.4754 22.9319 26.4754 23.0259 26.4754C23.7575 26.4948 24.4859 26.3724 25.1716 26.1147C25.7353 25.9033 26.2147 25.5114 26.5363 24.9991M23.5385 20.0109C23.5385 20.3547 23.5294 20.6955 23.5142 21.0302C23.4991 21.3649 23.4733 21.695 23.4429 22.0205C23.8145 21.6934 24.1617 21.3603 24.4801 21.0241C24.7864 20.7012 25.0765 20.3631 25.349 20.0109C25.0768 19.6583 24.7868 19.3201 24.4801 18.9976C24.1617 18.6614 23.8145 18.3282 23.4429 18.0012C23.4733 18.3252 23.497 18.6553 23.5142 18.9915C23.5294 19.3262 23.5385 19.6655 23.5385 20.0109ZM27.4992 22.7265C27.8772 21.3942 27.9727 19.9967 27.7797 18.6247C27.7162 18.1761 27.6225 17.7324 27.4992 17.2967C27.3966 17.7574 27.2441 18.2053 27.0443 18.6324C26.8164 19.1125 26.5491 19.5726 26.2452 20.0078C26.5496 20.4427 26.817 20.9028 27.0443 21.3832C27.2443 21.8107 27.3969 22.2592 27.4992 22.7205M1.11452 9.73028L3.7909 11.2906L6.46881 12.8525C7.88558 11.7578 9.47949 10.9181 11.1801 10.3706C13.0437 9.75932 15.2182 9.38948 17.7535 9.3635H17.8946H18.0356C19.9997 9.36123 21.925 9.91399 23.5931 10.959C23.0045 10.3154 22.3689 9.71719 21.6916 9.16942C21.046 8.64635 20.3582 8.1786 19.6354 7.77107C18.5729 7.17336 17.4377 6.71767 16.2584 6.4155C15.0528 6.10948 13.8139 5.9565 12.5706 5.96011H12.4796C10.6353 5.98367 8.80443 6.28183 7.04652 6.84496C5.90143 7.20369 4.79016 7.66393 3.7257 8.22039L3.63927 8.25245L2.37007 8.9906L1.11452 9.73028ZM0.736952 21.938C1.13963 20.4176 1.72471 18.9525 2.47925 17.5748C3.35272 15.9802 4.49726 14.5525 5.86075 13.3569L3.29809 11.8652L0.736952 10.3722V21.938ZM11.0482 36.0728C9.22859 34.2389 7.31188 31.6164 6.44606 28.2573C5.5802 24.8982 5.76218 20.7979 8.18833 15.9931C8.28023 16.0811 8.38203 16.158 8.49163 16.2223C8.60201 16.2891 8.72086 16.3405 8.84491 16.3751C8.90329 16.391 8.9625 16.4033 9.02234 16.4118C9.08302 16.4118 9.14213 16.424 9.20129 16.4256C9.21761 16.9168 9.31711 17.4016 9.49547 17.859C9.70372 18.4034 9.97334 18.9218 10.2991 19.4042C10.6484 18.9669 11.0226 18.5506 11.4197 18.1571C11.8494 17.7312 12.3008 17.3282 12.7723 16.9497C12.8617 16.3499 12.9822 15.7551 13.1332 15.1678C13.2721 14.6253 13.4427 14.0915 13.6442 13.5693L13.3409 13.5509C13.2424 13.5509 13.1453 13.5417 13.0513 13.5417C12.5823 13.5386 12.1141 13.5852 11.6547 13.6808C11.2588 13.7641 10.8771 13.9057 10.522 14.1011C10.4303 13.95 10.3128 13.8165 10.1748 13.7068C10.0384 13.5981 9.88453 13.5138 9.71985 13.4577C10.618 12.2973 11.7438 11.3358 13.0271 10.6335C12.1802 10.8248 11.3489 11.0803 10.5402 11.3976C9.76813 11.6989 9.02249 12.0649 8.31116 12.4919C7.25439 13.1277 6.28564 13.9016 5.43007 14.7934C4.55795 15.7071 3.80344 16.7278 3.18436 17.8316C2.28315 19.4538 1.62404 21.201 1.22825 23.0169C0.963123 24.1948 0.802262 25.3941 0.747563 26.6007C0.747563 26.6236 0.747563 26.8635 0.747563 26.8635C0.749112 27.8401 1.00478 28.7991 1.48904 29.6449C1.97331 30.4907 2.66923 31.1937 3.50734 31.6837L7.28007 33.8782L11.0482 36.0728ZM17.6732 33.6857C15.9909 32.9819 14.4444 31.9856 13.1044 30.7422C11.6199 29.3837 10.1945 27.6155 8.88893 25.3368C7.95836 23.7193 7.4697 21.8821 7.47264 20.0124V19.8596C7.47264 19.8076 7.47264 19.7556 7.47264 19.7067C7.21454 20.5406 7.01839 21.3927 6.88581 22.2559C6.7596 23.0799 6.70177 23.9132 6.71294 24.7469C6.73078 25.9879 6.91076 27.2211 7.24821 28.4147C7.59768 29.6338 8.09741 30.8039 8.73576 31.8976C9.67887 33.4954 10.8511 34.944 12.2143 36.1966C13.0933 37.0178 14.0433 37.7584 15.0529 38.4095L15.0999 38.4401L15.1333 38.463L16.401 39.2011L17.6687 39.9377V33.6857H17.6732ZM28.3469 34.1441C27.5899 34.3475 26.8218 34.5062 26.0465 34.6195C25.1958 34.7438 24.3374 34.8072 23.4778 34.8089C22.6436 34.8097 21.8106 34.7448 20.9865 34.6149C20.1095 34.4778 19.2467 34.2609 18.4086 33.9669V39.9271L23.3777 37.0356L28.3469 34.1441ZM35.3312 18.0822C34.6564 20.5855 33.369 23.5732 30.9155 26.0077C28.4621 28.4422 24.841 30.325 19.5004 30.6184C19.5453 30.4356 19.5566 30.246 19.5338 30.0591C19.5091 29.8724 19.451 29.6917 19.3624 29.5258C19.7779 29.2658 20.1462 28.9361 20.4511 28.5508C20.8156 28.095 21.127 27.5987 21.3791 27.0714C20.8242 26.9832 20.2748 26.8623 19.7339 26.7092C19.1584 26.5467 18.5915 26.3543 18.0356 26.133C17.4781 26.354 16.9098 26.5458 16.3327 26.7076C15.7918 26.8608 15.2425 26.9817 14.6875 27.0699C14.9405 27.5975 15.2524 28.0943 15.617 28.5508C15.9224 28.9357 16.2906 29.2653 16.7057 29.5258C16.6229 29.6815 16.5675 29.8506 16.542 30.0255C16.516 30.2018 16.5211 30.3813 16.5571 30.5558C15.109 30.3514 13.7194 29.8433 12.4781 29.0643C13.0666 29.7094 13.7022 30.3091 14.3796 30.8584C15.0254 31.3811 15.7132 31.8488 16.4358 32.2568C17.5139 32.8622 18.6667 33.3211 19.8643 33.6215C21.0859 33.9266 22.3407 34.0755 23.5991 34.0647C25.4436 34.0405 27.2744 33.7418 29.0323 33.1783C30.1775 32.8201 31.2889 32.3598 32.3531 31.8029L32.582 31.676C33.4166 31.1849 34.1094 30.4824 34.5916 29.6383C35.0739 28.7941 35.3288 27.8376 35.3312 26.8635V18.0822ZM35.3312 10.3722L32.6533 11.9341L29.9709 13.4944C30.2044 15.3138 30.1198 17.1603 29.7206 18.9502C29.2946 20.9248 28.4879 23.0536 27.1823 25.3322C26.2011 27.0419 24.7707 28.4455 23.0487 29.3882C23.8963 29.1961 24.7286 28.9408 25.5386 28.6241C26.3098 28.3214 27.0548 27.9548 27.7661 27.5283C28.8232 26.8929 29.792 26.119 30.6471 25.2268C31.5214 24.3138 32.2775 23.293 32.8974 22.1886C33.7989 20.5666 34.4575 18.8193 34.852 17.0032C35.116 15.8257 35.2763 14.627 35.3312 13.421C35.3312 13.3981 35.3312 13.3355 35.3312 13.3247V10.3722Z" fill="white"/>
<path id="Vector_3" d="M43.9079 12.127H45.1468L45.256 12.7811H45.2939C45.7245 12.3624 46.2416 12.0017 46.9391 12.0017C48.0536 12.0017 48.5283 12.7949 48.5283 14.0847V17.2941H47.0073V14.2803C47.0073 13.5376 46.8102 13.3053 46.3705 13.3053C45.9899 13.3053 45.7564 13.4841 45.4227 13.8066V17.291H43.9064L43.9079 12.127Z" fill="white"/>
<path id="Vector_4" d="M49.8138 12.127H51.0529L51.1617 12.7811H51.1999C51.6303 12.3624 52.1474 12.0017 52.8448 12.0017C53.9594 12.0017 54.4358 12.7949 54.4358 14.0847V17.2941H52.9208V14.2803C52.9208 13.5376 52.7238 13.3053 52.2856 13.3053C51.9033 13.3053 51.6788 13.4841 51.3362 13.8066V17.291H49.8197L49.8138 12.127Z" fill="white"/>
<path id="Vector_5" d="M55.4235 14.7098C55.4235 12.9936 56.6228 12.0017 57.9192 12.0017C59.2156 12.0017 60.415 12.9905 60.415 14.7098C60.415 16.4291 59.2156 17.4225 57.9256 17.4225C56.6351 17.4225 55.4293 16.4306 55.4293 14.7174M58.8657 14.7174C58.8657 13.8249 58.5529 13.2442 57.9256 13.2442C57.2977 13.2442 56.985 13.8249 56.985 14.7174C56.985 15.6099 57.2977 16.1876 57.9256 16.1876C58.5529 16.1876 58.8657 15.6114 58.8657 14.7174Z" fill="white"/>
<path id="Vector_6" d="M60.8257 12.1269H62.351L63.0166 14.5721C63.1489 15.0841 63.2837 15.619 63.4141 16.1585H63.4567C63.5871 15.619 63.7219 15.0887 63.8537 14.5721L64.5193 12.1269H65.9735L64.3056 17.2909H62.5514L60.8257 12.1269Z" fill="white"/>
<path id="Vector_7" d="M66.3285 15.8575C66.3285 14.7709 67.1867 14.1764 69.2095 13.9655C69.1796 13.5147 68.9566 13.2198 68.3998 13.2198C67.9709 13.2198 67.5416 13.4016 67.0446 13.6782L66.5074 12.6848C67.1583 12.2575 67.9146 12.021 68.6909 12.0017C70.0011 12.0017 70.7274 12.7567 70.7274 14.3384V17.2895H69.4889L69.3796 16.7607H69.3418C68.911 17.1428 68.4317 17.4148 67.8509 17.4148C66.9172 17.4148 66.3241 16.7286 66.3241 15.8575M69.2051 15.7903V14.8886C68.1268 15.0414 67.7739 15.3471 67.7739 15.7368C67.7739 16.0699 68.0013 16.2319 68.3621 16.2319C68.7228 16.2319 68.937 16.0608 69.2051 15.7903Z" fill="white"/>
<path id="Vector_8" d="M71.5524 16.6934L72.2366 15.7414C72.7003 16.0944 73.1282 16.2839 73.557 16.2839C74.0119 16.2839 74.2045 16.1097 74.2045 15.8392C74.2045 15.4999 73.6967 15.3455 73.1688 15.1362C72.541 14.8917 71.8131 14.4714 71.8131 13.6186C71.8131 12.6573 72.5895 12.0017 73.7712 12.0017C74.429 12.0079 75.0656 12.2384 75.5769 12.6558L74.8975 13.5727C74.5324 13.3068 74.1726 13.1326 73.8197 13.1326C73.4266 13.1326 73.234 13.2855 73.234 13.5452C73.234 13.8738 73.7134 14.0037 74.2442 14.1948C74.8931 14.4362 75.6239 14.8061 75.6239 15.7475C75.6239 16.6888 74.8931 17.4225 73.5193 17.4225C72.8022 17.4028 72.1106 17.1497 71.548 16.7011" fill="white"/>
<path id="Vector_9" d="M79.2759 19.2043L79.5459 18.0382C79.6577 18.0738 79.7729 18.0963 79.89 18.1055C80.3919 18.1055 80.6482 17.8273 80.7874 17.4269L80.8634 17.1579L78.8921 12.1269H80.4179L81.1501 14.349C81.3016 14.8166 81.4202 15.3057 81.555 15.8115H81.5957C81.7094 15.324 81.825 14.8335 81.952 14.349L82.574 12.1269H84.0267L82.2431 17.3459C81.7564 18.6403 81.2109 19.3097 80.0052 19.3097C79.7582 19.3135 79.5121 19.2779 79.2759 19.2043Z" fill="white"/>
<path id="Vector_10" d="M84.3691 15.8575C84.3691 14.7709 85.2274 14.1764 87.2501 13.9655C87.2197 13.5147 86.9972 13.2198 86.4404 13.2198C86.0116 13.2198 85.5822 13.4016 85.0847 13.6782L84.548 12.6848C85.2004 12.2567 85.9582 12.0201 86.736 12.0017C88.0461 12.0017 88.7725 12.7567 88.7725 14.3384V17.2895H87.5339L87.4246 16.7607H87.3869C86.9561 17.1428 86.4767 17.4148 85.8959 17.4148C84.9622 17.4148 84.3691 16.7286 84.3691 15.8575ZM87.2501 15.7903V14.8886C86.1723 15.0414 85.819 15.3471 85.819 15.7368C85.819 16.0699 86.0464 16.2319 86.4071 16.2319C86.7678 16.2319 86.982 16.0608 87.2501 15.7903Z" fill="white"/>
<path id="Vector_11" d="M91.567 12.1269H93.0928L93.7599 14.5721C93.8902 15.0841 94.025 15.619 94.1569 16.1585H94.198C94.3299 15.619 94.4632 15.0887 94.595 14.5721L95.2626 12.1269H96.7154L95.047 17.2909H93.2942L91.567 12.1269Z" fill="white"/>
<path id="Vector_12" d="M97.2199 14.9177C97.2185 14.6899 97.2395 14.4626 97.2836 14.2392H100.348C100.228 13.5086 99.8098 13.1694 99.1697 13.1694C98.7707 13.1754 98.382 13.2951 98.0478 13.5148L97.5459 12.5244C98.1095 12.1693 98.7643 11.9881 99.4289 12.0033C100.78 12.0033 101.819 13.0257 101.819 14.7083C101.819 16.3909 100.698 17.4225 99.4201 17.4225C97.9644 17.4225 97.2199 16.3528 97.2199 14.9254M100.365 15.2585H98.5163C98.5163 15.8484 98.7756 16.2564 99.3853 16.2564C99.8843 16.2564 100.263 15.9508 100.365 15.2585Z" fill="white"/>
<path id="Vector_13" d="M110.317 17.2908L108.8 14.5766C109.519 14.2495 110 13.6168 110 12.6189C110 11.0066 108.829 10.5069 107.402 10.5069H104.976V17.2908H106.492V14.8456H107.328L108.613 17.2908H110.317ZM106.492 11.7249H107.27C108.071 11.7249 108.5 11.948 108.5 12.6189C108.5 13.2898 108.071 13.6322 107.27 13.6322H106.492V11.7249Z" fill="white"/>
<path id="Vector_14" d="M110.88 14.9177C110.879 14.69 110.901 14.4627 110.944 14.2392H114.008C113.889 13.5087 113.47 13.1693 112.832 13.1693C112.433 13.1751 112.044 13.2949 111.71 13.5147L111.208 12.5245C111.771 12.1691 112.426 11.9879 113.091 12.0033C114.442 12.0033 115.479 13.0257 115.479 14.7083C115.479 16.3909 114.36 17.4225 113.081 17.4225C111.625 17.4225 110.88 16.3527 110.88 14.9253M114.03 15.2509H112.177C112.177 15.8408 112.438 16.2488 113.047 16.2488C113.545 16.2488 113.924 15.9432 114.025 15.2509" fill="white"/>
<path id="Vector_15" d="M119.585 17.6318L119.639 16.8432C119.298 17.1901 118.839 17.3942 118.355 17.4148C117.081 17.4148 116.259 16.397 116.259 14.7098C116.259 13.0226 117.306 12.0017 118.383 12.0017C118.939 12.0017 119.344 12.1958 119.747 12.6359H119.793L119.92 12.127H121.107V19.2059H119.591L119.585 17.6318ZM119.585 15.7001V13.5804C119.352 13.3657 119.047 13.2487 118.731 13.2533C118.24 13.2533 117.809 13.7119 117.809 14.693C117.809 15.7062 118.157 16.1632 118.745 16.1632C118.911 16.1647 119.075 16.1234 119.221 16.0432C119.367 15.963 119.49 15.8464 119.579 15.7047" fill="white"/>
<path id="Vector_16" d="M122.147 14.9164C122.146 14.6886 122.167 14.4613 122.211 14.2379H125.276C125.156 13.5073 124.738 13.1681 124.099 13.1681C123.701 13.1738 123.311 13.293 122.977 13.5119L122.475 12.5217C123.039 12.1664 123.694 11.9853 124.358 12.0005C125.71 12.0005 126.748 13.0229 126.748 14.7055C126.748 16.3881 125.628 17.4212 124.342 17.4212C122.886 17.4212 122.141 16.3515 122.141 14.9241M125.287 15.2572H123.444C123.444 15.8471 123.704 16.2552 124.313 16.2552C124.812 16.2552 125.191 15.9495 125.293 15.2572" fill="white"/>
<path id="Vector_17" d="M127.788 12.127H129.027L129.136 12.7888H129.174C129.594 12.3624 130.054 12.0017 130.727 12.0017C131.447 12.0017 131.883 12.3074 132.14 12.8713C132.595 12.3975 133.073 12.0017 133.749 12.0017C134.856 12.0017 135.352 12.7949 135.352 14.0847V17.2941H133.835V14.2803C133.835 13.5376 133.634 13.3053 133.203 13.3053C132.945 13.3053 132.654 13.4673 132.331 13.8066V17.291H130.815V14.2803C130.815 13.5376 130.613 13.3053 130.183 13.3053C129.928 13.3053 129.634 13.4673 129.311 13.8066V17.291H127.794L127.788 12.127Z" fill="white"/>
<path id="Vector_18" d="M136.186 16.6934L136.868 15.7414C137.332 16.0944 137.761 16.2839 138.19 16.2839C138.619 16.2839 138.838 16.1097 138.838 15.8392C138.838 15.4999 138.33 15.3455 137.802 15.1362C137.174 14.8917 136.447 14.4714 136.447 13.6186C136.447 12.6573 137.221 12.0017 138.404 12.0017C139.062 12.0079 139.699 12.2384 140.21 12.6558L139.531 13.5727C139.165 13.3068 138.806 13.1326 138.451 13.1326C138.06 13.1326 137.866 13.2855 137.866 13.5452C137.866 13.8738 138.346 14.0037 138.877 14.1948C139.526 14.4362 140.257 14.8061 140.257 15.7475C140.257 16.6888 139.526 17.4225 138.152 17.4225C137.435 17.4028 136.744 17.1497 136.181 16.7011" fill="white"/>
<path id="Vector_19" d="M140.977 15.8573C140.977 14.7707 141.835 14.1762 143.858 13.9653C143.828 13.5144 143.604 13.2195 143.048 13.2195C142.618 13.2195 142.189 13.4014 141.691 13.6779L141.158 12.6846C141.809 12.2575 142.567 12.022 143.344 12.0045C144.654 12.0045 145.381 12.7595 145.381 14.3412V17.2923H144.142L144.033 16.7635H143.995C143.564 17.1455 143.085 17.4176 142.504 17.4176C141.57 17.4176 140.977 16.7314 140.977 15.8603M143.858 15.793V14.8914C142.778 15.0442 142.427 15.3498 142.427 15.7395C142.427 16.0727 142.653 16.2347 143.014 16.2347C143.374 16.2347 143.589 16.0635 143.858 15.793Z" fill="white"/>
<path id="Vector_20" d="M146.655 15.6864V9.99982H148.171V15.7414C148.171 16.07 148.323 16.1739 148.446 16.1739C148.508 16.1758 148.57 16.1691 148.631 16.1541L148.813 17.2819C148.571 17.3739 148.313 17.417 148.055 17.4088C147.013 17.4088 146.656 16.7241 146.656 15.6803" fill="white"/>
<path id="Vector_21" d="M40.9271 10.5067H42.4435V17.2906H40.9271V10.5067ZM40.9271 8.73392H42.4586V10.0009H40.9241L40.9271 8.73392Z" fill="white"/>
<path id="Vector_22" d="M76.5756 12.1258H78.092V17.2897H76.5756V12.1258ZM76.5756 9.93271H78.1028V11.2011H76.5756V9.93271Z" fill="white"/>
<path id="Vector_23" d="M43.9079 24.6157H45.1468L45.256 25.2698H45.2939C45.7245 24.8511 46.2416 24.4904 46.9391 24.4904C48.0536 24.4904 48.5283 25.2836 48.5283 26.5734V29.7828H47.0073V26.7721C47.0073 26.0293 46.8102 25.7971 46.3705 25.7971C45.9899 25.7971 45.7564 25.9759 45.4227 26.2983V29.7828H43.9064L43.9079 24.6157Z" fill="white"/>
<path id="Vector_24" d="M49.8138 22.4885H51.2985V26.6652H51.3362L52.9605 24.6159H54.6083L52.8149 26.7432L54.7451 29.7798H53.0997L51.9474 27.7655L51.2985 28.5083V29.7798H49.8138V22.4885Z" fill="white"/>
<path id="Vector_25" d="M61.9418 28.2398C61.9418 27.2953 61.2095 26.927 60.562 26.6855C60.0298 26.4899 59.5504 26.3646 59.5504 26.0345C59.5504 25.7778 59.7445 25.6234 60.1356 25.6234C60.4905 25.6234 60.8497 25.7961 61.2139 26.0635L61.8947 25.1466C61.3835 24.7293 60.7468 24.4987 60.0886 24.4925C58.9059 24.4925 58.131 25.1481 58.131 26.1094C58.131 26.9622 58.8588 27.3825 59.4867 27.627C60.0146 27.8363 60.5209 27.9892 60.5209 28.3299C60.5209 28.6004 60.3268 28.7747 59.8749 28.7747C59.423 28.7747 59.0167 28.5852 58.5525 28.2321L57.8702 29.1842C58.3751 29.5853 58.9833 29.8319 59.6234 29.8949L59.2019 30.7583C59.8264 30.8409 59.9886 30.9876 59.9886 31.197C59.9886 31.4919 59.7386 31.6096 58.9275 31.6554L59.0412 32.2667C60.3282 32.2224 61.0791 31.9 61.0791 31.197C61.0791 30.7645 60.8061 30.5429 60.2876 30.4206L60.5419 29.8353C61.4521 29.6274 61.9388 29.0024 61.9388 28.2459" fill="white"/>
<path id="Vector_26" d="M62.6625 28.3462C62.6625 27.2596 63.5207 26.6651 65.5435 26.4542C65.5131 26.0034 65.2886 25.7084 64.7323 25.7084C64.303 25.7084 63.8736 25.8903 63.3766 26.1745L62.8365 25.1705C63.4893 24.7436 64.2471 24.5082 65.0249 24.4904C66.3351 24.4904 67.0614 25.2454 67.0614 26.8271V29.7797H65.8224L65.7131 29.2494H65.6753C65.2445 29.6315 64.7656 29.9035 64.1848 29.9035C63.2507 29.9035 62.6576 29.2173 62.6576 28.3462M65.5386 28.279V27.3773C64.4593 27.5301 64.1074 27.8358 64.1074 28.2255C64.1074 28.5586 64.3334 28.7206 64.6941 28.7206C65.0553 28.7206 65.269 28.5495 65.5386 28.279Z" fill="white"/>
<path id="Vector_27" d="M70.7052 23.5616C70.8875 23.566 71.0674 23.6038 71.236 23.6732L71.509 22.5453C71.1816 22.424 70.8356 22.362 70.4866 22.3619C69.104 22.3619 68.6035 23.256 68.6035 24.3487V24.6222L67.9213 24.6742V25.8158H68.6035V29.7801H70.12V25.8143H71.0419V24.6146H70.12V24.3089C70.12 23.774 70.3337 23.5677 70.7052 23.5677" fill="white"/>
<path id="Vector_28" d="M79.9976 29.7779H81.6077L79.4937 22.9955H77.6744L75.5604 29.7779H77.1146L77.5317 28.1626H79.5834L79.9976 29.7779ZM77.8381 26.9706L78.0003 26.344C78.187 25.6654 78.3674 24.8707 78.5296 24.1555H78.5703C78.7512 24.8631 78.9301 25.6654 79.1163 26.344L79.2786 26.9706H77.8381Z" fill="white"/>
<path id="Vector_29" d="M87.4806 27.2033C87.4806 25.5222 88.6652 24.4952 89.8965 24.4952C91.3551 24.4952 92.0785 25.565 92.0785 26.9741C92.08 27.2008 92.0584 27.4271 92.0148 27.6495H88.95C89.0868 28.3984 89.596 28.7422 90.2783 28.7422C90.6718 28.7354 91.0556 28.6184 91.3869 28.4045L91.8888 29.3214C91.3517 29.69 90.7189 29.8924 90.069 29.9037C88.6074 29.9037 87.4777 28.9088 87.4777 27.1987M90.7787 26.6333C90.7787 26.0663 90.5331 25.6567 89.9268 25.6567C89.4475 25.6567 89.0333 25.9822 88.9304 26.6333H90.7787Z" fill="white"/>
<path id="Vector_30" d="M93.1263 24.6157H94.3649L94.4742 25.2698H94.5119C94.9428 24.8511 95.4599 24.4904 96.1573 24.4904C97.2719 24.4904 97.7463 25.2836 97.7463 26.5734V29.7828H96.2304V26.7721C96.2304 26.0293 96.0314 25.7971 95.5946 25.7971C95.2128 25.7971 94.979 25.9759 94.6458 26.2983V29.7828H93.1293L93.1263 24.6157Z" fill="white"/>
<path id="Vector_31" d="M99.2385 27.9016V25.8155H98.5376V24.6739L99.3233 24.6158L99.5007 23.2404H100.756V24.6158H101.984V25.8155H100.756V27.8832C100.756 28.4686 101.02 28.7039 101.419 28.7039C101.585 28.6983 101.75 28.6653 101.906 28.6061L102.145 29.7172C101.778 29.8397 101.394 29.9027 101.006 29.9036C99.7419 29.9036 99.2385 29.0982 99.2385 27.9016Z" fill="white"/>
<path id="Vector_32" d="M102.989 28.1751V22.4885H104.505V28.2363C104.505 28.5648 104.657 28.6688 104.779 28.6688C104.841 28.6706 104.904 28.6639 104.964 28.6489L105.146 29.7768C104.904 29.8687 104.647 29.9119 104.388 29.9036C103.346 29.9036 102.992 29.2189 102.992 28.1751" fill="white"/>
<path id="Vector_33" d="M108.635 31.6929L108.904 30.5269C109.017 30.5625 109.133 30.585 109.25 30.5941C109.751 30.5941 110.009 30.316 110.146 29.9156L110.222 29.6466L108.251 24.6156H109.776L110.509 26.8377C110.66 27.3053 110.779 27.7944 110.912 28.3002H110.955C111.068 27.8127 111.182 27.3221 111.309 26.8377L111.933 24.6156H113.386L111.603 29.8346C111.118 31.129 110.571 31.7984 109.367 31.7984C109.119 31.8023 108.873 31.7667 108.636 31.6929" fill="white"/>
<path id="Vector_34" d="M86.9186 28.8946C86.9186 30.5161 85.8128 31.2955 84.1405 31.2955C83.5063 31.3048 82.8784 31.1651 82.3069 30.8875L82.7118 29.865C83.1382 30.1046 83.6175 30.2318 84.1057 30.2349C84.8786 30.2349 85.4261 29.891 85.4261 28.9496V28.6684H85.408C85.2448 28.8969 85.0281 29.0814 84.7777 29.2061C84.5267 29.3308 84.2498 29.3917 83.9704 29.3837C82.7667 29.3837 81.9751 28.3964 81.9751 27.0286C81.9751 25.6608 82.7833 24.5742 84.0238 24.5742C84.3248 24.5708 84.6218 24.6427 84.8889 24.7835C85.1556 24.9243 85.3835 25.1297 85.5521 25.3812H85.5702L85.6065 24.6736H86.9186V28.8946ZM85.4795 26.9843C85.4795 26.2049 85.1198 25.6608 84.4831 25.6608C83.8464 25.6608 83.4852 26.2492 83.4852 27.0011C83.4852 27.753 83.8082 28.3246 84.4738 28.3246C85.1399 28.3246 85.4795 27.7622 85.4795 26.9843Z" fill="white"/>
<path id="Vector_35" d="M40.9256 22.9955H42.442V29.7779H40.9256V22.9955ZM40.9256 21.2212H42.4586V22.4897H40.9241L40.9256 21.2212Z" fill="white"/>
<path id="Vector_36" d="M55.473 24.6155H56.9895V29.778H55.473V24.6155ZM55.473 22.4255H57.0013V23.6878H55.4701L55.473 22.4255Z" fill="white"/>
<path id="Vector_37" d="M105.94 24.6155H107.457V29.778H105.94V24.6155ZM105.94 22.4255H107.469V23.6878H105.937L105.94 22.4255Z" fill="white"/>
<path id="Vector_38" d="M114.171 24.6155H115.687V29.778H114.171V24.6155ZM114.171 22.4255H115.698V23.6878H114.168L114.171 22.4255Z" fill="white"/>
</g>
</g>
</g>
</g>
<defs>
<clipPath id="clip0_53_252">
<rect width="149" height="41" fill="white"/>
</clipPath>
</defs>
</svg>
