<svg width="24" height="24" viewBox="0 0 24 24" fill="none" xmlns="http://www.w3.org/2000/svg">
<g id="instagram">
<path id="Vector (Stroke)" fill-rule="evenodd" clip-rule="evenodd" d="M7 3C4.79086 3 3 4.79086 3 7V17C3 19.2091 4.79086 21 7 21H17C19.2091 21 21 19.2091 21 17V7C21 4.79086 19.2091 3 17 3H7ZM1 7C1 3.68629 3.68629 1 7 1H17C20.3137 1 23 3.68629 23 7V17C23 20.3137 20.3137 23 17 23H7C3.68629 23 1 20.3137 1 17V7Z" fill="white"/>
<path id="Vector (Stroke)_2" fill-rule="evenodd" clip-rule="evenodd" d="M12.4833 8.989C11.8591 8.89644 11.2216 9.00305 10.6615 9.29368C10.1014 9.5843 9.64721 10.0441 9.36351 10.6078C9.07982 11.1714 8.98107 11.8102 9.08132 12.4332C9.18157 13.0562 9.47571 13.6317 9.9219 14.0779C10.3681 14.5241 10.9436 14.8182 11.5666 14.9184C12.1896 15.0187 12.8283 14.9199 13.392 14.6363C13.9556 14.3526 14.4155 13.8984 14.7061 13.3383C14.9967 12.7782 15.1033 12.1407 15.0108 11.5165C14.9164 10.8798 14.6197 10.2904 14.1645 9.83523C13.7094 9.3801 13.12 9.08341 12.4833 8.989ZM9.74037 7.51843C10.6739 7.03406 11.7363 6.85637 12.7766 7.01063C13.8378 7.16799 14.8202 7.66246 15.5788 8.42101C16.3373 9.17957 16.8318 10.162 16.9891 11.2231C17.1434 12.2634 16.9657 13.3259 16.4813 14.2594C15.997 15.1929 15.2306 15.9499 14.2912 16.4227C13.3518 16.8955 12.2872 17.0601 11.2489 16.893C10.2105 16.726 9.25134 16.2357 8.50768 15.4921C7.76403 14.7484 7.2738 13.7892 7.10672 12.7509C6.93964 11.7126 7.10422 10.648 7.57704 9.7086C8.04987 8.7692 8.80687 8.00281 9.74037 7.51843Z" fill="white"/>
<path id="Vector (Stroke)_3" fill-rule="evenodd" clip-rule="evenodd" d="M16.5 6.5C16.5 5.94772 16.9477 5.5 17.5 5.5H17.51C18.0623 5.5 18.51 5.94772 18.51 6.5C18.51 7.05228 18.0623 7.5 17.51 7.5H17.5C16.9477 7.5 16.5 7.05228 16.5 6.5Z" fill="white"/>
</g>
</svg>
