<svg width="15" height="19" viewBox="0 0 15 19" fill="none" xmlns="http://www.w3.org/2000/svg">
<g id="basic / location_outline">
<path d="M10.3789 7.49707C10.3789 9.15392 9.03576 10.4971 7.37891 10.4971C5.72205 10.4971 4.37891 9.15392 4.37891 7.49707C4.37891 5.84022 5.72205 4.49707 7.37891 4.49707C9.03576 4.49707 10.3789 5.84022 10.3789 7.49707Z" fill="white"/>
<path fill-rule="evenodd" clip-rule="evenodd" d="M0.378906 7.49707C0.378906 12.7471 7.37891 18.4971 7.37891 18.4971C7.37891 18.4971 14.3789 12.7471 14.3789 7.49707C14.3789 3.62707 11.2489 0.49707 7.37891 0.49707C3.50891 0.49707 0.378906 3.62707 0.378906 7.49707ZM2.37891 7.49707C2.37891 4.73164 4.61348 2.49707 7.37891 2.49707C10.1443 2.49707 12.3789 4.73164 12.3789 7.49707C12.3789 9.35777 11.0632 11.6267 9.34434 13.6832C8.6503 14.5136 7.95214 15.2373 7.3789 15.7945C6.80567 15.2373 6.10752 14.5136 5.41347 13.6832C3.6946 11.6267 2.37891 9.35777 2.37891 7.49707Z" fill="white"/>
</g>
</svg>
