<svg width="35" height="34" viewBox="0 0 35 34" fill="none" xmlns="http://www.w3.org/2000/svg">
<g id="menu">
<path id="Vector (Stroke)" fill-rule="evenodd" clip-rule="evenodd" d="M3.69531 17C3.69531 16.2176 4.32958 15.5833 5.11198 15.5833H30.612C31.3944 15.5833 32.0286 16.2176 32.0286 17C32.0286 17.7824 31.3944 18.4167 30.612 18.4167H5.11198C4.32958 18.4167 3.69531 17.7824 3.69531 17Z" fill="#262626"/>
<path id="Vector (Stroke)_2" fill-rule="evenodd" clip-rule="evenodd" d="M3.69531 8.5C3.69531 7.7176 4.32958 7.08333 5.11198 7.08333H30.612C31.3944 7.08333 32.0286 7.7176 32.0286 8.5C32.0286 9.2824 31.3944 9.91667 30.612 9.91667H5.11198C4.32958 9.91667 3.69531 9.2824 3.69531 8.5Z" fill="#262626"/>
<path id="Vector (Stroke)_3" fill-rule="evenodd" clip-rule="evenodd" d="M3.69531 25.5C3.69531 24.7176 4.32958 24.0833 5.11198 24.0833H30.612C31.3944 24.0833 32.0286 24.7176 32.0286 25.5C32.0286 26.2824 31.3944 26.9167 30.612 26.9167H5.11198C4.32958 26.9167 3.69531 26.2824 3.69531 25.5Z" fill="#262626"/>
</g>
</svg>
