<svg width="20" height="20" viewBox="0 0 20 20" fill="none" xmlns="http://www.w3.org/2000/svg">
<path id="basic / phone" d="M15.0853 10.7903C14.6943 10.3993 14.0623 10.3993 13.6713 10.7903L12.0773 12.3843C11.3383 12.1643 9.95926 11.6643 9.08526 10.7903C8.21126 9.91632 7.71126 8.53732 7.49126 7.79832L9.08526 6.20432C9.47626 5.81332 9.47626 5.18132 9.08526 4.79032L5.08526 0.79032C4.69426 0.39932 4.06226 0.39932 3.67126 0.79032L0.959264 3.50232C0.579264 3.88232 0.365263 4.40432 0.373263 4.93732C0.396263 6.36132 0.773264 11.3073 4.67126 15.2053C8.56926 19.1033 13.5153 19.4793 14.9403 19.5033C14.9453 19.5033 14.9633 19.5033 14.9683 19.5033C15.4963 19.5033 15.9953 19.2953 16.3733 18.9173L19.0853 16.2053C19.4763 15.8143 19.4763 15.1823 19.0853 14.7913L15.0853 10.7903ZM14.9583 17.5023C13.7103 17.4813 9.44026 17.1463 6.08526 13.7903C2.71926 10.4243 2.39326 6.13932 2.37326 4.91632L4.37826 2.91132L6.96426 5.49732L5.67126 6.79032C5.43226 7.02832 5.33026 7.37232 5.39926 7.70232C5.42326 7.81732 6.01026 10.5443 7.67026 12.2043C9.33026 13.8643 12.0573 14.4513 12.1723 14.4753C12.5053 14.5463 12.8463 14.4433 13.0843 14.2043L14.3783 12.9113L16.9643 15.4973L14.9583 17.5023Z" fill="white"/>
</svg>
