<svg width="40" height="40" viewBox="0 0 40 40" fill="none" xmlns="http://www.w3.org/2000/svg">
<g id="search">
<path id="Vector (Stroke)" fill-rule="evenodd" clip-rule="evenodd" d="M18.333 6.66668C11.8897 6.66668 6.66634 11.89 6.66634 18.3333C6.66634 24.7767 11.8897 30 18.333 30C24.7763 30 29.9997 24.7767 29.9997 18.3333C29.9997 11.89 24.7763 6.66668 18.333 6.66668ZM3.33301 18.3333C3.33301 10.0491 10.0487 3.33334 18.333 3.33334C26.6173 3.33334 33.333 10.0491 33.333 18.3333C33.333 26.6176 26.6173 33.3333 18.333 33.3333C10.0487 33.3333 3.33301 26.6176 3.33301 18.3333Z" fill="white"/>
<path id="Vector (Stroke)_2" fill-rule="evenodd" clip-rule="evenodd" d="M26.5712 26.5715C27.222 25.9206 28.2773 25.9206 28.9282 26.5715L36.1782 33.8215C36.8291 34.4724 36.8291 35.5276 36.1782 36.1785C35.5273 36.8294 34.472 36.8294 33.8212 36.1785L26.5712 28.9285C25.9203 28.2776 25.9203 27.2224 26.5712 26.5715Z" fill="white"/>
</g>
</svg>
