<svg width="113" height="22" viewBox="0 0 113 22" fill="none" xmlns="http://www.w3.org/2000/svg">
<g id="Group 2219">
<path id="Vector" d="M42.5288 -9.15527e-05H46.0161V8.57087L46.5248 8.1962C48.2913 6.8821 50.2548 6.59806 52.3029 7.29766C54.4545 8.03153 55.6076 9.69488 55.7045 11.881C55.8369 14.8529 55.7379 17.8359 55.7379 20.8498H52.2428C52.2428 20.6642 52.2428 20.4708 52.2428 20.2762C52.2338 17.8658 52.2483 15.4553 52.206 13.0459C52.1782 11.4765 51.2822 10.4431 49.8607 10.2088C48.3903 9.96676 46.9611 10.7039 46.5103 12.123C46.2221 13.0865 46.0637 14.0836 46.0395 15.0883C45.9683 16.9971 46.0183 18.9102 46.0183 20.8532H42.5288V-9.15527e-05Z" fill="white"/>
<path id="Vector_2" d="M86.0683 17.2639C84.7267 20.3831 81.467 21.9681 77.9642 21.2431C75.0884 20.6473 73.0883 18.5583 72.5289 15.5673C71.947 12.4591 73.3798 9.34877 76.0564 7.90522C77.0735 7.35149 78.2153 7.05593 79.3781 7.04534C80.541 7.03475 81.6882 7.30948 82.7155 7.8446C83.7429 8.37972 84.6179 9.15829 85.2612 10.1097C85.9045 11.061 86.2957 12.1551 86.3993 13.2925C86.4555 13.8894 86.46 14.4907 86.4904 15.1428H76.044C76.044 16.8516 77.6536 18.3759 79.4601 18.4002C80.8108 18.4179 81.96 18.0244 82.749 16.8594C82.8323 16.7345 83.125 16.6626 83.2972 16.6947C84.2145 16.8583 85.124 17.065 86.0683 17.2639ZM82.7321 12.6702C82.4721 11.0123 80.9695 9.98101 79.0774 10.1457C77.5422 10.2794 76.1273 11.6401 76.187 12.6702H82.7321Z" fill="white"/>
<path id="Vector_3" d="M25.8194 17.2678C25.1379 18.8451 24.0757 20.0149 22.5145 20.735C19.1309 22.2936 15.1112 21.1029 13.3398 17.9526C11.274 14.2788 12.5553 8.99446 17.0032 7.44142C18.0163 7.08195 19.0997 6.96468 20.1665 7.09903C21.2332 7.23338 22.2535 7.6156 23.1454 8.21501C24.0373 8.81441 24.776 9.61428 25.3021 10.5504C25.8281 11.4865 26.127 12.5327 26.1746 13.605C26.2012 14.0987 26.1746 14.5991 26.1746 15.1381H15.9665C15.899 16.8801 17.6616 18.4662 19.5248 18.3944C20.7674 18.3469 21.8207 17.9526 22.5477 16.8657C22.6373 16.7309 22.9537 16.6569 23.1396 16.6912C24.0215 16.8535 24.8955 17.0634 25.8194 17.2678ZM16.0439 12.6539H22.5266C22.4016 11.3682 21.1004 10.2018 19.7395 10.1454C17.8364 10.0626 16.3604 11.0567 16.0439 12.6539Z" fill="white"/>
<path id="Vector_4" d="M57.4652 7.51183H60.9676V8.6964C61.8851 7.87367 63.0252 7.33084 64.2497 7.13377C67.613 6.56505 70.5569 8.78844 70.6637 12.135C70.755 15.0291 70.6827 17.9275 70.6827 20.8533H67.1625C67.1625 20.667 67.1625 20.4752 67.1625 20.2835C67.1625 17.8935 67.1847 15.5035 67.1424 13.1136C67.1213 11.9082 66.6073 10.922 65.389 10.4464C64.3187 10.0256 62.8757 10.3248 62.098 11.1324C61.3203 11.94 61.0477 12.935 61.0166 13.9815C60.9554 16.0635 60.9665 18.139 60.9487 20.2177C60.9487 20.4171 60.9487 20.6166 60.9487 20.8467H57.4663L57.4652 7.51183Z" fill="white"/>
<path id="Vector_5" d="M87.6178 17.4586L91.1538 16.759C91.3786 17.8642 92.1126 18.3969 93.1152 18.5007C93.8178 18.5696 94.527 18.5323 95.2181 18.3902C95.5075 18.3364 95.768 18.1833 95.9532 17.9582C96.1385 17.7332 96.2364 17.4507 96.2297 17.1613C96.1915 16.5247 95.7374 16.2186 95.1923 16.0804C94.2189 15.8329 93.2298 15.6384 92.2452 15.4372C91.0088 15.1841 89.8062 14.8316 88.9194 13.8811C87.5537 12.4179 87.7403 9.92905 89.2914 8.51223C91.6776 6.33394 96.5321 6.62239 98.5833 9.10349C99.0161 9.62624 99.2779 10.2849 99.6792 10.9823L96.2084 11.6807C96.1034 11.4154 95.981 11.1569 95.8419 10.9071C95.1799 9.86164 93.1747 9.45493 92.1328 10.1446C91.9423 10.264 91.7889 10.4329 91.6898 10.6326C91.5906 10.8323 91.5495 11.055 91.5708 11.2763C91.6012 11.8045 91.9372 12.1317 92.4228 12.251C93.5985 12.5373 94.7832 12.7815 95.9667 13.0423C97.2177 13.3186 98.3698 13.7772 99.1071 14.8769C100.343 16.7292 99.6927 19.2887 97.6987 20.4923C95.4216 21.8671 91.2471 21.6825 89.1149 20.1132C88.2517 19.4777 87.6628 18.4621 87.6178 17.4586Z" fill="white"/>
<path id="Vector_6" d="M37.8339 12.9436C37.7835 12.8162 37.7484 12.7331 37.7177 12.649C37.017 10.7659 35.701 10.0171 33.6734 10.3383C32.0285 10.5986 30.7959 12.0419 30.7071 13.8087C30.6446 15.0659 30.8409 16.2312 31.7894 17.1517C32.2174 17.5726 32.7397 17.8828 33.3118 18.0559C33.884 18.229 34.4891 18.2599 35.0756 18.1461C35.6621 18.0322 36.2128 17.7768 36.6806 17.4018C37.1484 17.0268 37.5197 16.5431 37.7627 15.992C37.8208 15.859 37.8723 15.725 37.9491 15.5544C38.4864 15.6862 39.0117 15.8092 39.5348 15.9443C40.0579 16.0795 40.5821 16.2279 41.1029 16.3708C40.5546 19.4247 37.3843 21.6201 33.8829 21.4019C30.3441 21.1804 27.4995 18.3004 27.324 14.7613C27.1321 10.891 29.5479 7.74188 33.1646 7.14815C36.7976 6.55222 40.1752 8.58815 41.1216 11.9965L37.8339 12.9436Z" fill="white"/>
<path id="Vector_7" d="M111.478 17.6031C111.799 18.5244 112.106 19.407 112.411 20.2896C112.417 20.3263 112.417 20.3636 112.411 20.4002C110.445 21.7828 107.177 21.754 105.412 20.3206C104.125 19.2765 103.767 17.8265 103.734 16.2792C103.695 14.5858 103.724 12.8914 103.723 11.197V10.5101H100.862V7.68311H103.726V3.09973H107.218V7.6621H111.62V10.4747H107.24C107.24 11.7168 107.24 12.8903 107.24 14.0627C107.24 14.7075 107.232 15.3523 107.252 15.996C107.308 17.7225 108.323 18.4857 110.033 18.0742C110.514 17.9581 110.977 17.769 111.478 17.6031Z" fill="white"/>
<path id="Vector_8" d="M10.8604 17.5283C11.1789 18.4731 11.4967 19.4146 11.8137 20.3527C9.66 21.9464 6.06096 21.7175 4.385 19.8825C3.67886 19.1158 3.26421 18.1185 3.21534 17.0692C3.12967 15.4744 3.13956 13.874 3.1154 12.2758C3.10551 11.6258 3.1154 10.9758 3.1154 10.2655H0.259888V7.34951H3.07147C3.18129 6.74531 2.97042 6.08527 3.57667 5.61732C4.06321 5.24206 4.43552 4.71492 4.88362 4.22687C5.43275 4.83889 6.02252 5.38502 6.46623 6.03054C6.6749 6.33544 6.6112 6.83466 6.67929 7.30931H10.9779V10.2421H6.66831C6.66831 12.2993 6.58704 14.3062 6.69577 16.302C6.77155 17.688 7.78635 18.3313 9.13942 18.0454C9.70613 17.9247 10.2542 17.7137 10.8604 17.5283Z" fill="white"/>
<path id="Vector_9" d="M3.078 4.79052V-9.15527e-05H6.74141V4.73559C6.26296 4.25554 5.84667 3.8458 5.43858 3.42946C4.96248 2.94282 4.87922 2.93623 4.38904 3.42946C3.97158 3.85678 3.56466 4.2852 3.078 4.79052Z" fill="white"/>
</g>
</svg>
