<svg width="40" height="40" viewBox="0 0 40 40" fill="none" xmlns="http://www.w3.org/2000/svg">
<g id="ttttgeg-03">
<path id="Vector" d="M6.21588 38.6326C6.22773 38.1971 6.07736 37.8919 5.78366 37.6115C5.07403 36.9385 4.39292 36.2385 3.70366 35.5441C2.66921 34.4997 2.36218 33.2763 2.80255 31.8663C3.17032 30.6885 3.49032 29.496 3.90181 28.3326C4.14736 27.6378 4.16884 26.9808 4.00736 26.2748C3.92032 25.8934 3.91477 25.4767 3.95847 25.0856C4.01884 24.5456 4.31477 24.0582 4.79551 23.8474C5.34329 23.6074 5.48144 23.1871 5.62366 22.6993C5.85662 21.9008 6.09958 21.1041 6.36995 20.3178C7.42107 17.2597 10.1922 15.2141 13.4233 15.1863C17.4618 15.1518 21.5006 15.1518 25.5396 15.1863C28.8481 15.2152 31.6207 17.3223 32.6659 20.5197C32.9551 21.406 33.2048 22.3052 33.5011 23.1889C33.5716 23.3797 33.7069 23.5396 33.8833 23.6408C34.7403 24.0893 35.1833 24.93 35.027 25.8926C35.0047 26.0635 34.9738 26.2331 34.9344 26.4008C34.767 27.0304 34.82 27.6256 35.0344 28.2482C35.4451 29.4411 35.784 30.6589 36.1596 31.8641C36.604 33.2919 36.2814 34.5234 35.2285 35.5741C34.547 36.2545 33.8785 36.9482 33.1807 37.6111C32.8874 37.89 32.7362 38.1956 32.7481 38.6304H33.2148C34.7241 38.6304 36.2334 38.6304 37.7425 38.6304C38.294 38.6304 38.6118 38.8789 38.6192 39.3023C38.6266 39.7256 38.3048 39.996 37.764 39.9963C25.9213 39.9988 14.0777 40 2.23329 40C1.69329 40 1.37181 39.7308 1.38144 39.3041C1.39107 38.8774 1.70514 38.6374 2.25958 38.6345C3.4381 38.6323 4.61674 38.6323 5.79551 38.6345L6.21588 38.6326ZM19.4851 24.8226C15.0451 24.8226 10.6051 24.8226 6.16514 24.8226C5.49403 24.8226 5.1781 25.1437 5.28329 25.7256C6.01983 29.791 6.75835 33.8564 7.49884 37.9219C7.59292 38.4374 7.82477 38.6308 8.3581 38.6308C15.7727 38.6327 23.187 38.6327 30.6011 38.6308C31.1351 38.6308 31.3725 38.4374 31.4651 37.9271C32.1911 33.932 32.9149 29.9367 33.6366 25.9411C33.7918 25.08 33.5625 24.8219 32.6737 24.8219L19.4851 24.8226ZM6.82403 23.426H32.1396C31.8503 22.4974 31.5962 21.6015 31.2929 20.7223C30.4266 18.2145 28.1448 16.5619 25.4944 16.55C21.4853 16.5318 17.4759 16.5318 13.4662 16.55C11.6659 16.5585 10.1566 17.2697 8.92403 18.5871C7.65255 19.9456 7.40736 21.7337 6.82403 23.426ZM5.54995 35.5315L5.6681 35.4574L4.75366 30.4445C4.43662 31.2056 4.16514 31.9608 4.01625 32.7408C3.94662 33.1063 4.00292 33.5882 4.19736 33.893C4.57551 34.4837 5.09107 34.9897 5.54995 35.5315ZM33.2962 35.4467L33.3759 35.5171C33.7955 35.0708 34.2488 34.6508 34.6251 34.1704C34.7973 33.956 34.9156 33.7036 34.9703 33.4341C35.025 33.1647 35.0145 32.8861 34.9396 32.6215C34.7422 31.8911 34.5166 31.1682 34.3033 30.4423H34.2111C33.9074 32.1099 33.6024 33.7781 33.2962 35.4467Z" fill="#487E64"/>
<path id="Vector_2" d="M19.4815 0C23.2726 0 26.3703 3.09333 26.3759 6.88111C26.3807 10.6867 23.2681 13.7933 19.46 13.7841C15.6744 13.7748 12.5848 10.6704 12.5892 6.88C12.5937 3.08963 15.6922 0 19.4815 0ZM19.4781 1.36741C16.4444 1.37037 13.9629 3.84333 13.9566 6.87333C13.9515 9.93074 16.4318 12.4181 19.4855 12.417C22.5392 12.4159 25.0155 9.92593 25.0085 6.86704C25 3.83815 22.5163 1.3663 19.4792 1.36741H19.4781Z" fill="#487E64"/>
<path id="Vector_3" d="M19.4444 34.4844C18.4485 34.4455 17.5318 34.1652 16.7985 33.4389C15.7703 32.42 15.7985 30.9478 16.8489 29.9615C18.2155 28.6807 20.6211 28.6429 22.0285 29.8804C23.2255 30.9329 23.2185 32.5581 22.0051 33.5933C21.2726 34.2178 20.4026 34.4633 19.4444 34.4844ZM19.4844 33.1181C20.1174 33.0989 20.7066 32.9526 21.1818 32.5059C21.6848 32.0326 21.6844 31.4452 21.197 30.9607C20.367 30.1355 18.5963 30.1363 17.7674 30.9607C17.2807 31.4455 17.2814 32.0322 17.7859 32.5059C18.2592 32.9537 18.8518 33.0992 19.4837 33.1181H19.4844Z" fill="#487E64"/>
</g>
</svg>
