<svg width="40" height="40" viewBox="0 0 40 40" fill="none" xmlns="http://www.w3.org/2000/svg">
<g id="ttttgeg-01" clip-path="url(#clip0_53_100)">
<path id="Vector" d="M0 28.9803C0.37037 28.0544 1.14333 27.5837 2.0237 27.294C4.64852 26.4311 7.28741 26.4392 9.92037 27.2711C10.2167 27.364 10.4959 27.5107 10.7704 27.6566C11.6119 28.104 12.0322 28.7633 12.0144 29.7659C11.9722 32.1859 11.9863 34.607 12.0089 37.0274C12.0167 37.8422 11.6833 38.4218 11.0196 38.8481C10.0433 39.4755 8.94556 39.7288 7.81704 39.8718C5.85778 40.1196 3.91926 40.0381 2.04481 39.3618C1.56759 39.194 1.12125 38.9487 0.723704 38.6359C0.417037 38.3881 0.236667 37.9851 0 37.6507L0 28.9803ZM5.61593 27.9874C5.21482 28.0325 4.42556 28.0525 3.67148 28.2255C2.97259 28.3855 2.29111 28.6666 1.64185 28.9755C1.21926 29.1774 1.23889 29.4366 1.64185 29.6925C1.93603 29.8825 2.25249 30.0355 2.58407 30.1481C4.52074 30.7851 6.49667 30.8148 8.47296 30.3988C9.12148 30.2625 9.75 29.9781 10.3504 29.6844C10.7696 29.4796 10.7496 29.2211 10.3504 28.9618C10.0891 28.7918 9.81021 28.6506 9.51852 28.5407C8.38259 28.1174 7.19333 28.0114 5.61519 27.9874H5.61593ZM1.35333 31.0703C1.26889 32.1914 1.37444 32.357 2.37296 32.7399C2.39704 32.7492 2.42037 32.7611 2.44481 32.7699C3.40444 33.1348 4.40778 33.2762 5.42407 33.3129C6.95667 33.3681 8.46889 33.2551 9.89519 32.6259C10.6774 32.2803 10.8081 31.9766 10.5989 31.0885C9.13889 31.7407 7.60556 32.0037 6.01444 32.0059C4.40741 32.0081 2.86259 31.7362 1.35333 31.0703ZM10.6296 36.437C7.51852 37.6629 4.43259 37.6592 1.34926 36.4277C1.27519 37.5325 1.35704 37.6644 2.3363 38.0607C2.45667 38.1092 2.57593 38.1718 2.70185 38.1937C3.51667 38.3459 4.32889 38.5544 5.15185 38.6222C6.71926 38.7507 8.27296 38.6222 9.75111 38.0225C10.6441 37.6618 10.7504 37.4477 10.6296 36.437ZM1.35889 33.764C1.29519 34.8381 1.18889 34.857 2.28 35.3748C2.30333 35.3859 2.33 35.3896 2.35407 35.3992C3.29444 35.7807 4.2837 35.927 5.28704 35.9729C6.91185 36.047 8.51519 35.9388 10.0163 35.2322C10.7074 34.9059 10.8441 34.5196 10.5926 33.7877C7.51333 34.9971 4.43543 34.9892 1.35889 33.764Z" fill="#487E64"/>
<path id="Vector_2" d="M39.9841 0V7.31444H38.6689V2.28667C38.4859 2.45667 38.3748 2.55407 38.2704 2.65704C34.1469 6.78049 30.0259 10.9049 25.9074 15.0304C25.6989 15.2396 25.493 15.33 25.1948 15.3293C20.7837 15.3204 16.3725 15.3219 11.9611 15.3337C11.7232 15.3417 11.4946 15.428 11.3107 15.5793C8.00234 18.4578 4.70049 21.3437 1.40518 24.237C1.3174 24.3137 1.22703 24.387 1.10444 24.4904C0.81703 24.1648 0.53666 23.8467 0.228882 23.4985C0.877771 22.9289 1.50777 22.3737 2.13962 21.8207C5.01765 19.3007 7.89493 16.7802 10.7715 14.2593C10.9937 14.0648 11.2126 13.9881 11.5041 13.9885C15.8893 13.9963 20.2744 13.9911 24.6596 14.0004C24.9448 14.0004 25.1411 13.9148 25.3385 13.7152C29.3449 9.69568 33.3555 5.68086 37.3704 1.67074C37.4585 1.58222 37.5393 1.48556 37.6715 1.34296H32.643V0H39.9841Z" fill="#487E64"/>
<path id="Vector_3" d="M39.9841 26.6767C39.9841 30.1385 39.9722 33.6004 39.993 37.0623C39.9978 37.8519 39.67 38.4037 39.0441 38.8234C38.2156 39.3789 37.2778 39.6382 36.3107 39.796C34.1878 40.14 32.0885 40.0797 30.0348 39.3697C29.7292 39.2597 29.4338 39.1234 29.1518 38.9622C28.3622 38.5226 27.9667 37.8882 27.9711 36.9352C27.9941 30.0898 27.9941 23.2443 27.9711 16.3989C27.9678 15.4282 28.3726 14.7941 29.1759 14.3452C30.2548 13.7422 31.4352 13.5045 32.6474 13.3993C34.3974 13.2474 36.1289 13.3348 37.8111 13.9063C38.118 14.0138 38.4163 14.1442 38.7037 14.2963C39.5726 14.7467 40.0144 15.4074 40 16.4497C39.957 19.8571 39.9841 23.2671 39.9841 26.6767ZM33.8274 14.6722C32.8233 14.6634 31.6881 14.7834 30.5978 15.166C30.2327 15.2994 29.8846 15.4754 29.5607 15.6904C29.2515 15.8915 29.2552 16.0893 29.5507 16.3026C29.7798 16.4725 30.0305 16.611 30.2963 16.7145C32.3444 17.4722 34.4444 17.5008 36.5511 17.0508C37.1504 16.9226 37.7363 16.6693 38.2856 16.39C38.7722 16.143 38.7563 15.893 38.2985 15.6034C38.0456 15.4453 37.7772 15.3136 37.4974 15.2104C36.3626 14.7871 35.177 14.6667 33.8274 14.6722ZM38.6341 28.4348C35.5278 29.6534 32.4418 29.6623 29.3585 28.4382C29.2215 29.4226 29.3115 29.6745 30.1881 29.9874C30.94 30.2556 31.7307 30.4689 32.5215 30.5641C34.2526 30.7745 35.977 30.6993 37.6326 30.0674C38.6252 29.6889 38.7037 29.5404 38.6341 28.4348ZM29.3704 31.1082C29.1956 32.0182 29.3148 32.2674 30.0952 32.6319C30.2363 32.698 30.3811 32.756 30.5289 32.8056C32.3481 33.4119 34.2107 33.4752 36.0774 33.1389C36.8078 33.0082 37.5104 32.703 38.2122 32.4415C38.5422 32.3185 38.7107 32.0456 38.6567 31.6637C38.6322 31.4863 38.6526 31.303 38.6526 31.0889C35.5427 32.3269 32.4486 32.3334 29.3704 31.1082ZM38.6207 25.7715C35.513 26.9982 32.4293 26.9834 29.3467 25.7715C29.2504 26.826 29.327 27.0345 30.2781 27.3611C31.0448 27.6248 31.8518 27.826 32.6567 27.913C34.3604 28.0982 36.0593 28.0208 37.6841 27.3811C38.6141 27.0152 38.713 26.8389 38.6415 25.8385C38.6361 25.8157 38.629 25.7933 38.6204 25.7715H38.6207ZM29.3704 23.1111C29.2056 24.0493 29.2926 24.3334 30.1226 24.6219C30.9744 24.9182 31.8633 25.1556 32.7563 25.2545C34.46 25.443 36.1596 25.343 37.7763 24.6793C38.6374 24.326 38.7618 24.073 38.6159 23.1123C35.5422 24.3174 32.4685 24.3278 29.3704 23.1111ZM29.3704 36.4393C29.1989 37.3771 29.313 37.6089 30.1393 37.9819C31.0652 38.3993 32.0515 38.5611 33.0544 38.6274C34.6389 38.7322 36.2107 38.6522 37.6948 38.0348C38.8181 37.5678 38.6893 37.49 38.6267 36.4374C35.547 37.6537 32.4704 37.6667 29.3681 36.4374L29.3704 36.4393ZM29.3663 17.7745C29.2111 18.733 29.3237 18.9515 30.1485 19.3222C30.2904 19.3863 30.4322 19.4641 30.5822 19.4945C31.3818 19.6574 32.1781 19.8741 32.9867 19.9474C34.6189 20.0956 36.2374 19.9797 37.7759 19.3456C38.647 18.9867 38.7593 18.7485 38.6174 17.7763C35.5407 18.9922 32.4652 19 29.3641 17.7726L29.3663 17.7745ZM29.3559 33.7682C29.233 34.7789 29.3463 34.9822 30.2189 35.356C30.2559 35.3715 30.293 35.3815 30.33 35.396C31.2811 35.7819 32.2815 35.9271 33.2963 35.9771C34.7863 36.0511 36.2593 35.94 37.663 35.39C38.6211 35.0141 38.7078 34.8541 38.647 33.8252C38.6435 33.8061 38.6386 33.7873 38.6322 33.7689C35.5489 34.9908 32.4644 35 29.3537 33.7663L29.3559 33.7682ZM38.6559 20.4034C37.117 21.0667 35.5778 21.3382 33.9707 21.3408C32.3882 21.3472 30.8203 21.0373 29.3593 20.4293C29.2359 21.446 29.3426 21.6422 30.2059 22.0152C30.4314 22.1124 30.6633 22.1939 30.9 22.2593C32.6718 22.7515 34.4681 22.7952 36.2626 22.4445C36.9156 22.3163 37.5433 22.0437 38.17 21.8034C38.527 21.6663 38.7193 21.3874 38.6578 20.9719C38.6333 20.8078 38.6537 20.6367 38.6537 20.4015L38.6559 20.4034Z" fill="#487E64"/>
<path id="Vector_4" d="M13.9882 30.6207C13.9882 28.4859 13.9989 26.3507 13.9822 24.2162C13.9767 23.4955 14.2748 22.9662 14.8437 22.5648C15.6933 21.9655 16.6678 21.6955 17.6741 21.5277C19.637 21.1977 21.5919 21.2425 23.5063 21.814C24.07 21.9822 24.6137 22.2618 25.1211 22.5666C25.7296 22.9318 26.0037 23.5059 26.0015 24.2411C25.9886 28.5235 25.9886 32.8061 26.0015 37.0888C26.0041 37.8429 25.6885 38.3851 25.0922 38.7955C24.2589 39.3681 23.3089 39.634 22.3282 39.7955C20.2048 40.1422 18.1037 40.084 16.0511 39.3744C15.7325 39.2625 15.425 39.1211 15.1326 38.9522C14.3641 38.5125 13.957 37.8896 13.9752 36.9492C14.0159 34.8385 13.9882 32.7292 13.9882 30.6207ZM20.0056 25.3703C20.7156 25.2962 21.44 25.2892 22.1315 25.1344C22.8622 24.9671 23.5739 24.7253 24.2552 24.4125C24.7907 24.1692 24.7767 23.8859 24.2737 23.5855C23.951 23.3926 23.6069 23.2377 23.2485 23.124C21.6326 22.6162 19.9785 22.5636 18.3107 22.7748C17.4174 22.8881 16.5419 23.0811 15.7552 23.5473C15.2067 23.8729 15.2074 24.1029 15.737 24.4362C15.8471 24.505 15.9618 24.566 16.0804 24.6188C17.3282 25.1825 18.6533 25.3151 20.0056 25.3703ZM15.3456 28.4322C15.2515 29.4933 15.3545 29.6648 16.2978 30.0533C16.3937 30.0929 16.4933 30.1233 16.5911 30.1581C17.6719 30.5425 18.7963 30.657 19.9315 30.6581C21.2915 30.6581 22.6352 30.5296 23.8945 29.957C24.6789 29.6003 24.8022 29.3211 24.6045 28.4451C21.5311 29.6629 18.4545 29.6511 15.3456 28.4322ZM15.3507 25.7414C15.2467 26.8173 15.3311 26.9799 16.2674 27.3673C17.5026 27.8785 18.8063 27.9992 20.1278 27.9862C21.4367 27.9736 22.7241 27.8318 23.9285 27.2722C24.697 26.9148 24.8115 26.6425 24.5952 25.7607C23.1322 26.3944 21.6048 26.6666 20.0115 26.6666C18.4048 26.6692 16.8648 26.3981 15.3507 25.7407V25.7414ZM24.6633 36.4233C21.5174 37.6596 18.4319 37.6592 15.347 36.4299C15.293 37.484 15.1648 37.5225 16.2845 38.0422C16.4266 38.106 16.5732 38.1596 16.723 38.2025C18.5252 38.7481 20.3589 38.8051 22.1948 38.4548C22.8737 38.3255 23.5282 38.0473 24.1789 37.7988C24.5333 37.6636 24.7289 37.3814 24.6674 36.9651C24.643 36.8011 24.6633 36.6296 24.6633 36.4233ZM15.3415 31.0936C15.2622 32.1855 15.3641 32.3492 16.3326 32.7303C16.403 32.7636 16.4764 32.7901 16.5519 32.8092C17.5196 32.9811 18.4826 33.2273 19.4582 33.2996C20.9307 33.4085 22.3941 33.2566 23.7767 32.6736C24.6637 32.2996 24.7637 32.0936 24.6252 31.1051C21.5415 32.3255 18.4559 32.3281 15.3415 31.0936ZM15.3396 33.7603C15.2656 34.8633 15.3563 35.0033 16.3326 35.3962C17.2856 35.7777 18.2859 35.9259 19.3011 35.9751C20.8319 36.0492 22.3441 35.9381 23.7774 35.3396C24.663 34.9692 24.7626 34.7566 24.6252 33.7692C21.5404 34.9955 18.4537 34.9966 15.3396 33.7588V33.7603Z" fill="#487E64"/>
</g>
<defs>
<clipPath id="clip0_53_100">
<rect width="40" height="40" fill="white"/>
</clipPath>
</defs>
</svg>

