<svg width="40" height="40" viewBox="0 0 40 40" fill="none" xmlns="http://www.w3.org/2000/svg">
<g id="ttttgeg-02" clip-path="url(#clip0_53_105)">
<path id="Vector" d="M7.6629 13.1982C7.19401 13.3764 6.78438 13.5115 6.39216 13.6856C5.83438 13.9334 5.45735 14.3615 5.25475 14.9393C5.02698 15.5882 4.80809 16.2404 4.57142 16.8864C4.04401 18.3245 2.68253 18.9115 1.38438 18.2686C0.48142 17.8204 0.00845739 16.7971 0.359939 15.8471C0.860309 14.4945 1.39364 13.1512 1.97994 11.8338C2.38475 10.926 3.11105 10.3056 4.06661 9.9682C5.19883 9.56783 6.32253 9.1445 7.45475 8.74598C8.51735 8.37228 9.60957 8.27413 10.7296 8.41265C11.5873 8.51783 12.4488 8.59783 13.3099 8.66894C14.6755 8.78302 15.8655 9.3045 16.9125 10.1749C17.5051 10.6671 18.1229 11.1326 18.6785 11.6634C19.5877 12.533 20.6355 12.7978 21.8492 12.5601C22.3385 12.4641 22.8366 12.4119 23.3307 12.3478C24.5214 12.1964 25.5899 13.026 25.7544 14.2226C25.9166 15.4041 25.157 16.3826 23.9322 16.563C22.7181 16.7419 21.5144 17.0075 20.2711 16.893C19.0636 16.7819 17.9477 16.4249 16.9355 15.7545C16.3429 15.3619 15.7503 14.9689 15.0948 14.5345C15.0507 15.0312 15.0092 15.4552 14.9759 15.8797C14.8707 17.226 14.7736 18.5734 14.6596 19.9189C14.6392 20.1567 14.6922 20.2789 14.9266 20.3704C15.6551 20.6552 16.371 20.9693 17.0951 21.2678C18.6877 21.926 19.2848 22.9197 19.1636 24.6586C19.021 26.7067 18.8944 28.756 18.7707 30.8067C18.707 31.8623 17.9188 32.6904 16.8781 32.7641C15.9055 32.833 14.9496 32.1149 14.8088 31.0915C14.724 30.4734 14.8062 29.8293 14.8388 29.1982C14.9029 27.9571 14.9903 26.7167 15.0499 25.476C15.0559 25.356 14.9551 25.1426 14.8673 25.1197C14.0311 24.9171 13.1866 24.7471 12.2748 24.553C12.3533 24.9282 12.4203 25.2497 12.4881 25.5715C12.6733 26.4556 12.9062 27.3338 13.0277 28.2271C13.0825 28.6315 13.0162 29.1126 12.8388 29.4786C11.6536 31.9186 10.4344 34.3404 9.2092 36.7601C8.75846 37.6489 7.82031 38.0678 6.81994 37.8738C5.84216 37.6845 5.18661 37.0126 5.12438 35.9971C5.0992 35.5897 5.2129 35.1312 5.39179 34.7575C6.3829 32.6889 7.41809 30.6419 8.4229 28.5801C8.51549 28.3897 8.57105 28.1334 8.52698 27.9319C8.16623 26.2282 7.88179 24.5004 7.36661 22.8441C6.94475 21.4882 7.1229 20.1775 7.21846 18.8412C7.35179 16.9815 7.51068 15.126 7.6629 13.1982ZM16.1218 27.6149C16.0699 28.5186 16.0029 29.4219 15.9736 30.3264C15.9636 30.5924 16.0203 30.8567 16.1385 31.0952C16.3018 31.4026 16.6248 31.5438 16.9711 31.453C17.281 31.3712 17.5314 31.1778 17.5548 30.8108C17.6936 28.6538 17.8399 26.4971 17.9648 24.3389C18.0185 23.4038 17.6903 22.9093 16.8292 22.5419C15.9111 22.1504 14.9877 21.7697 14.0681 21.3815C13.4433 21.1178 13.3662 21.0064 13.4155 20.3445C13.5834 18.0949 13.7556 15.8456 13.9322 13.5967C13.9929 12.826 14.4433 12.6086 15.0829 13.0378C15.8681 13.5649 16.617 14.1534 17.437 14.6178C18.136 15.0191 18.8791 15.3382 19.6514 15.5689C21.1062 15.9915 22.5462 15.553 23.9792 15.3171C24.4148 15.2452 24.6162 14.8234 24.5303 14.3749C24.4599 14.0045 24.0288 13.6964 23.6129 13.7397C23.1429 13.7886 22.671 13.8367 22.2077 13.9249C20.544 14.2464 19.0796 13.9023 17.8277 12.7152C17.3092 12.223 16.7344 11.7893 16.187 11.3286C15.3159 10.5941 14.3244 10.1497 13.1822 10.0452C12.227 9.95746 11.2744 9.84561 10.3192 9.75635C9.44772 9.67487 8.59364 9.75968 7.76586 10.063C6.65105 10.4704 5.53401 10.8738 4.41883 11.2804C3.88512 11.4749 3.47253 11.8267 3.24883 12.3415C2.69549 13.616 2.16735 14.9015 1.64327 16.1886C1.48475 16.5775 1.64327 16.9452 2.02142 17.1964C2.36142 17.4208 2.68031 17.336 2.9392 17.0756C3.11923 16.8965 3.26286 16.6842 3.36216 16.4504C3.61105 15.8386 3.82031 15.2104 4.04809 14.5901C4.42327 13.5675 5.11661 12.8575 6.13698 12.4675C6.80364 12.2119 7.47031 11.9489 8.13698 11.6897C8.21173 11.6605 8.29193 11.6478 8.37205 11.6525C8.45218 11.6573 8.53032 11.6793 8.6011 11.7172C8.67188 11.755 8.73363 11.8077 8.78208 11.8717C8.83054 11.9357 8.86456 12.0094 8.88179 12.0878C8.90696 12.2346 8.91145 12.3842 8.89512 12.5323C8.68475 15.2926 8.49401 18.0556 8.24327 20.8149C8.16179 21.7101 8.71253 22.523 9.59364 22.6926C11.6207 23.0826 13.6307 23.5564 15.6481 24.0001C16.1507 24.1112 16.2892 24.2804 16.2677 24.783C16.227 25.7264 16.1711 26.6704 16.1218 27.6149ZM8.9629 23.8382C8.98364 23.963 8.99253 24.0397 9.00957 24.1145C9.28957 25.3508 9.55957 26.5897 9.85846 27.8212C9.95364 28.2126 9.91105 28.5423 9.72772 28.9034C8.64549 31.0319 7.58512 33.1712 6.51846 35.3075C6.26883 35.8071 6.37031 36.3575 6.74957 36.5667C7.23587 36.8356 7.86512 36.6356 8.12735 36.113C9.30068 33.7741 10.474 31.4356 11.6296 29.0878C11.7407 28.8593 11.8148 28.5545 11.7662 28.3123C11.5129 27.0293 11.2181 25.7541 10.927 24.4789C10.9048 24.3823 10.8111 24.2482 10.727 24.2275C10.1562 24.0864 9.57957 23.9712 8.9629 23.8382Z" fill="#487E64"/>
<path id="Vector_2" d="M8.3055 38.7452C9.38698 38.7452 10.4685 38.726 11.5488 38.7548C11.9151 38.7648 12.0625 38.6322 12.1833 38.3078C12.6673 37.006 13.194 35.7197 13.6748 34.4163C13.8373 33.9748 14.1003 33.8197 14.5555 33.8237C16.0825 33.8408 17.6099 33.8237 19.137 33.8371C19.4048 33.8397 19.5444 33.7563 19.667 33.5211C20.5225 31.8971 21.4029 30.2867 22.2525 28.6597C22.4629 28.2574 22.7429 28.0971 23.187 28.1067C24.0651 28.126 24.9444 28.096 25.8222 28.1204C26.1622 28.13 26.3485 28.023 26.5259 27.7271C30.455 21.1584 34.3908 14.594 38.3333 8.03373C38.354 7.99891 38.3762 7.96521 38.397 7.9304C38.7255 7.38336 39.0407 7.2441 39.4236 7.47669C39.7862 7.69706 39.8107 8.04447 39.4955 8.5704C37.9333 11.1756 36.3707 13.7805 34.8077 16.3852C32.322 20.5297 29.8382 24.6753 27.3562 28.8222C27.0877 29.273 26.7681 29.4656 26.2451 29.4448C25.4085 29.4119 24.5692 29.453 23.7318 29.4278C23.3933 29.4178 23.2096 29.5119 23.0462 29.826C22.2122 31.4304 21.3388 33.0145 20.4999 34.6163C20.2973 35.0026 20.0285 35.1589 19.5992 35.1548C18.0992 35.1408 16.5992 35.1571 15.0988 35.143C14.8118 35.1404 14.6699 35.2234 14.5685 35.5C14.0907 36.8045 13.5814 38.0974 13.1018 39.4011C12.9514 39.8104 12.7133 40.0022 12.2629 40C9.83031 39.9874 7.39735 39.9915 4.96661 39.9967C4.58587 39.9967 4.29661 39.8963 4.21661 39.4826C4.13513 39.0589 4.4092 38.753 4.90291 38.7489C6.03698 38.7408 7.17031 38.746 8.3055 38.7452Z" fill="#487E64"/>
<path id="Vector_3" d="M38.4911 27.1137C38.4911 23.3162 38.4911 19.5189 38.4911 15.7219C38.4911 15.1608 38.6818 14.9141 39.1114 14.9115C39.4577 14.9093 39.6796 15.0712 39.7326 15.4204C39.7521 15.5812 39.7597 15.7433 39.7552 15.9052C39.7552 23.3919 39.7552 30.8784 39.7552 38.3649C39.7598 38.5268 39.7521 38.6889 39.7322 38.8497C39.6792 39.1993 39.4563 39.3604 39.1107 39.3578C38.7592 39.3556 38.5574 39.1674 38.5011 38.8293C38.4789 38.6974 38.4907 38.5597 38.4907 38.4249C38.491 34.6545 38.4911 30.8841 38.4911 27.1137Z" fill="#487E64"/>
<path id="Vector_4" d="M12.716 7.40333C10.639 7.41185 9.00231 5.80296 8.97972 3.73148C8.95713 1.66 10.6071 0 12.6964 0C14.7705 0 16.4056 1.6237 16.4127 3.69185C16.4197 5.76 14.7894 7.39481 12.716 7.40333ZM10.2505 3.69963C10.2505 5.07667 11.3008 6.14407 12.6727 6.16C14.0571 6.17519 15.1401 5.09815 15.1412 3.70519C15.1423 2.31222 14.0623 1.23259 12.6782 1.24519C11.3042 1.25926 10.2519 2.32111 10.2505 3.69889V3.69963Z" fill="#487E64"/>
<path id="Vector_5" d="M33.212 31.673C33.212 29.4189 33.212 27.1647 33.212 24.9104C33.212 24.7756 33.2001 24.6367 33.2275 24.507C33.296 24.1856 33.5168 24.0222 33.8371 24.0256C34.1575 24.0289 34.3834 24.1782 34.4394 24.51C34.4601 24.6705 34.4676 24.8324 34.4616 24.9941C34.4616 29.4632 34.4616 33.9311 34.4616 38.3978C34.4655 38.5461 34.4603 38.6945 34.446 38.8422C34.4016 39.1967 34.179 39.357 33.8353 39.3582C33.4916 39.3593 33.2753 39.1852 33.2216 38.8396C33.2008 38.7074 33.212 38.57 33.212 38.4352C33.2115 36.1814 33.2115 33.9273 33.212 31.673Z" fill="#487E64"/>
<path id="Vector_6" d="M27.93 35.1215C27.93 33.9601 27.9252 32.7986 27.9326 31.6375C27.9359 31.1163 28.2785 30.8452 28.7444 30.9749C29.1204 31.0793 29.1767 31.3701 29.1759 31.7038C29.173 33.3109 29.173 34.918 29.1759 36.5249C29.1759 37.2134 29.1785 37.9023 29.1759 38.5908C29.173 39.123 28.9837 39.3552 28.5615 39.3586C28.1393 39.3619 27.9348 39.1282 27.9319 38.6056C27.9278 37.4445 27.93 36.2826 27.93 35.1215Z" fill="#487E64"/>
<path id="Vector_7" d="M22.6951 36.0971C22.6951 35.2452 22.6873 34.396 22.6981 33.5456C22.7044 33.0504 22.9477 32.8134 23.3818 32.8419C23.7592 32.8663 23.9536 33.0956 23.9558 33.4478C23.9662 35.2165 23.9662 36.9849 23.9558 38.753C23.9533 39.1397 23.7029 39.3552 23.3388 39.3589C22.9536 39.3626 22.7114 39.1504 22.7033 38.7293C22.6858 37.8523 22.6981 36.9749 22.6981 36.0975L22.6951 36.0971Z" fill="#487E64"/>
<path id="Vector_8" d="M17.4138 37.9629C17.4138 37.7066 17.3975 37.4496 17.4179 37.1951C17.4483 36.8203 17.7049 36.587 18.0564 36.6025C18.4168 36.6199 18.649 36.8181 18.6664 37.1781C18.6909 37.7159 18.6931 38.2566 18.6664 38.794C18.6464 39.1748 18.3846 39.3725 18.0131 39.357C17.6416 39.3414 17.4475 39.1229 17.4205 38.7696C17.396 38.5025 17.4135 38.2314 17.4138 37.9629Z" fill="#487E64"/>
</g>
<defs>
<clipPath id="clip0_53_105">
<rect width="40" height="40" fill="white"/>
</clipPath>
</defs>
</svg>
