<svg width="20" height="20" viewBox="0 0 20 20" fill="none" xmlns="http://www.w3.org/2000/svg">
<g id="whatsapp">
<path id="Vector" fill-rule="evenodd" clip-rule="evenodd" d="M9.85917 0.49707C8.1536 0.498191 6.47982 0.958733 5.01375 1.83029C3.54768 2.70186 2.34346 3.95225 1.52765 5.45006C0.711846 6.94787 0.314556 8.63779 0.377579 10.3422C0.440602 12.0466 0.961592 13.7026 1.88579 15.136L0.439782 18.3104C0.386667 18.4362 0.365423 18.5732 0.377966 18.7092C0.390509 18.8452 0.436423 18.976 0.511655 19.09C0.586888 19.204 0.689122 19.2977 0.80924 19.3627C0.929357 19.4277 1.06364 19.462 1.20022 19.4626C1.27278 19.4735 1.34657 19.4735 1.41914 19.4626L5.38855 18.3738C6.66149 19.0571 8.07361 19.441 9.51732 19.496C10.961 19.5511 12.3982 19.276 13.7195 18.6916C15.0408 18.1072 16.2114 17.229 17.1419 16.1238C18.0725 15.0186 18.7385 13.7156 19.0893 12.3141C19.4402 10.9126 19.4665 9.44952 19.1664 8.03627C18.8663 6.62303 18.2475 5.29693 17.3574 4.15896C16.4672 3.021 15.3291 2.10119 14.0297 1.4696C12.7303 0.838014 11.3039 0.511303 9.85917 0.514354V0.49707ZM9.85917 17.8207C8.47447 17.8204 7.11463 17.4526 5.91856 16.7549C5.79028 16.6825 5.64533 16.6447 5.49801 16.6454C5.4255 16.6338 5.3516 16.6338 5.27909 16.6454L2.68082 17.3541L3.58532 15.3665C3.64686 15.2335 3.67183 15.0866 3.65765 14.9407C3.64347 14.7949 3.59066 14.6555 3.50466 14.5369C2.47618 13.1094 1.95813 11.3772 2.0339 9.61944C2.10966 7.86165 2.77483 6.18052 3.92232 4.84679C5.06982 3.51306 6.63282 2.60437 8.35961 2.26706C10.0864 1.92976 11.8765 2.18346 13.4415 2.98733C15.0066 3.79119 16.2555 5.09842 16.9872 6.69849C17.7188 8.29856 17.8907 10.0983 17.475 11.8079C17.0593 13.5176 16.0803 15.0375 14.6957 16.123C13.311 17.2085 11.6013 17.7964 9.84187 17.7919L9.85917 17.8207Z" fill="white"/>
<path id="Vector_2" fill-rule="evenodd" clip-rule="evenodd" d="M13.4831 11.4087C13.2907 11.2565 13.0665 11.1495 12.8272 11.0957C12.5879 11.0418 12.3395 11.0425 12.1005 11.0976C11.7375 11.2474 11.5243 11.8062 11.2766 12.0943C11.2278 12.1625 11.1554 12.2102 11.0736 12.2282C10.9917 12.2463 10.906 12.2335 10.833 12.1922C9.5185 11.6767 8.41632 10.7329 7.70473 9.51331C7.644 9.43614 7.61549 9.33847 7.62515 9.24075C7.63482 9.14302 7.68189 9.05283 7.75656 8.98905C8.02691 8.7383 8.22574 8.42017 8.33267 8.06727C8.35541 7.68744 8.26734 7.30917 8.07918 6.97843C7.93312 6.50396 7.65305 6.08182 7.27264 5.76283C7.07734 5.67207 6.85972 5.64061 6.64671 5.67236C6.4337 5.70411 6.23467 5.79766 6.07433 5.94143C5.80106 6.17949 5.58506 6.47617 5.44241 6.80934C5.29977 7.14251 5.23417 7.50358 5.25049 7.86564C5.24944 8.07345 5.27461 8.28056 5.32539 8.48207C5.44889 8.95955 5.64307 9.41588 5.9015 9.83593C6.0889 10.1555 6.29273 10.465 6.51217 10.7635C7.23102 11.7498 8.13264 12.5888 9.16803 13.235C9.68602 13.5536 10.2364 13.8163 10.81 14.0185C11.4141 14.292 12.0813 14.3955 12.7399 14.3181C13.111 14.2569 13.4618 14.1071 13.7627 13.8814C14.0636 13.6558 14.3056 13.3609 14.4683 13.0218C14.5611 12.8121 14.5892 12.5794 14.5489 12.3535C14.4683 11.9042 13.8518 11.6334 13.4831 11.4087Z" fill="white"/>
</g>
</svg>
