<svg width="34" height="34" viewBox="0 0 34 34" fill="none" xmlns="http://www.w3.org/2000/svg">
<g id="x">
<path id="Vector (Stroke)" fill-rule="evenodd" clip-rule="evenodd" d="M26.5017 7.49827C27.0549 8.05151 27.0549 8.94849 26.5017 9.50173L9.50165 26.5017C8.94841 27.055 8.05143 27.055 7.49818 26.5017C6.94494 25.9485 6.94494 25.0515 7.49818 24.4983L24.4982 7.49827C25.0514 6.94502 25.9484 6.94502 26.5017 7.49827Z" fill="black"/>
<path id="Vector (Stroke)_2" fill-rule="evenodd" clip-rule="evenodd" d="M7.49818 7.49827C8.05143 6.94502 8.94841 6.94502 9.50165 7.49827L26.5017 24.4983C27.0549 25.0515 27.0549 25.9485 26.5017 26.5017C25.9484 27.055 25.0514 27.055 24.4982 26.5017L7.49818 9.50173C6.94494 8.94849 6.94494 8.05151 7.49818 7.49827Z" fill="black"/>
</g>
</svg>
